<svg width="434" height="249" viewBox="0 0 434 249" fill="none" xmlns="http://www.w3.org/2000/svg">
<path fill-rule="evenodd" clip-rule="evenodd" d="M367.298 103.215L370.355 105.147L372.072 102.43L369.015 100.498L367.298 103.215ZM362.883 100.424L365.94 102.356L367.657 99.6391L364.6 97.7071L362.883 100.424ZM366.072 93.1236C366.107 93.0673 366.145 93.0273 366.175 92.999L368.292 94.3371L370.233 95.5637L368.516 98.2806L364.458 95.7158C364.471 95.6763 364.49 95.6252 364.526 95.5688L366.072 93.1236ZM368.804 91.8088C369.041 91.4338 369.582 91.3498 370.01 91.6202C370.863 92.1599 370.918 93.2308 370.816 94.031L369.151 92.9787C368.723 92.7082 368.567 92.1837 368.804 91.8088ZM375.249 94.932C375.677 95.2025 375.833 95.727 375.596 96.102C375.359 96.4769 374.818 96.5609 374.39 96.2905L372.722 95.2356C373.398 94.7979 374.387 94.3872 375.249 94.932ZM375.581 99.1341L374.035 101.579C374 101.636 373.962 101.676 373.932 101.704L369.874 99.1393L371.591 96.4224L373.532 97.6489L375.649 98.9871C375.636 99.0267 375.616 99.0778 375.581 99.1341ZM376.661 97.7257L376.394 97.557C376.609 97.3944 376.803 97.2004 376.955 96.9606C377.665 95.8372 377.285 94.3176 376.108 93.5736C374.802 92.7484 373.468 93.0451 372.459 93.5458C372.478 92.4191 372.174 91.087 370.868 90.2618C369.691 89.5178 368.156 89.8267 367.445 90.9501C367.294 91.1899 367.203 91.4487 367.147 91.7122L366.88 91.5435C366.195 91.1103 365.243 91.4275 364.713 92.265L363.168 94.7102C362.692 95.4621 362.747 96.3387 363.257 96.824L361.382 99.7916C360.987 100.416 361.218 101.273 361.897 101.702L369.623 106.585C370.302 107.015 371.176 106.856 371.57 106.231L373.446 103.264C374.103 103.517 374.918 103.19 375.394 102.438L376.939 99.9928C377.469 99.1553 377.346 98.1589 376.661 97.7257Z" fill="#3366FF" fill-opacity="0.2"/>
<mask id="mask0_496_3595" style="mask-type:alpha" maskUnits="userSpaceOnUse" x="361" y="89" width="17" height="18">
<path fill-rule="evenodd" clip-rule="evenodd" d="M367.298 103.215L370.355 105.147L372.072 102.43L369.015 100.498L367.298 103.215ZM362.883 100.424L365.94 102.356L367.657 99.6391L364.6 97.7071L362.883 100.424ZM366.072 93.1236C366.107 93.0673 366.145 93.0273 366.175 92.999L368.292 94.3371L370.233 95.5637L368.516 98.2806L364.458 95.7158C364.471 95.6763 364.49 95.6252 364.526 95.5688L366.072 93.1236ZM368.804 91.8088C369.041 91.4338 369.582 91.3498 370.01 91.6202C370.863 92.1599 370.918 93.2308 370.816 94.031L369.151 92.9787C368.723 92.7082 368.567 92.1837 368.804 91.8088ZM375.249 94.932C375.677 95.2025 375.833 95.727 375.596 96.102C375.359 96.4769 374.818 96.5609 374.39 96.2905L372.722 95.2356C373.398 94.7979 374.387 94.3872 375.249 94.932ZM375.581 99.1341L374.035 101.579C374 101.636 373.962 101.676 373.932 101.704L369.874 99.1393L371.591 96.4224L373.532 97.6489L375.649 98.9871C375.636 99.0267 375.616 99.0778 375.581 99.1341ZM376.661 97.7257L376.394 97.557C376.609 97.3944 376.803 97.2004 376.955 96.9606C377.665 95.8372 377.285 94.3176 376.108 93.5736C374.802 92.7484 373.468 93.0451 372.459 93.5458C372.478 92.4191 372.174 91.087 370.868 90.2618C369.691 89.5178 368.156 89.8267 367.445 90.9501C367.294 91.1899 367.203 91.4487 367.147 91.7122L366.88 91.5435C366.195 91.1103 365.243 91.4275 364.713 92.265L363.168 94.7102C362.692 95.4621 362.747 96.3387 363.257 96.824L361.382 99.7916C360.987 100.416 361.218 101.273 361.897 101.702L369.623 106.585C370.302 107.015 371.176 106.856 371.57 106.231L373.446 103.264C374.103 103.517 374.918 103.19 375.394 102.438L376.939 99.9928C377.469 99.1553 377.346 98.1589 376.661 97.7257Z" fill="white"/>
</mask>
<g mask="url(#mask0_496_3595)">
</g>
<path fill-rule="evenodd" clip-rule="evenodd" d="M383.011 192.049L386.068 193.981L387.785 191.264L384.728 189.332L383.011 192.049ZM378.596 189.258L381.653 191.19L383.37 188.474L380.313 186.542L378.596 189.258ZM381.785 181.958C381.82 181.902 381.858 181.862 381.888 181.833L384.005 183.172L385.946 184.398L384.228 187.115L380.171 184.55C380.183 184.511 380.203 184.46 380.239 184.403L381.785 181.958ZM384.517 180.643C384.754 180.268 385.295 180.184 385.722 180.455C386.576 180.994 386.631 182.065 386.529 182.865L384.864 181.813C384.436 181.543 384.28 181.018 384.517 180.643ZM390.962 183.767C391.39 184.037 391.546 184.562 391.309 184.936C391.072 185.311 390.531 185.395 390.103 185.125L388.435 184.07C389.11 183.632 390.1 183.222 390.962 183.767ZM391.294 187.969L389.748 190.414C389.712 190.47 389.675 190.51 389.645 190.538L385.587 187.974L387.304 185.257L389.245 186.483L391.362 187.822C391.349 187.861 391.329 187.912 391.294 187.969ZM392.374 186.56L392.107 186.391C392.322 186.229 392.516 186.035 392.668 185.795C393.378 184.672 392.998 183.152 391.821 182.408C390.515 181.583 389.181 181.88 388.172 182.38C388.191 181.254 387.887 179.921 386.581 179.096C385.404 178.352 383.868 178.661 383.158 179.785C383.007 180.024 382.915 180.283 382.86 180.547L382.593 180.378C381.908 179.945 380.955 180.262 380.426 181.099L378.881 183.545C378.405 184.297 378.46 185.173 378.97 185.658L377.095 188.626C376.7 189.25 376.931 190.107 377.61 190.536L385.336 195.42C386.015 195.849 386.888 195.69 387.283 195.066L389.159 192.098C389.816 192.351 390.631 192.024 391.107 191.272L392.652 188.827C393.181 187.99 393.059 186.993 392.374 186.56Z" fill="#3366FF" fill-opacity="0.2"/>
<mask id="mask1_496_3595" style="mask-type:alpha" maskUnits="userSpaceOnUse" x="376" y="178" width="18" height="18">
<path fill-rule="evenodd" clip-rule="evenodd" d="M383.011 192.049L386.068 193.981L387.785 191.264L384.728 189.332L383.011 192.049ZM378.596 189.258L381.653 191.19L383.37 188.474L380.313 186.542L378.596 189.258ZM381.785 181.958C381.82 181.902 381.858 181.862 381.888 181.833L384.005 183.172L385.946 184.398L384.228 187.115L380.171 184.55C380.183 184.511 380.203 184.46 380.239 184.403L381.785 181.958ZM384.517 180.643C384.754 180.268 385.295 180.184 385.722 180.455C386.576 180.994 386.631 182.065 386.529 182.865L384.864 181.813C384.436 181.543 384.28 181.018 384.517 180.643ZM390.962 183.767C391.39 184.037 391.546 184.562 391.309 184.936C391.072 185.311 390.531 185.395 390.103 185.125L388.435 184.07C389.11 183.632 390.1 183.222 390.962 183.767ZM391.294 187.969L389.748 190.414C389.712 190.47 389.675 190.51 389.645 190.538L385.587 187.974L387.304 185.257L389.245 186.483L391.362 187.822C391.349 187.861 391.329 187.912 391.294 187.969ZM392.374 186.56L392.107 186.391C392.322 186.229 392.516 186.035 392.668 185.795C393.378 184.672 392.998 183.152 391.821 182.408C390.515 181.583 389.181 181.88 388.172 182.38C388.191 181.254 387.887 179.921 386.581 179.096C385.404 178.352 383.868 178.661 383.158 179.785C383.007 180.024 382.915 180.283 382.86 180.547L382.593 180.378C381.908 179.945 380.955 180.262 380.426 181.099L378.881 183.545C378.405 184.297 378.46 185.173 378.97 185.658L377.095 188.626C376.7 189.25 376.931 190.107 377.61 190.536L385.336 195.42C386.015 195.849 386.888 195.69 387.283 195.066L389.159 192.098C389.816 192.351 390.631 192.024 391.107 191.272L392.652 188.827C393.181 187.99 393.059 186.993 392.374 186.56Z" fill="white"/>
</mask>
<g mask="url(#mask1_496_3595)">
</g>
<path fill-rule="evenodd" clip-rule="evenodd" d="M276.945 240.261L280.001 242.193L281.718 239.476L278.662 237.544L276.945 240.261ZM272.53 237.47L275.586 239.402L277.303 236.685L274.247 234.753L272.53 237.47ZM275.718 230.17C275.754 230.114 275.791 230.074 275.822 230.045L277.939 231.383L279.879 232.61L278.162 235.327L274.104 232.762C274.117 232.723 274.137 232.672 274.173 232.615L275.718 230.17ZM278.45 228.855C278.687 228.48 279.228 228.396 279.656 228.667C280.51 229.206 280.565 230.277 280.462 231.077L278.797 230.025C278.37 229.755 278.213 229.23 278.45 228.855ZM284.896 231.978C285.324 232.249 285.48 232.773 285.243 233.148C285.006 233.523 284.465 233.607 284.037 233.337L282.368 232.282C283.044 231.844 284.034 231.434 284.896 231.978ZM285.227 236.18L283.682 238.626C283.646 238.682 283.608 238.722 283.578 238.75L279.521 236.186L281.238 233.469L283.178 234.695L285.295 236.033C285.283 236.073 285.263 236.124 285.227 236.18ZM286.308 234.772L286.041 234.603C286.256 234.441 286.45 234.247 286.601 234.007C287.311 232.883 286.931 231.364 285.754 230.62C284.449 229.795 283.115 230.091 282.105 230.592C282.125 229.465 281.82 228.133 280.515 227.308C279.338 226.564 277.802 226.873 277.092 227.996C276.94 228.236 276.849 228.495 276.794 228.759L276.527 228.59C275.841 228.157 274.889 228.474 274.36 229.311L272.814 231.757C272.339 232.508 272.393 233.385 272.904 233.87L271.028 236.838C270.634 237.462 270.865 238.319 271.543 238.748L279.269 243.632C279.949 244.061 280.822 243.902 281.217 243.278L283.092 240.31C283.75 240.563 284.565 240.236 285.04 239.484L286.586 237.039C287.115 236.202 286.993 235.205 286.308 234.772Z" fill="#3366FF" fill-opacity="0.2"/>
<mask id="mask2_496_3595" style="mask-type:alpha" maskUnits="userSpaceOnUse" x="270" y="226" width="17" height="18">
<path fill-rule="evenodd" clip-rule="evenodd" d="M276.945 240.261L280.001 242.193L281.718 239.476L278.662 237.544L276.945 240.261ZM272.53 237.47L275.586 239.402L277.303 236.685L274.247 234.753L272.53 237.47ZM275.718 230.17C275.754 230.114 275.791 230.074 275.822 230.045L277.939 231.383L279.879 232.61L278.162 235.327L274.104 232.762C274.117 232.723 274.137 232.672 274.173 232.615L275.718 230.17ZM278.45 228.855C278.687 228.48 279.228 228.396 279.656 228.667C280.51 229.206 280.565 230.277 280.462 231.077L278.797 230.025C278.37 229.755 278.213 229.23 278.45 228.855ZM284.896 231.978C285.324 232.249 285.48 232.773 285.243 233.148C285.006 233.523 284.465 233.607 284.037 233.337L282.368 232.282C283.044 231.844 284.034 231.434 284.896 231.978ZM285.227 236.18L283.682 238.626C283.646 238.682 283.608 238.722 283.578 238.75L279.521 236.186L281.238 233.469L283.178 234.695L285.295 236.033C285.283 236.073 285.263 236.124 285.227 236.18ZM286.308 234.772L286.041 234.603C286.256 234.441 286.45 234.247 286.601 234.007C287.311 232.883 286.931 231.364 285.754 230.62C284.449 229.795 283.115 230.091 282.105 230.592C282.125 229.465 281.82 228.133 280.515 227.308C279.338 226.564 277.802 226.873 277.092 227.996C276.94 228.236 276.849 228.495 276.794 228.759L276.527 228.59C275.841 228.157 274.889 228.474 274.36 229.311L272.814 231.757C272.339 232.508 272.393 233.385 272.904 233.87L271.028 236.838C270.634 237.462 270.865 238.319 271.543 238.748L279.269 243.632C279.949 244.061 280.822 243.902 281.217 243.278L283.092 240.31C283.75 240.563 284.565 240.236 285.04 239.484L286.586 237.039C287.115 236.202 286.993 235.205 286.308 234.772Z" fill="white"/>
</mask>
<g mask="url(#mask2_496_3595)">
</g>
<path fill-rule="evenodd" clip-rule="evenodd" d="M101.777 192.049L104.833 193.981L106.55 191.264L103.494 189.332L101.777 192.049ZM97.3617 189.258L100.418 191.19L102.135 188.474L99.0789 186.542L97.3617 189.258ZM100.55 181.958C100.586 181.902 100.623 181.862 100.654 181.833L102.771 183.172L104.711 184.398L102.994 187.115L98.9364 184.55C98.9491 184.511 98.969 184.46 99.0046 184.403L100.55 181.958ZM103.282 180.643C103.519 180.268 104.06 180.184 104.488 180.455C105.342 180.994 105.397 182.065 105.294 182.865L103.629 181.813C103.202 181.543 103.045 181.018 103.282 180.643ZM109.728 183.767C110.156 184.037 110.312 184.562 110.075 184.936C109.838 185.311 109.297 185.395 108.869 185.125L107.2 184.07C107.876 183.632 108.866 183.222 109.728 183.767ZM110.059 187.969L108.514 190.414C108.478 190.47 108.441 190.51 108.41 190.538L104.353 187.974L106.07 185.257L108.01 186.483L110.128 187.822C110.115 187.861 110.095 187.912 110.059 187.969ZM111.14 186.56L110.873 186.391C111.088 186.229 111.282 186.035 111.433 185.795C112.143 184.672 111.763 183.152 110.586 182.408C109.281 181.583 107.947 181.88 106.937 182.38C106.957 181.254 106.652 179.921 105.347 179.096C104.17 178.352 102.634 178.661 101.924 179.785C101.772 180.024 101.681 180.283 101.626 180.547L101.359 180.378C100.673 179.945 99.7211 180.262 99.1917 181.099L97.6462 183.545C97.1709 184.297 97.2252 185.173 97.736 185.658L95.8603 188.626C95.4657 189.25 95.6968 190.107 96.3753 190.536L104.102 195.42C104.781 195.849 105.654 195.69 106.049 195.066L107.924 192.098C108.582 192.351 109.397 192.024 109.872 191.272L111.418 188.827C111.947 187.99 111.825 186.993 111.14 186.56Z" fill="#3366FF" fill-opacity="0.2"/>
<mask id="mask3_496_3595" style="mask-type:alpha" maskUnits="userSpaceOnUse" x="95" y="178" width="17" height="18">
<path fill-rule="evenodd" clip-rule="evenodd" d="M101.777 192.049L104.833 193.981L106.55 191.264L103.494 189.332L101.777 192.049ZM97.3617 189.258L100.418 191.19L102.135 188.474L99.0789 186.542L97.3617 189.258ZM100.55 181.958C100.586 181.902 100.623 181.862 100.654 181.833L102.771 183.172L104.711 184.398L102.994 187.115L98.9364 184.55C98.9491 184.511 98.969 184.46 99.0046 184.403L100.55 181.958ZM103.282 180.643C103.519 180.268 104.06 180.184 104.488 180.455C105.342 180.994 105.397 182.065 105.294 182.865L103.629 181.813C103.202 181.543 103.045 181.018 103.282 180.643ZM109.728 183.767C110.156 184.037 110.312 184.562 110.075 184.936C109.838 185.311 109.297 185.395 108.869 185.125L107.2 184.07C107.876 183.632 108.866 183.222 109.728 183.767ZM110.059 187.969L108.514 190.414C108.478 190.47 108.441 190.51 108.41 190.538L104.353 187.974L106.07 185.257L108.01 186.483L110.128 187.822C110.115 187.861 110.095 187.912 110.059 187.969ZM111.14 186.56L110.873 186.391C111.088 186.229 111.282 186.035 111.433 185.795C112.143 184.672 111.763 183.152 110.586 182.408C109.281 181.583 107.947 181.88 106.937 182.38C106.957 181.254 106.652 179.921 105.347 179.096C104.17 178.352 102.634 178.661 101.924 179.785C101.772 180.024 101.681 180.283 101.626 180.547L101.359 180.378C100.673 179.945 99.7211 180.262 99.1917 181.099L97.6462 183.545C97.1709 184.297 97.2252 185.173 97.736 185.658L95.8603 188.626C95.4657 189.25 95.6968 190.107 96.3753 190.536L104.102 195.42C104.781 195.849 105.654 195.69 106.049 195.066L107.924 192.098C108.582 192.351 109.397 192.024 109.872 191.272L111.418 188.827C111.947 187.99 111.825 186.993 111.14 186.56Z" fill="white"/>
</mask>
<g mask="url(#mask3_496_3595)">
</g>
<path fill-rule="evenodd" clip-rule="evenodd" d="M55.9739 137.409L59.0304 139.341L60.7477 136.624L57.6912 134.692L55.9739 137.409ZM51.5589 134.618L54.6154 136.55L56.3327 133.833L53.2762 131.901L51.5589 134.618ZM54.7474 127.318C54.7831 127.262 54.8207 127.222 54.851 127.193L56.9681 128.532L58.9086 129.758L57.1914 132.475L53.1337 129.91C53.1463 129.871 53.1663 129.82 53.2019 129.763L54.7474 127.318ZM57.4797 126.003C57.7167 125.628 58.2575 125.544 58.6854 125.815C59.5392 126.354 59.5942 127.425 59.4915 128.225L57.8267 127.173C57.3988 126.903 57.2427 126.378 57.4797 126.003ZM63.9249 129.126C64.3528 129.397 64.5089 129.921 64.272 130.296C64.035 130.671 63.4942 130.755 63.0663 130.485L61.3974 129.43C62.0734 128.992 63.063 128.582 63.9249 129.126ZM64.2566 133.328L62.711 135.774C62.6754 135.83 62.6378 135.87 62.6075 135.898L58.5498 133.334L60.2671 130.617L62.2076 131.843L64.3248 133.181C64.3121 133.221 64.2922 133.272 64.2566 133.328ZM65.3369 131.92L65.07 131.751C65.2849 131.589 65.4789 131.395 65.6304 131.155C66.3405 130.032 65.9607 128.512 64.7836 127.768C63.4781 126.943 62.1442 127.239 61.1347 127.74C61.1539 126.613 60.8495 125.281 59.544 124.456C58.3669 123.712 56.8314 124.021 56.1213 125.144C55.9697 125.384 55.8784 125.643 55.823 125.907L55.5561 125.738C54.8708 125.305 53.9183 125.622 53.389 126.459L51.8434 128.905C51.3682 129.656 51.4225 130.533 51.9332 131.018L50.0575 133.986C49.663 134.61 49.8941 135.467 50.5726 135.896L58.2988 140.78C58.978 141.209 59.8513 141.05 60.2459 140.426L62.1216 137.458C62.7791 137.711 63.5942 137.384 64.0695 136.632L65.615 134.187C66.1444 133.35 66.0223 132.353 65.3369 131.92Z" fill="#3366FF" fill-opacity="0.2"/>
<mask id="mask4_496_3595" style="mask-type:alpha" maskUnits="userSpaceOnUse" x="49" y="124" width="17" height="18">
<path fill-rule="evenodd" clip-rule="evenodd" d="M55.9739 137.409L59.0304 139.341L60.7477 136.624L57.6912 134.692L55.9739 137.409ZM51.5589 134.618L54.6154 136.55L56.3327 133.833L53.2762 131.901L51.5589 134.618ZM54.7474 127.318C54.7831 127.262 54.8207 127.222 54.851 127.193L56.9681 128.532L58.9086 129.758L57.1914 132.475L53.1337 129.91C53.1463 129.871 53.1663 129.82 53.2019 129.763L54.7474 127.318ZM57.4797 126.003C57.7167 125.628 58.2575 125.544 58.6854 125.815C59.5392 126.354 59.5942 127.425 59.4915 128.225L57.8267 127.173C57.3988 126.903 57.2427 126.378 57.4797 126.003ZM63.9249 129.126C64.3528 129.397 64.5089 129.921 64.272 130.296C64.035 130.671 63.4942 130.755 63.0663 130.485L61.3974 129.43C62.0734 128.992 63.063 128.582 63.9249 129.126ZM64.2566 133.328L62.711 135.774C62.6754 135.83 62.6378 135.87 62.6075 135.898L58.5498 133.334L60.2671 130.617L62.2076 131.843L64.3248 133.181C64.3121 133.221 64.2922 133.272 64.2566 133.328ZM65.3369 131.92L65.07 131.751C65.2849 131.589 65.4789 131.395 65.6304 131.155C66.3405 130.032 65.9607 128.512 64.7836 127.768C63.4781 126.943 62.1442 127.239 61.1347 127.74C61.1539 126.613 60.8495 125.281 59.544 124.456C58.3669 123.712 56.8314 124.021 56.1213 125.144C55.9697 125.384 55.8784 125.643 55.823 125.907L55.5561 125.738C54.8708 125.305 53.9183 125.622 53.389 126.459L51.8434 128.905C51.3682 129.656 51.4225 130.533 51.9332 131.018L50.0575 133.986C49.663 134.61 49.8941 135.467 50.5726 135.896L58.2988 140.78C58.978 141.209 59.8513 141.05 60.2459 140.426L62.1216 137.458C62.7791 137.711 63.5942 137.384 64.0695 136.632L65.615 134.187C66.1444 133.35 66.0223 132.353 65.3369 131.92Z" fill="white"/>
</mask>
<g mask="url(#mask4_496_3595)">
</g>
<path fill-rule="evenodd" clip-rule="evenodd" d="M10.9758 101.25L14.0323 103.182L15.7496 100.465L12.6931 98.5332L10.9758 101.25ZM6.56088 98.4595L9.61739 100.391L11.3347 97.6746L8.27817 95.7426L6.56088 98.4595ZM9.74939 91.1591C9.78503 91.1028 9.82262 91.0628 9.85292 91.0345L11.9701 92.3727L13.9106 93.5992L12.1933 96.3161L8.13563 93.7514C8.14827 93.7118 8.1682 93.6607 8.20384 93.6043L9.74939 91.1591ZM12.4817 89.8443C12.7187 89.4693 13.2594 89.3853 13.6873 89.6558C14.5411 90.1954 14.5962 91.2663 14.4935 92.0665L12.8287 91.0142C12.4008 90.7437 12.2447 90.2192 12.4817 89.8443ZM18.9269 92.9675C19.3548 93.238 19.5109 93.7625 19.2739 94.1375C19.0369 94.5124 18.4961 94.5965 18.0682 94.326L16.3994 93.2711C17.0753 92.8334 18.0649 92.4227 18.9269 92.9675ZM19.2585 97.1696L17.713 99.6148C17.6773 99.6712 17.6397 99.7111 17.6095 99.7395L13.5518 97.1748L15.269 94.4579L17.2096 95.6844L19.3267 97.0226C19.3141 97.0622 19.2942 97.1133 19.2585 97.1696ZM20.3389 95.7612L20.0719 95.5925C20.2869 95.4299 20.4808 95.2359 20.6324 94.9961C21.3425 93.8727 20.9626 92.3531 19.7855 91.6091C18.48 90.7839 17.1461 91.0806 16.1367 91.5813C16.1558 90.4546 15.8515 89.1225 14.546 88.2973C13.3689 87.5533 11.8333 87.8622 11.1232 88.9856C10.9717 89.2254 10.8803 89.4842 10.825 89.7477L10.5581 89.579C9.87272 89.1458 8.9203 89.463 8.39095 90.3005L6.84539 92.7457C6.37013 93.4976 6.42446 94.3742 6.93518 94.8595L5.05947 97.8271C4.66493 98.4513 4.896 99.3084 5.57455 99.7373L13.3007 104.621C13.9799 105.05 14.8533 104.891 15.2478 104.267L17.1235 101.299C17.7811 101.552 18.5962 101.225 19.0714 100.473L20.617 98.0283C21.1463 97.1908 21.0242 96.1944 20.3389 95.7612Z" fill="#3366FF" fill-opacity="0.2"/>
<mask id="mask5_496_3595" style="mask-type:alpha" maskUnits="userSpaceOnUse" x="4" y="87" width="17" height="18">
<path fill-rule="evenodd" clip-rule="evenodd" d="M10.9758 101.25L14.0323 103.182L15.7496 100.465L12.6931 98.5332L10.9758 101.25ZM6.56088 98.4595L9.61739 100.391L11.3347 97.6746L8.27817 95.7426L6.56088 98.4595ZM9.74939 91.1591C9.78503 91.1028 9.82262 91.0628 9.85292 91.0345L11.9701 92.3727L13.9106 93.5992L12.1933 96.3161L8.13563 93.7514C8.14827 93.7118 8.1682 93.6607 8.20384 93.6043L9.74939 91.1591ZM12.4817 89.8443C12.7187 89.4693 13.2594 89.3853 13.6873 89.6558C14.5411 90.1954 14.5962 91.2663 14.4935 92.0665L12.8287 91.0142C12.4008 90.7437 12.2447 90.2192 12.4817 89.8443ZM18.9269 92.9675C19.3548 93.238 19.5109 93.7625 19.2739 94.1375C19.0369 94.5124 18.4961 94.5965 18.0682 94.326L16.3994 93.2711C17.0753 92.8334 18.0649 92.4227 18.9269 92.9675ZM19.2585 97.1696L17.713 99.6148C17.6773 99.6712 17.6397 99.7111 17.6095 99.7395L13.5518 97.1748L15.269 94.4579L17.2096 95.6844L19.3267 97.0226C19.3141 97.0622 19.2942 97.1133 19.2585 97.1696ZM20.3389 95.7612L20.0719 95.5925C20.2869 95.4299 20.4808 95.2359 20.6324 94.9961C21.3425 93.8727 20.9626 92.3531 19.7855 91.6091C18.48 90.7839 17.1461 91.0806 16.1367 91.5813C16.1558 90.4546 15.8515 89.1225 14.546 88.2973C13.3689 87.5533 11.8333 87.8622 11.1232 88.9856C10.9717 89.2254 10.8803 89.4842 10.825 89.7477L10.5581 89.579C9.87272 89.1458 8.9203 89.463 8.39095 90.3005L6.84539 92.7457C6.37013 93.4976 6.42446 94.3742 6.93518 94.8595L5.05947 97.8271C4.66493 98.4513 4.896 99.3084 5.57455 99.7373L13.3007 104.621C13.9799 105.05 14.8533 104.891 15.2478 104.267L17.1235 101.299C17.7811 101.552 18.5962 101.225 19.0714 100.473L20.617 98.0283C21.1463 97.1908 21.0242 96.1944 20.3389 95.7612Z" fill="white"/>
</mask>
<g mask="url(#mask5_496_3595)">
</g>
<path fill-rule="evenodd" clip-rule="evenodd" d="M90.5266 72.323L93.5831 74.2549L95.3004 71.538L92.2439 69.6061L90.5266 72.323ZM86.1117 69.5324L89.1682 71.4644L90.8855 68.7475L87.8289 66.8155L86.1117 69.5324ZM89.3002 62.232C89.3358 62.1757 89.3734 62.1357 89.4037 62.1073L91.5208 63.4455L93.4614 64.6721L91.7441 67.389L87.6864 64.8242C87.6991 64.7847 87.719 64.7336 87.7546 64.6772L89.3002 62.232ZM92.0324 60.9172C92.2694 60.5422 92.8102 60.4582 93.2381 60.7286C94.0919 61.2683 94.147 62.3392 94.0443 63.1394L92.3795 62.0871C91.9516 61.8166 91.7955 61.2921 92.0324 60.9172ZM98.4777 64.0404C98.9056 64.3109 99.0617 64.8354 98.8247 65.2104C98.5877 65.5853 98.0469 65.6693 97.619 65.3989L95.9502 64.344C96.6261 63.9063 97.6157 63.4956 98.4777 64.0404ZM98.8093 68.2425L97.2638 70.6877C97.2281 70.7441 97.1905 70.784 97.1602 70.8124L93.1025 68.2477L94.8198 65.5308L96.7604 66.7573L98.8775 68.0955C98.8649 68.1351 98.8449 68.1861 98.8093 68.2425ZM99.8897 66.8341L99.6227 66.6654C99.8377 66.5028 100.032 66.3088 100.183 66.069C100.893 64.9456 100.513 63.426 99.3363 62.682C98.0308 61.8568 96.6969 62.1535 95.6874 62.6542C95.7066 61.5275 95.4022 60.1954 94.0968 59.3702C92.9197 58.6262 91.3841 58.9351 90.674 60.0585C90.5225 60.2983 90.4311 60.5571 90.3758 60.8206L90.1088 60.6519C89.4235 60.2187 88.4711 60.5359 87.9417 61.3734L86.3962 63.8186C85.9209 64.5705 85.9752 65.4471 86.486 65.9324L84.6103 68.8999C84.2157 69.5242 84.4468 70.3813 85.1253 70.8101L92.8515 75.6937C93.5307 76.123 94.4041 75.964 94.7986 75.3398L96.6743 72.3722C97.3319 72.6253 98.1469 72.2983 98.6222 71.5464L100.168 69.1012C100.697 68.2637 100.575 67.2673 99.8897 66.8341Z" fill="#3366FF" fill-opacity="0.2"/>
<mask id="mask6_496_3595" style="mask-type:alpha" maskUnits="userSpaceOnUse" x="84" y="58" width="17" height="18">
<path fill-rule="evenodd" clip-rule="evenodd" d="M90.5266 72.323L93.5831 74.2549L95.3004 71.538L92.2439 69.6061L90.5266 72.323ZM86.1117 69.5324L89.1682 71.4644L90.8855 68.7475L87.8289 66.8155L86.1117 69.5324ZM89.3002 62.232C89.3358 62.1757 89.3734 62.1357 89.4037 62.1073L91.5208 63.4455L93.4614 64.6721L91.7441 67.389L87.6864 64.8242C87.6991 64.7847 87.719 64.7336 87.7546 64.6772L89.3002 62.232ZM92.0324 60.9172C92.2694 60.5422 92.8102 60.4582 93.2381 60.7286C94.0919 61.2683 94.147 62.3392 94.0443 63.1394L92.3795 62.0871C91.9516 61.8166 91.7955 61.2921 92.0324 60.9172ZM98.4777 64.0404C98.9056 64.3109 99.0617 64.8354 98.8247 65.2104C98.5877 65.5853 98.0469 65.6693 97.619 65.3989L95.9502 64.344C96.6261 63.9063 97.6157 63.4956 98.4777 64.0404ZM98.8093 68.2425L97.2638 70.6877C97.2281 70.7441 97.1905 70.784 97.1602 70.8124L93.1025 68.2477L94.8198 65.5308L96.7604 66.7573L98.8775 68.0955C98.8649 68.1351 98.8449 68.1861 98.8093 68.2425ZM99.8897 66.8341L99.6227 66.6654C99.8377 66.5028 100.032 66.3088 100.183 66.069C100.893 64.9456 100.513 63.426 99.3363 62.682C98.0308 61.8568 96.6969 62.1535 95.6874 62.6542C95.7066 61.5275 95.4022 60.1954 94.0968 59.3702C92.9197 58.6262 91.3841 58.9351 90.674 60.0585C90.5225 60.2983 90.4311 60.5571 90.3758 60.8206L90.1088 60.6519C89.4235 60.2187 88.4711 60.5359 87.9417 61.3734L86.3962 63.8186C85.9209 64.5705 85.9752 65.4471 86.486 65.9324L84.6103 68.8999C84.2157 69.5242 84.4468 70.3813 85.1253 70.8101L92.8515 75.6937C93.5307 76.123 94.4041 75.964 94.7986 75.3398L96.6743 72.3722C97.3319 72.6253 98.1469 72.2983 98.6222 71.5464L100.168 69.1012C100.697 68.2637 100.575 67.2673 99.8897 66.8341Z" fill="white"/>
</mask>
<g mask="url(#mask6_496_3595)">
</g>
<path fill-rule="evenodd" clip-rule="evenodd" d="M148.38 18.4864L151.437 20.4184L153.154 17.7015L150.097 15.7695L148.38 18.4864ZM143.965 15.6958L147.022 17.6278L148.739 14.9109L145.682 12.9789L143.965 15.6958ZM147.154 8.39547C147.189 8.33909 147.227 8.29917 147.257 8.27079L149.374 9.60898L151.315 10.8355L149.598 13.5524L145.54 10.9877C145.553 10.9481 145.573 10.8971 145.608 10.8407L147.154 8.39547ZM149.886 7.08059C150.123 6.70566 150.664 6.62161 151.092 6.89208C151.945 7.43174 152 8.50267 151.898 9.3028L150.233 8.25053C149.805 7.98006 149.649 7.45552 149.886 7.08059ZM156.331 10.2039C156.759 10.4743 156.915 10.9989 156.678 11.3738C156.441 11.7487 155.9 11.8328 155.473 11.5623L153.804 10.5075C154.48 10.0697 155.469 9.65906 156.331 10.2039ZM156.663 14.406L155.117 16.8512C155.082 16.9075 155.044 16.9475 155.014 16.9759L150.956 14.4111L152.673 11.6942L154.614 12.9208L156.731 14.259C156.718 14.2985 156.698 14.3496 156.663 14.406ZM157.743 12.9975L157.476 12.8288C157.691 12.6662 157.885 12.4722 158.037 12.2324C158.747 11.109 158.367 9.58943 157.19 8.84542C155.884 8.02026 154.55 8.31689 153.541 8.81763C153.56 7.69094 153.256 6.35879 151.95 5.53364C150.773 4.78962 149.238 5.09852 148.528 6.22195C148.376 6.46172 148.285 6.72053 148.229 6.98403L147.962 6.81531C147.277 6.38213 146.325 6.69934 145.795 7.53683L144.25 9.98203C143.774 10.7339 143.829 11.6105 144.339 12.0959L142.464 15.0634C142.069 15.6876 142.3 16.5447 142.979 16.9736L150.705 21.8571C151.384 22.2864 152.258 22.1274 152.652 21.5032L154.528 18.5357C155.185 18.7887 156 18.4617 156.476 17.7098L158.021 15.2646C158.551 14.4271 158.429 13.4307 157.743 12.9975Z" fill="#3366FF" fill-opacity="0.2"/>
<mask id="mask7_496_3595" style="mask-type:alpha" maskUnits="userSpaceOnUse" x="142" y="5" width="17" height="18">
<path fill-rule="evenodd" clip-rule="evenodd" d="M148.38 18.4864L151.437 20.4184L153.154 17.7015L150.097 15.7695L148.38 18.4864ZM143.965 15.6958L147.022 17.6278L148.739 14.9109L145.682 12.9789L143.965 15.6958ZM147.154 8.39547C147.189 8.33909 147.227 8.29917 147.257 8.27079L149.374 9.60898L151.315 10.8355L149.598 13.5524L145.54 10.9877C145.553 10.9481 145.573 10.8971 145.608 10.8407L147.154 8.39547ZM149.886 7.08059C150.123 6.70566 150.664 6.62161 151.092 6.89208C151.945 7.43174 152 8.50267 151.898 9.3028L150.233 8.25053C149.805 7.98006 149.649 7.45552 149.886 7.08059ZM156.331 10.2039C156.759 10.4743 156.915 10.9989 156.678 11.3738C156.441 11.7487 155.9 11.8328 155.473 11.5623L153.804 10.5075C154.48 10.0697 155.469 9.65906 156.331 10.2039ZM156.663 14.406L155.117 16.8512C155.082 16.9075 155.044 16.9475 155.014 16.9759L150.956 14.4111L152.673 11.6942L154.614 12.9208L156.731 14.259C156.718 14.2985 156.698 14.3496 156.663 14.406ZM157.743 12.9975L157.476 12.8288C157.691 12.6662 157.885 12.4722 158.037 12.2324C158.747 11.109 158.367 9.58943 157.19 8.84542C155.884 8.02026 154.55 8.31689 153.541 8.81763C153.56 7.69094 153.256 6.35879 151.95 5.53364C150.773 4.78962 149.238 5.09852 148.528 6.22195C148.376 6.46172 148.285 6.72053 148.229 6.98403L147.962 6.81531C147.277 6.38213 146.325 6.69934 145.795 7.53683L144.25 9.98203C143.774 10.7339 143.829 11.6105 144.339 12.0959L142.464 15.0634C142.069 15.6876 142.3 16.5447 142.979 16.9736L150.705 21.8571C151.384 22.2864 152.258 22.1274 152.652 21.5032L154.528 18.5357C155.185 18.7887 156 18.4617 156.476 17.7098L158.021 15.2646C158.551 14.4271 158.429 13.4307 157.743 12.9975Z" fill="white"/>
</mask>
<g mask="url(#mask7_496_3595)">
</g>
<path fill-rule="evenodd" clip-rule="evenodd" d="M322.434 38.0282L328.011 41.5532L331.144 36.596L325.567 33.0709L322.434 38.0282ZM314.378 32.9365L319.955 36.4615L323.089 31.5043L317.512 27.9792L314.378 32.9365ZM320.196 19.6162C320.261 19.5133 320.33 19.4405 320.385 19.3887L324.248 21.8304L327.789 24.0684L324.655 29.0256L317.252 24.346C317.275 24.2738 317.311 24.1806 317.376 24.0777L320.196 19.6162ZM325.181 17.2171C325.614 16.533 326.601 16.3796 327.381 16.8731C328.939 17.8578 329.04 19.8118 328.852 21.2717L325.815 19.3517C325.034 18.8582 324.749 17.9012 325.181 17.2171ZM336.941 22.9158C337.722 23.4093 338.007 24.3664 337.575 25.0505C337.142 25.7346 336.156 25.8879 335.375 25.3944L332.33 23.4698C333.563 22.671 335.369 21.9217 336.941 22.9158ZM337.547 30.583L334.727 35.0445C334.662 35.1474 334.593 35.2202 334.538 35.272L327.134 30.5923L330.267 25.6351L333.808 27.8731L337.671 30.3147C337.648 30.3869 337.612 30.4801 337.547 30.583ZM339.518 28.0131L339.031 27.7053C339.423 27.4086 339.777 27.0546 340.053 26.6172C341.349 24.5673 340.656 21.7947 338.508 20.4372C336.126 18.9316 333.692 19.4728 331.85 20.3865C331.885 18.3307 331.33 15.9001 328.948 14.3945C326.8 13.0369 323.998 13.6006 322.703 15.6504C322.426 16.0879 322.26 16.5601 322.159 17.0409L321.672 16.733C320.421 15.9426 318.683 16.5214 317.718 18.0495L314.897 22.511C314.03 23.883 314.129 25.4823 315.061 26.3679L311.639 31.7825C310.919 32.9214 311.341 34.4853 312.579 35.2679L326.676 44.1784C327.915 44.9617 329.509 44.6715 330.229 43.5326L333.651 38.118C334.851 38.5798 336.338 37.9831 337.205 36.6112L340.025 32.1496C340.991 30.6216 340.768 28.8035 339.518 28.0131Z" fill="#3366FF" fill-opacity="0.2"/>
<mask id="mask8_496_3595" style="mask-type:alpha" maskUnits="userSpaceOnUse" x="311" y="13" width="30" height="32">
<path fill-rule="evenodd" clip-rule="evenodd" d="M322.434 38.0282L328.011 41.5532L331.144 36.596L325.567 33.0709L322.434 38.0282ZM314.378 32.9365L319.955 36.4615L323.089 31.5043L317.512 27.9792L314.378 32.9365ZM320.196 19.6162C320.261 19.5133 320.33 19.4405 320.385 19.3887L324.248 21.8304L327.789 24.0684L324.655 29.0256L317.252 24.346C317.275 24.2738 317.311 24.1806 317.376 24.0777L320.196 19.6162ZM325.181 17.2171C325.614 16.533 326.601 16.3796 327.381 16.8731C328.939 17.8578 329.04 19.8118 328.852 21.2717L325.815 19.3517C325.034 18.8582 324.749 17.9012 325.181 17.2171ZM336.941 22.9158C337.722 23.4093 338.007 24.3664 337.575 25.0505C337.142 25.7346 336.156 25.8879 335.375 25.3944L332.33 23.4698C333.563 22.671 335.369 21.9217 336.941 22.9158ZM337.547 30.583L334.727 35.0445C334.662 35.1474 334.593 35.2202 334.538 35.272L327.134 30.5923L330.267 25.6351L333.808 27.8731L337.671 30.3147C337.648 30.3869 337.612 30.4801 337.547 30.583ZM339.518 28.0131L339.031 27.7053C339.423 27.4086 339.777 27.0546 340.053 26.6172C341.349 24.5673 340.656 21.7947 338.508 20.4372C336.126 18.9316 333.692 19.4728 331.85 20.3865C331.885 18.3307 331.33 15.9001 328.948 14.3945C326.8 13.0369 323.998 13.6006 322.703 15.6504C322.426 16.0879 322.26 16.5601 322.159 17.0409L321.672 16.733C320.421 15.9426 318.683 16.5214 317.718 18.0495L314.897 22.511C314.03 23.883 314.129 25.4823 315.061 26.3679L311.639 31.7825C310.919 32.9214 311.341 34.4853 312.579 35.2679L326.676 44.1784C327.915 44.9617 329.509 44.6715 330.229 43.5326L333.651 38.118C334.851 38.5798 336.338 37.9831 337.205 36.6112L340.025 32.1496C340.991 30.6216 340.768 28.8035 339.518 28.0131Z" fill="white"/>
</mask>
<g mask="url(#mask8_496_3595)">
</g>
<path fill-rule="evenodd" clip-rule="evenodd" d="M99.3983 38.0071L105.845 36.606L104.6 30.8752L98.1529 32.2763L99.3983 38.0071ZM90.0858 40.0308L96.5329 38.6298L95.2875 32.899L88.8404 34.3001L90.0858 40.0308ZM84.8856 26.4575C84.8597 26.3386 84.8575 26.2386 84.8605 26.1629L89.3262 25.1924L93.4194 24.3029L94.6648 30.0336L86.1059 31.8936C86.0717 31.826 86.0323 31.7341 86.0064 31.6152L84.8856 26.4575ZM86.7546 21.2502C86.5828 20.4594 87.1782 19.6578 88.0808 19.4617C89.8817 19.0703 91.3243 20.3922 92.215 21.5639L88.7035 22.327C87.8009 22.5232 86.9265 22.0411 86.7546 21.2502ZM99.1326 17.0599C100.035 16.8638 100.91 17.3459 101.081 18.1367C101.253 18.9276 100.658 19.7292 99.7553 19.9253L96.2352 20.6903C96.5536 19.2558 97.3145 17.455 99.1326 17.0599ZM104.943 22.0987L106.064 27.2563C106.09 27.3752 106.092 27.4753 106.089 27.551L97.5302 29.4109L96.2848 23.6802L100.378 22.7907L104.844 21.8202C104.878 21.8878 104.917 21.9797 104.943 22.0987ZM104.545 18.8845L103.982 19.0068C104.053 18.5202 104.057 18.0198 103.947 17.5141C103.432 15.1444 100.993 13.655 98.5099 14.1946C95.7563 14.793 94.4017 16.8862 93.7303 18.8296C92.3129 17.3402 90.2118 15.9979 87.4581 16.5963C84.9753 17.1359 83.3743 19.5033 83.8893 21.8729C83.9992 22.3787 84.2117 22.8321 84.4771 23.2455L83.9141 23.3679C82.4685 23.682 81.6363 25.3137 82.0202 27.0802L83.141 32.2379C83.4857 33.8239 84.6785 34.894 85.9638 34.8712L87.3241 41.1306C87.6102 42.4472 89.0079 43.2658 90.4392 42.9547L106.736 39.4131C108.169 39.1018 109.101 37.777 108.814 36.4604L107.454 30.201C108.633 29.6882 109.274 28.2196 108.929 26.6336L107.809 21.476C107.425 19.7095 105.99 18.5703 104.545 18.8845Z" fill="#3366FF" fill-opacity="0.2"/>
<mask id="mask9_496_3595" style="mask-type:alpha" maskUnits="userSpaceOnUse" x="81" y="14" width="29" height="30">
<path fill-rule="evenodd" clip-rule="evenodd" d="M99.3983 38.0071L105.845 36.606L104.6 30.8752L98.1529 32.2763L99.3983 38.0071ZM90.0858 40.0308L96.5329 38.6298L95.2875 32.899L88.8404 34.3001L90.0858 40.0308ZM84.8856 26.4575C84.8597 26.3386 84.8575 26.2386 84.8605 26.1629L89.3262 25.1924L93.4194 24.3029L94.6648 30.0336L86.1059 31.8936C86.0717 31.826 86.0323 31.7341 86.0064 31.6152L84.8856 26.4575ZM86.7546 21.2502C86.5828 20.4594 87.1782 19.6578 88.0808 19.4617C89.8817 19.0703 91.3243 20.3922 92.215 21.5639L88.7035 22.327C87.8009 22.5232 86.9265 22.0411 86.7546 21.2502ZM99.1326 17.0599C100.035 16.8638 100.91 17.3459 101.081 18.1367C101.253 18.9276 100.658 19.7292 99.7553 19.9253L96.2352 20.6903C96.5536 19.2558 97.3145 17.455 99.1326 17.0599ZM104.943 22.0987L106.064 27.2563C106.09 27.3752 106.092 27.4753 106.089 27.551L97.5302 29.4109L96.2848 23.6802L100.378 22.7907L104.844 21.8202C104.878 21.8878 104.917 21.9797 104.943 22.0987ZM104.545 18.8845L103.982 19.0068C104.053 18.5202 104.057 18.0198 103.947 17.5141C103.432 15.1444 100.993 13.655 98.5099 14.1946C95.7563 14.793 94.4017 16.8862 93.7303 18.8296C92.3129 17.3402 90.2118 15.9979 87.4581 16.5963C84.9753 17.1359 83.3743 19.5033 83.8893 21.8729C83.9992 22.3787 84.2117 22.8321 84.4771 23.2455L83.9141 23.3679C82.4685 23.682 81.6363 25.3137 82.0202 27.0802L83.141 32.2379C83.4857 33.8239 84.6785 34.894 85.9638 34.8712L87.3241 41.1306C87.6102 42.4472 89.0079 43.2658 90.4392 42.9547L106.736 39.4131C108.169 39.1018 109.101 37.777 108.814 36.4604L107.454 30.201C108.633 29.6882 109.274 28.2196 108.929 26.6336L107.809 21.476C107.425 19.7095 105.99 18.5703 104.545 18.8845Z" fill="white"/>
</mask>
<g mask="url(#mask9_496_3595)">
</g>
<path fill-rule="evenodd" clip-rule="evenodd" d="M91.2342 126.266L97.6813 124.865L96.4359 119.134L89.9888 120.535L91.2342 126.266ZM81.9217 128.29L88.3688 126.889L87.1234 121.158L80.6764 122.559L81.9217 128.29ZM76.7215 114.716C76.6957 114.598 76.6934 114.497 76.6965 114.422L81.1622 113.451L85.2554 112.562L86.5007 118.293L77.9419 120.153C77.9077 120.085 77.8682 119.993 77.8424 119.874L76.7215 114.716ZM78.5906 109.509C78.4187 108.718 79.0142 107.917 79.9168 107.721C81.7177 107.329 83.1602 108.651 84.051 109.823L80.5395 110.586C79.6369 110.782 78.7624 110.3 78.5906 109.509ZM90.9685 105.319C91.8711 105.123 92.7456 105.605 92.9174 106.396C93.0893 107.187 92.4938 107.988 91.5912 108.184L88.0711 108.949C88.3895 107.515 89.1504 105.714 90.9685 105.319ZM96.7791 110.358L97.9 115.515C97.9258 115.634 97.928 115.734 97.925 115.81L89.3661 117.67L88.1207 111.939L92.2139 111.05L96.6796 110.079C96.7138 110.147 96.7533 110.239 96.7791 110.358ZM96.3807 107.143L95.8176 107.266C95.8889 106.779 95.8927 106.279 95.7828 105.773C95.2678 103.403 92.8287 101.914 90.3458 102.453C87.5922 103.052 86.2377 105.145 85.5663 107.088C84.1488 105.599 82.0477 104.257 79.2941 104.855C76.8112 105.395 75.2102 107.762 75.7252 110.132C75.8351 110.638 76.0477 111.091 76.3131 111.504L75.75 111.627C74.3044 111.941 73.4722 113.573 73.8561 115.339L74.977 120.497C75.3216 122.083 76.5144 123.153 77.7998 123.13L79.16 129.39C79.4462 130.706 80.8438 131.525 82.2751 131.214L98.5719 127.672C100.005 127.361 100.936 126.036 100.65 124.719L99.2901 118.46C100.469 117.947 101.11 116.479 100.765 114.893L99.6445 109.735C99.2606 107.968 97.8263 106.829 96.3807 107.143Z" fill="#3366FF" fill-opacity="0.2"/>
<mask id="mask10_496_3595" style="mask-type:alpha" maskUnits="userSpaceOnUse" x="73" y="102" width="28" height="30">
<path fill-rule="evenodd" clip-rule="evenodd" d="M91.2342 126.266L97.6813 124.865L96.4359 119.134L89.9888 120.535L91.2342 126.266ZM81.9217 128.29L88.3688 126.889L87.1234 121.158L80.6764 122.559L81.9217 128.29ZM76.7215 114.716C76.6957 114.598 76.6934 114.497 76.6965 114.422L81.1622 113.451L85.2554 112.562L86.5007 118.293L77.9419 120.153C77.9077 120.085 77.8682 119.993 77.8424 119.874L76.7215 114.716ZM78.5906 109.509C78.4187 108.718 79.0142 107.917 79.9168 107.721C81.7177 107.329 83.1602 108.651 84.051 109.823L80.5395 110.586C79.6369 110.782 78.7624 110.3 78.5906 109.509ZM90.9685 105.319C91.8711 105.123 92.7456 105.605 92.9174 106.396C93.0893 107.187 92.4938 107.988 91.5912 108.184L88.0711 108.949C88.3895 107.515 89.1504 105.714 90.9685 105.319ZM96.7791 110.358L97.9 115.515C97.9258 115.634 97.928 115.734 97.925 115.81L89.3661 117.67L88.1207 111.939L92.2139 111.05L96.6796 110.079C96.7138 110.147 96.7533 110.239 96.7791 110.358ZM96.3807 107.143L95.8176 107.266C95.8889 106.779 95.8927 106.279 95.7828 105.773C95.2678 103.403 92.8287 101.914 90.3458 102.453C87.5922 103.052 86.2377 105.145 85.5663 107.088C84.1488 105.599 82.0477 104.257 79.2941 104.855C76.8112 105.395 75.2102 107.762 75.7252 110.132C75.8351 110.638 76.0477 111.091 76.3131 111.504L75.75 111.627C74.3044 111.941 73.4722 113.573 73.8561 115.339L74.977 120.497C75.3216 122.083 76.5144 123.153 77.7998 123.13L79.16 129.39C79.4462 130.706 80.8438 131.525 82.2751 131.214L98.5719 127.672C100.005 127.361 100.936 126.036 100.65 124.719L99.2901 118.46C100.469 117.947 101.11 116.479 100.765 114.893L99.6445 109.735C99.2606 107.968 97.8263 106.829 96.3807 107.143Z" fill="white"/>
</mask>
<g mask="url(#mask10_496_3595)">
</g>
<path fill-rule="evenodd" clip-rule="evenodd" d="M38.201 193.763L44.6481 192.362L43.4027 186.631L36.9556 188.032L38.201 193.763ZM28.8885 195.786L35.3356 194.385L34.0902 188.655L27.6431 190.056L28.8885 195.786ZM23.6883 182.213C23.6625 182.094 23.6602 181.994 23.6633 181.918L28.129 180.948L32.2222 180.058L33.4675 185.789L24.9087 187.649C24.8745 187.582 24.835 187.49 24.8092 187.371L23.6883 182.213ZM25.5574 177.006C25.3855 176.215 25.981 175.413 26.8836 175.217C28.6845 174.826 30.127 176.148 31.0178 177.319L27.5063 178.083C26.6037 178.279 25.7292 177.797 25.5574 177.006ZM37.9353 172.815C38.8379 172.619 39.7124 173.101 39.8842 173.892C40.0561 174.683 39.4606 175.485 38.558 175.681L35.0379 176.446C35.3563 175.011 36.1172 173.211 37.9353 172.815ZM43.7459 177.854L44.8668 183.012C44.8926 183.131 44.8948 183.231 44.8918 183.306L36.3329 185.166L35.0875 179.436L39.1807 178.546L43.6464 177.576C43.6806 177.643 43.7201 177.735 43.7459 177.854ZM43.3475 174.64L42.7844 174.762C42.8557 174.276 42.8595 173.775 42.7496 173.27C42.2346 170.9 39.7955 169.411 37.3126 169.95C34.559 170.548 33.2045 172.642 32.533 174.585C31.1156 173.096 29.0145 171.753 26.2609 172.352C23.778 172.891 22.177 175.259 22.692 177.628C22.8019 178.134 23.0145 178.588 23.2798 179.001L22.7168 179.123C21.2712 179.438 20.439 181.069 20.8229 182.836L21.9438 187.993C22.2884 189.579 23.4812 190.649 24.7666 190.627L26.1268 196.886C26.413 198.203 27.8106 199.021 29.2419 198.71L45.5387 195.169C46.9714 194.857 47.9033 193.533 47.6171 192.216L46.2569 185.956C47.4357 185.444 48.0768 183.975 47.7321 182.389L46.6113 177.231C46.2274 175.465 44.7931 174.326 43.3475 174.64Z" fill="#3366FF" fill-opacity="0.2"/>
<mask id="mask11_496_3595" style="mask-type:alpha" maskUnits="userSpaceOnUse" x="20" y="169" width="28" height="30">
<path fill-rule="evenodd" clip-rule="evenodd" d="M38.201 193.763L44.6481 192.362L43.4027 186.631L36.9556 188.032L38.201 193.763ZM28.8885 195.786L35.3356 194.385L34.0902 188.655L27.6431 190.056L28.8885 195.786ZM23.6883 182.213C23.6625 182.094 23.6602 181.994 23.6633 181.918L28.129 180.948L32.2222 180.058L33.4675 185.789L24.9087 187.649C24.8745 187.582 24.835 187.49 24.8092 187.371L23.6883 182.213ZM25.5574 177.006C25.3855 176.215 25.981 175.413 26.8836 175.217C28.6845 174.826 30.127 176.148 31.0178 177.319L27.5063 178.083C26.6037 178.279 25.7292 177.797 25.5574 177.006ZM37.9353 172.815C38.8379 172.619 39.7124 173.101 39.8842 173.892C40.0561 174.683 39.4606 175.485 38.558 175.681L35.0379 176.446C35.3563 175.011 36.1172 173.211 37.9353 172.815ZM43.7459 177.854L44.8668 183.012C44.8926 183.131 44.8948 183.231 44.8918 183.306L36.3329 185.166L35.0875 179.436L39.1807 178.546L43.6464 177.576C43.6806 177.643 43.7201 177.735 43.7459 177.854ZM43.3475 174.64L42.7844 174.762C42.8557 174.276 42.8595 173.775 42.7496 173.27C42.2346 170.9 39.7955 169.411 37.3126 169.95C34.559 170.548 33.2045 172.642 32.533 174.585C31.1156 173.096 29.0145 171.753 26.2609 172.352C23.778 172.891 22.177 175.259 22.692 177.628C22.8019 178.134 23.0145 178.588 23.2798 179.001L22.7168 179.123C21.2712 179.438 20.439 181.069 20.8229 182.836L21.9438 187.993C22.2884 189.579 23.4812 190.649 24.7666 190.627L26.1268 196.886C26.413 198.203 27.8106 199.021 29.2419 198.71L45.5387 195.169C46.9714 194.857 47.9033 193.533 47.6171 192.216L46.2569 185.956C47.4357 185.444 48.0768 183.975 47.7321 182.389L46.6113 177.231C46.2274 175.465 44.7931 174.326 43.3475 174.64Z" fill="white"/>
</mask>
<g mask="url(#mask11_496_3595)">
</g>
<path fill-rule="evenodd" clip-rule="evenodd" d="M43.826 86.893L50.2731 85.4919L49.0277 79.7611L42.5806 81.1622L43.826 86.893ZM34.5135 88.9167L40.9606 87.5156L39.7152 81.7849L33.2681 83.186L34.5135 88.9167ZM29.3133 75.3434C29.2875 75.2245 29.2852 75.1245 29.2883 75.0488L33.754 74.0783L37.8472 73.1888L39.0925 78.9195L30.5337 80.7795C30.4995 80.7119 30.46 80.62 30.4342 80.5011L29.3133 75.3434ZM31.1824 70.1361C31.0105 69.3453 31.606 68.5437 32.5086 68.3476C34.3095 67.9562 35.752 69.2781 36.6428 70.4498L33.1313 71.2129C32.2287 71.4091 31.3542 70.927 31.1824 70.1361ZM43.5603 65.9458C44.4629 65.7497 45.3374 66.2318 45.5092 67.0226C45.6811 67.8135 45.0856 68.6151 44.183 68.8112L40.6629 69.5762C40.9813 68.1417 41.7422 66.3409 43.5603 65.9458ZM49.3709 70.9845L50.4918 76.1422C50.5176 76.2611 50.5198 76.3612 50.5168 76.4368L41.9579 78.2968L40.7125 72.5661L44.8057 71.6766L49.2714 70.7061C49.3056 70.7737 49.3451 70.8656 49.3709 70.9845ZM48.9725 67.7704L48.4094 67.8927C48.4807 67.4061 48.4845 66.9057 48.3746 66.3999C47.8596 64.0303 45.4205 62.5409 42.9376 63.0805C40.184 63.6789 38.8295 65.7721 38.158 67.7155C36.7406 66.2261 34.6395 64.8838 31.8859 65.4822C29.403 66.0218 27.802 68.3892 28.317 70.7588C28.4269 71.2646 28.6395 71.718 28.9048 72.1314L28.3418 72.2538C26.8962 72.5679 26.064 74.1996 26.4479 75.9661L27.5688 81.1238C27.9134 82.7098 29.1062 83.7799 30.3916 83.7571L31.7518 90.0165C32.038 91.3331 33.4356 92.1516 34.8669 91.8406L51.1637 88.299C52.5964 87.9877 53.5283 86.6629 53.2421 85.3463L51.8819 79.0869C53.0607 78.5741 53.7018 77.1055 53.3571 75.5195L52.2363 70.3618C51.8524 68.5953 50.4181 67.4562 48.9725 67.7704Z" fill="#3366FF" fill-opacity="0.2"/>
<mask id="mask12_496_3595" style="mask-type:alpha" maskUnits="userSpaceOnUse" x="26" y="62" width="28" height="30">
<path fill-rule="evenodd" clip-rule="evenodd" d="M43.826 86.893L50.2731 85.4919L49.0277 79.7611L42.5806 81.1622L43.826 86.893ZM34.5135 88.9167L40.9606 87.5156L39.7152 81.7849L33.2681 83.186L34.5135 88.9167ZM29.3133 75.3434C29.2875 75.2245 29.2852 75.1245 29.2883 75.0488L33.754 74.0783L37.8472 73.1888L39.0925 78.9195L30.5337 80.7795C30.4995 80.7119 30.46 80.62 30.4342 80.5011L29.3133 75.3434ZM31.1824 70.1361C31.0105 69.3453 31.606 68.5437 32.5086 68.3476C34.3095 67.9562 35.752 69.2781 36.6428 70.4498L33.1313 71.2129C32.2287 71.4091 31.3542 70.927 31.1824 70.1361ZM43.5603 65.9458C44.4629 65.7497 45.3374 66.2318 45.5092 67.0226C45.6811 67.8135 45.0856 68.6151 44.183 68.8112L40.6629 69.5762C40.9813 68.1417 41.7422 66.3409 43.5603 65.9458ZM49.3709 70.9845L50.4918 76.1422C50.5176 76.2611 50.5198 76.3612 50.5168 76.4368L41.9579 78.2968L40.7125 72.5661L44.8057 71.6766L49.2714 70.7061C49.3056 70.7737 49.3451 70.8656 49.3709 70.9845ZM48.9725 67.7704L48.4094 67.8927C48.4807 67.4061 48.4845 66.9057 48.3746 66.3999C47.8596 64.0303 45.4205 62.5409 42.9376 63.0805C40.184 63.6789 38.8295 65.7721 38.158 67.7155C36.7406 66.2261 34.6395 64.8838 31.8859 65.4822C29.403 66.0218 27.802 68.3892 28.317 70.7588C28.4269 71.2646 28.6395 71.718 28.9048 72.1314L28.3418 72.2538C26.8962 72.5679 26.064 74.1996 26.4479 75.9661L27.5688 81.1238C27.9134 82.7098 29.1062 83.7799 30.3916 83.7571L31.7518 90.0165C32.038 91.3331 33.4356 92.1516 34.8669 91.8406L51.1637 88.299C52.5964 87.9877 53.5283 86.6629 53.2421 85.3463L51.8819 79.0869C53.0607 78.5741 53.7018 77.1055 53.3571 75.5195L52.2363 70.3618C51.8524 68.5953 50.4181 67.4562 48.9725 67.7704Z" fill="white"/>
</mask>
<g mask="url(#mask12_496_3595)">
</g>
<path fill-rule="evenodd" clip-rule="evenodd" d="M109.715 235.546L116.162 234.145L114.916 228.414L108.469 229.815L109.715 235.546ZM100.402 237.57L106.849 236.169L105.604 230.438L99.1568 231.839L100.402 237.57ZM95.202 223.997C95.1761 223.878 95.1739 223.778 95.177 223.702L99.6426 222.732L103.736 221.842L104.981 227.573L96.4223 229.433C96.3882 229.365 96.3487 229.273 96.3228 229.154L95.202 223.997ZM97.071 218.789C96.8992 217.998 97.4947 217.197 98.3972 217.001C100.198 216.609 101.641 217.931 102.531 219.103L99.0199 219.866C98.1174 220.062 97.2429 219.58 97.071 218.789ZM109.449 214.599C110.352 214.403 111.226 214.885 111.398 215.676C111.57 216.467 110.974 217.268 110.072 217.464L106.552 218.229C106.87 216.795 107.631 214.994 109.449 214.599ZM115.26 219.638L116.38 224.795C116.406 224.914 116.409 225.014 116.405 225.09L107.847 226.95L106.601 221.219L110.694 220.33L115.16 219.359C115.194 219.427 115.234 219.519 115.26 219.638ZM114.861 216.424L114.298 216.546C114.369 216.059 114.373 215.559 114.263 215.053C113.748 212.684 111.309 211.194 108.826 211.734C106.073 212.332 104.718 214.425 104.047 216.369C102.629 214.879 100.528 213.537 97.7746 214.135C95.2917 214.675 93.6907 217.042 94.2057 219.412C94.3156 219.918 94.5281 220.371 94.7935 220.785L94.2305 220.907C92.7849 221.221 91.9527 222.853 92.3366 224.619L93.4575 229.777C93.8021 231.363 94.9949 232.433 96.2802 232.41L97.6405 238.67C97.9266 239.986 99.3243 240.805 100.756 240.494L117.052 236.952C118.485 236.641 119.417 235.316 119.131 233.999L117.771 227.74C118.949 227.227 119.59 225.759 119.246 224.173L118.125 219.015C117.741 217.249 116.307 216.109 114.861 216.424Z" fill="#3366FF" fill-opacity="0.2"/>
<mask id="mask13_496_3595" style="mask-type:alpha" maskUnits="userSpaceOnUse" x="92" y="211" width="28" height="30">
<path fill-rule="evenodd" clip-rule="evenodd" d="M109.715 235.546L116.162 234.145L114.916 228.414L108.469 229.815L109.715 235.546ZM100.402 237.57L106.849 236.169L105.604 230.438L99.1568 231.839L100.402 237.57ZM95.202 223.997C95.1761 223.878 95.1739 223.778 95.177 223.702L99.6426 222.732L103.736 221.842L104.981 227.573L96.4223 229.433C96.3882 229.365 96.3487 229.273 96.3228 229.154L95.202 223.997ZM97.071 218.789C96.8992 217.998 97.4947 217.197 98.3972 217.001C100.198 216.609 101.641 217.931 102.531 219.103L99.0199 219.866C98.1174 220.062 97.2429 219.58 97.071 218.789ZM109.449 214.599C110.352 214.403 111.226 214.885 111.398 215.676C111.57 216.467 110.974 217.268 110.072 217.464L106.552 218.229C106.87 216.795 107.631 214.994 109.449 214.599ZM115.26 219.638L116.38 224.795C116.406 224.914 116.409 225.014 116.405 225.09L107.847 226.95L106.601 221.219L110.694 220.33L115.16 219.359C115.194 219.427 115.234 219.519 115.26 219.638ZM114.861 216.424L114.298 216.546C114.369 216.059 114.373 215.559 114.263 215.053C113.748 212.684 111.309 211.194 108.826 211.734C106.073 212.332 104.718 214.425 104.047 216.369C102.629 214.879 100.528 213.537 97.7746 214.135C95.2917 214.675 93.6907 217.042 94.2057 219.412C94.3156 219.918 94.5281 220.371 94.7935 220.785L94.2305 220.907C92.7849 221.221 91.9527 222.853 92.3366 224.619L93.4575 229.777C93.8021 231.363 94.9949 232.433 96.2802 232.41L97.6405 238.67C97.9266 239.986 99.3243 240.805 100.756 240.494L117.052 236.952C118.485 236.641 119.417 235.316 119.131 233.999L117.771 227.74C118.949 227.227 119.59 225.759 119.246 224.173L118.125 219.015C117.741 217.249 116.307 216.109 114.861 216.424Z" fill="white"/>
</mask>
<g mask="url(#mask13_496_3595)">
</g>
<path fill-rule="evenodd" clip-rule="evenodd" d="M358.006 221.886L364.453 220.485L363.207 214.754L356.76 216.155L358.006 221.886ZM348.693 223.91L355.14 222.509L353.895 216.778L347.448 218.179L348.693 223.91ZM343.493 210.337C343.467 210.218 343.465 210.118 343.468 210.042L347.934 209.071L352.027 208.182L353.272 213.913L344.713 215.773C344.679 215.705 344.64 215.613 344.614 215.494L343.493 210.337ZM345.362 205.129C345.19 204.338 345.786 203.537 346.688 203.341C348.489 202.949 349.932 204.271 350.822 205.443L347.311 206.206C346.408 206.402 345.534 205.92 345.362 205.129ZM357.74 200.939C358.643 200.743 359.517 201.225 359.689 202.016C359.861 202.807 359.265 203.608 358.363 203.804L354.843 204.569C355.161 203.135 355.922 201.334 357.74 200.939ZM363.551 205.978L364.671 211.135C364.697 211.254 364.7 211.354 364.696 211.43L356.138 213.29L354.892 207.559L358.985 206.67L363.451 205.699C363.485 205.767 363.525 205.859 363.551 205.978ZM363.152 202.764L362.589 202.886C362.66 202.399 362.664 201.899 362.554 201.393C362.039 199.023 359.6 197.534 357.117 198.074C354.364 198.672 353.009 200.765 352.338 202.709C350.92 201.219 348.819 199.877 346.066 200.475C343.583 201.015 341.982 203.382 342.497 205.752C342.607 206.258 342.819 206.711 343.085 207.125L342.521 207.247C341.076 207.561 340.244 209.193 340.628 210.959L341.748 216.117C342.093 217.703 343.286 218.773 344.571 218.75L345.932 225.01C346.218 226.326 347.615 227.145 349.047 226.834L365.343 223.292C366.776 222.981 367.708 221.656 367.422 220.339L366.062 214.08C367.24 213.567 367.881 212.099 367.537 210.513L366.416 205.355C366.032 203.589 364.598 202.449 363.152 202.764Z" fill="#3366FF" fill-opacity="0.2"/>
<mask id="mask14_496_3595" style="mask-type:alpha" maskUnits="userSpaceOnUse" x="340" y="197" width="28" height="30">
<path fill-rule="evenodd" clip-rule="evenodd" d="M358.006 221.886L364.453 220.485L363.207 214.754L356.76 216.155L358.006 221.886ZM348.693 223.91L355.14 222.509L353.895 216.778L347.448 218.179L348.693 223.91ZM343.493 210.337C343.467 210.218 343.465 210.118 343.468 210.042L347.934 209.071L352.027 208.182L353.272 213.913L344.713 215.773C344.679 215.705 344.64 215.613 344.614 215.494L343.493 210.337ZM345.362 205.129C345.19 204.338 345.786 203.537 346.688 203.341C348.489 202.949 349.932 204.271 350.822 205.443L347.311 206.206C346.408 206.402 345.534 205.92 345.362 205.129ZM357.74 200.939C358.643 200.743 359.517 201.225 359.689 202.016C359.861 202.807 359.265 203.608 358.363 203.804L354.843 204.569C355.161 203.135 355.922 201.334 357.74 200.939ZM363.551 205.978L364.671 211.135C364.697 211.254 364.7 211.354 364.696 211.43L356.138 213.29L354.892 207.559L358.985 206.67L363.451 205.699C363.485 205.767 363.525 205.859 363.551 205.978ZM363.152 202.764L362.589 202.886C362.66 202.399 362.664 201.899 362.554 201.393C362.039 199.023 359.6 197.534 357.117 198.074C354.364 198.672 353.009 200.765 352.338 202.709C350.92 201.219 348.819 199.877 346.066 200.475C343.583 201.015 341.982 203.382 342.497 205.752C342.607 206.258 342.819 206.711 343.085 207.125L342.521 207.247C341.076 207.561 340.244 209.193 340.628 210.959L341.748 216.117C342.093 217.703 343.286 218.773 344.571 218.75L345.932 225.01C346.218 226.326 347.615 227.145 349.047 226.834L365.343 223.292C366.776 222.981 367.708 221.656 367.422 220.339L366.062 214.08C367.24 213.567 367.881 212.099 367.537 210.513L366.416 205.355C366.032 203.589 364.598 202.449 363.152 202.764Z" fill="white"/>
</mask>
<g mask="url(#mask14_496_3595)">
</g>
<path fill-rule="evenodd" clip-rule="evenodd" d="M415.861 151.979L422.308 150.578L421.063 144.847L414.616 146.248L415.861 151.979ZM406.549 154.003L412.996 152.602L411.75 146.871L405.303 148.272L406.549 154.003ZM401.348 140.429C401.323 140.31 401.32 140.21 401.323 140.135L405.789 139.164L409.882 138.275L411.128 144.006L402.569 145.866C402.535 145.798 402.495 145.706 402.469 145.587L401.348 140.429ZM403.218 135.222C403.046 134.431 403.641 133.63 404.544 133.434C406.345 133.042 407.787 134.364 408.678 135.536L405.166 136.299C404.264 136.495 403.389 136.013 403.218 135.222ZM415.595 131.032C416.498 130.836 417.373 131.318 417.544 132.109C417.716 132.899 417.121 133.701 416.218 133.897L412.698 134.662C413.016 133.228 413.777 131.427 415.595 131.032ZM421.406 136.071L422.527 141.228C422.553 141.347 422.555 141.447 422.552 141.523L413.993 143.383L412.748 137.652L416.841 136.763L421.307 135.792C421.341 135.86 421.38 135.952 421.406 136.071ZM421.008 132.856L420.445 132.979C420.516 132.492 420.52 131.992 420.41 131.486C419.895 129.116 417.456 127.627 414.973 128.166C412.219 128.765 410.865 130.858 410.193 132.801C408.776 131.312 406.675 129.97 403.921 130.568C401.438 131.108 399.837 133.475 400.352 135.845C400.462 136.351 400.675 136.804 400.94 137.217L400.377 137.34C398.931 137.654 398.099 139.286 398.483 141.052L399.604 146.21C399.949 147.796 401.141 148.866 402.427 148.843L403.787 155.102C404.073 156.419 405.471 157.238 406.902 156.927L423.199 153.385C424.632 153.074 425.563 151.749 425.277 150.432L423.917 144.173C425.096 143.66 425.737 142.191 425.392 140.606L424.271 135.448C423.888 133.681 422.453 132.542 421.008 132.856Z" fill="#3366FF" fill-opacity="0.2"/>
<mask id="mask15_496_3595" style="mask-type:alpha" maskUnits="userSpaceOnUse" x="398" y="128" width="28" height="29">
<path fill-rule="evenodd" clip-rule="evenodd" d="M415.861 151.979L422.308 150.578L421.063 144.847L414.616 146.248L415.861 151.979ZM406.549 154.003L412.996 152.602L411.75 146.871L405.303 148.272L406.549 154.003ZM401.348 140.429C401.323 140.31 401.32 140.21 401.323 140.135L405.789 139.164L409.882 138.275L411.128 144.006L402.569 145.866C402.535 145.798 402.495 145.706 402.469 145.587L401.348 140.429ZM403.218 135.222C403.046 134.431 403.641 133.63 404.544 133.434C406.345 133.042 407.787 134.364 408.678 135.536L405.166 136.299C404.264 136.495 403.389 136.013 403.218 135.222ZM415.595 131.032C416.498 130.836 417.373 131.318 417.544 132.109C417.716 132.899 417.121 133.701 416.218 133.897L412.698 134.662C413.016 133.228 413.777 131.427 415.595 131.032ZM421.406 136.071L422.527 141.228C422.553 141.347 422.555 141.447 422.552 141.523L413.993 143.383L412.748 137.652L416.841 136.763L421.307 135.792C421.341 135.86 421.38 135.952 421.406 136.071ZM421.008 132.856L420.445 132.979C420.516 132.492 420.52 131.992 420.41 131.486C419.895 129.116 417.456 127.627 414.973 128.166C412.219 128.765 410.865 130.858 410.193 132.801C408.776 131.312 406.675 129.97 403.921 130.568C401.438 131.108 399.837 133.475 400.352 135.845C400.462 136.351 400.675 136.804 400.94 137.217L400.377 137.34C398.931 137.654 398.099 139.286 398.483 141.052L399.604 146.21C399.949 147.796 401.141 148.866 402.427 148.843L403.787 155.102C404.073 156.419 405.471 157.238 406.902 156.927L423.199 153.385C424.632 153.074 425.563 151.749 425.277 150.432L423.917 144.173C425.096 143.66 425.737 142.191 425.392 140.606L424.271 135.448C423.888 133.681 422.453 132.542 421.008 132.856Z" fill="white"/>
</mask>
<g mask="url(#mask15_496_3595)">
</g>
<path fill-rule="evenodd" clip-rule="evenodd" d="M396.243 76.3137L401.925 79.6665L404.905 74.6158L399.223 71.2629L396.243 76.3137ZM388.035 71.4707L393.717 74.8235L396.698 69.7728L391.016 66.4199L388.035 71.4707ZM393.443 57.9787C393.505 57.8739 393.571 57.799 393.625 57.7455L397.561 60.0679L401.168 62.1966L398.188 67.2474L390.645 62.7963C390.665 62.7235 390.699 62.6292 390.761 62.5244L393.443 57.9787ZM398.353 55.4282C398.764 54.7312 399.745 54.5478 400.541 55.0172C402.128 55.9537 402.288 57.9038 402.146 59.3687L399.051 57.5426C398.255 57.0732 397.941 56.1252 398.353 55.4282ZM410.281 60.7647C411.077 61.2341 411.391 62.182 410.98 62.879C410.568 63.576 409.587 63.7595 408.791 63.2901L405.689 61.4594C406.897 60.6233 408.679 59.8192 410.281 60.7647ZM411.121 68.4098L408.438 72.9555C408.377 73.0603 408.31 73.1352 408.257 73.1886L400.713 68.7375L403.694 63.6868L407.301 65.8155L411.237 68.1379C411.216 68.2107 411.183 68.305 411.121 68.4098ZM413.012 65.7809L412.516 65.4881C412.899 65.1795 413.242 64.8149 413.505 64.3692C414.737 62.2807 413.96 59.5305 411.772 58.2393C409.345 56.8073 406.928 57.4227 405.115 58.3922C405.087 56.3364 404.458 53.9238 402.031 52.4918C399.843 51.2006 397.06 51.8496 395.827 53.9381C395.564 54.3838 395.412 54.8609 395.326 55.3446L394.83 55.0518C393.556 54.3 391.836 54.9316 390.918 56.4885L388.235 61.0342C387.411 62.432 387.559 64.0276 388.517 64.8843L385.262 70.401C384.577 71.5614 385.046 73.1116 386.308 73.856L400.671 82.3312C401.934 83.0763 403.517 82.7376 404.202 81.5772L407.457 76.0605C408.671 76.4853 410.139 75.8434 410.964 74.4456L413.646 69.8999C414.565 68.343 414.286 66.5327 413.012 65.7809Z" fill="#3366FF" fill-opacity="0.2"/>
<mask id="mask16_496_3595" style="mask-type:alpha" maskUnits="userSpaceOnUse" x="384" y="51" width="31" height="32">
<path fill-rule="evenodd" clip-rule="evenodd" d="M396.243 76.3137L401.925 79.6665L404.905 74.6158L399.223 71.2629L396.243 76.3137ZM388.035 71.4707L393.717 74.8235L396.698 69.7728L391.016 66.4199L388.035 71.4707ZM393.443 57.9787C393.505 57.8739 393.571 57.799 393.625 57.7455L397.561 60.0679L401.168 62.1966L398.188 67.2474L390.645 62.7963C390.665 62.7235 390.699 62.6292 390.761 62.5244L393.443 57.9787ZM398.353 55.4282C398.764 54.7312 399.745 54.5478 400.541 55.0172C402.128 55.9537 402.288 57.9038 402.146 59.3687L399.051 57.5426C398.255 57.0732 397.941 56.1252 398.353 55.4282ZM410.281 60.7647C411.077 61.2341 411.391 62.182 410.98 62.879C410.568 63.576 409.587 63.7595 408.791 63.2901L405.689 61.4594C406.897 60.6233 408.679 59.8192 410.281 60.7647ZM411.121 68.4098L408.438 72.9555C408.377 73.0603 408.31 73.1352 408.257 73.1886L400.713 68.7375L403.694 63.6868L407.301 65.8155L411.237 68.1379C411.216 68.2107 411.183 68.305 411.121 68.4098ZM413.012 65.7809L412.516 65.4881C412.899 65.1795 413.242 64.8149 413.505 64.3692C414.737 62.2807 413.96 59.5305 411.772 58.2393C409.345 56.8073 406.928 57.4227 405.115 58.3922C405.087 56.3364 404.458 53.9238 402.031 52.4918C399.843 51.2006 397.06 51.8496 395.827 53.9381C395.564 54.3838 395.412 54.8609 395.326 55.3446L394.83 55.0518C393.556 54.3 391.836 54.9316 390.918 56.4885L388.235 61.0342C387.411 62.432 387.559 64.0276 388.517 64.8843L385.262 70.401C384.577 71.5614 385.046 73.1116 386.308 73.856L400.671 82.3312C401.934 83.0763 403.517 82.7376 404.202 81.5772L407.457 76.0605C408.671 76.4853 410.139 75.8434 410.964 74.4456L413.646 69.8999C414.565 68.343 414.286 66.5327 413.012 65.7809Z" fill="white"/>
</mask>
<g mask="url(#mask16_496_3595)">
</g>
<path fill-rule="evenodd" clip-rule="evenodd" d="M370.773 150.003L377.088 148.092L375.389 142.479L369.074 144.39L370.773 150.003ZM361.652 152.764L367.967 150.853L366.268 145.24L359.953 147.151L361.652 152.764ZM355.385 139.649C355.35 139.532 355.34 139.433 355.337 139.357L359.711 138.033L363.72 136.82L365.418 142.433L357.035 144.97C356.996 144.906 356.949 144.817 356.914 144.701L355.385 139.649ZM356.832 134.309C356.598 133.534 357.128 132.688 358.012 132.42C359.776 131.886 361.319 133.089 362.301 134.186L358.861 135.227C357.977 135.494 357.067 135.084 356.832 134.309ZM368.837 129.144C369.721 128.877 370.631 129.287 370.865 130.062C371.1 130.837 370.57 131.683 369.686 131.951L366.238 132.994C366.441 131.539 367.056 129.683 368.837 129.144ZM375.031 133.703L376.56 138.755C376.595 138.871 376.605 138.971 376.608 139.047L368.225 141.584L366.526 135.971L370.535 134.757L374.909 133.434C374.949 133.498 374.995 133.587 375.031 133.703ZM374.377 130.531L373.826 130.698C373.858 130.207 373.822 129.708 373.672 129.213C372.969 126.892 370.419 125.602 367.987 126.338C365.29 127.154 364.107 129.349 363.593 131.339C362.061 129.968 359.859 128.798 357.162 129.614C354.73 130.35 353.323 132.837 354.026 135.158C354.176 135.654 354.424 136.089 354.721 136.48L354.17 136.647C352.754 137.075 352.055 138.768 352.578 140.498L354.107 145.55C354.577 147.103 355.852 148.075 357.131 147.95L358.987 154.081C359.377 155.37 360.836 156.075 362.238 155.65L378.2 150.819C379.603 150.395 380.426 149 380.036 147.71L378.18 141.579C379.314 140.974 379.836 139.459 379.366 137.905L377.837 132.854C377.314 131.123 375.793 130.102 374.377 130.531Z" fill="#3366FF" fill-opacity="0.2"/>
<mask id="mask17_496_3595" style="mask-type:alpha" maskUnits="userSpaceOnUse" x="352" y="126" width="29" height="30">
<path fill-rule="evenodd" clip-rule="evenodd" d="M370.773 150.003L377.088 148.092L375.389 142.479L369.074 144.39L370.773 150.003ZM361.652 152.764L367.967 150.853L366.268 145.24L359.953 147.151L361.652 152.764ZM355.385 139.649C355.35 139.532 355.34 139.433 355.337 139.357L359.711 138.033L363.72 136.82L365.418 142.433L357.035 144.97C356.996 144.906 356.949 144.817 356.914 144.701L355.385 139.649ZM356.832 134.309C356.598 133.534 357.128 132.688 358.012 132.42C359.776 131.886 361.319 133.089 362.301 134.186L358.861 135.227C357.977 135.494 357.067 135.084 356.832 134.309ZM368.837 129.144C369.721 128.877 370.631 129.287 370.865 130.062C371.1 130.837 370.57 131.683 369.686 131.951L366.238 132.994C366.441 131.539 367.056 129.683 368.837 129.144ZM375.031 133.703L376.56 138.755C376.595 138.871 376.605 138.971 376.608 139.047L368.225 141.584L366.526 135.971L370.535 134.757L374.909 133.434C374.949 133.498 374.995 133.587 375.031 133.703ZM374.377 130.531L373.826 130.698C373.858 130.207 373.822 129.708 373.672 129.213C372.969 126.892 370.419 125.602 367.987 126.338C365.29 127.154 364.107 129.349 363.593 131.339C362.061 129.968 359.859 128.798 357.162 129.614C354.73 130.35 353.323 132.837 354.026 135.158C354.176 135.654 354.424 136.089 354.721 136.48L354.17 136.647C352.754 137.075 352.055 138.768 352.578 140.498L354.107 145.55C354.577 147.103 355.852 148.075 357.131 147.95L358.987 154.081C359.377 155.37 360.836 156.075 362.238 155.65L378.2 150.819C379.603 150.395 380.426 149 380.036 147.71L378.18 141.579C379.314 140.974 379.836 139.459 379.366 137.905L377.837 132.854C377.314 131.123 375.793 130.102 374.377 130.531Z" fill="white"/>
</mask>
<g mask="url(#mask17_496_3595)">
</g>
</svg>
