<svg width="36" height="36" viewBox="0 0 36 36" fill="none" xmlns="http://www.w3.org/2000/svg">
<g id="gift">
<path id="&#240;&#159;&#142;&#168; Icon color" fill-rule="evenodd" clip-rule="evenodd" d="M19.0597 27.8564H25.6573V21.9919H19.0597V27.8564ZM9.52988 27.8564H16.1274V21.9919H9.52988V27.8564ZM7.33069 13.4884C7.33069 13.3667 7.34975 13.2684 7.36881 13.1951H11.9387H16.1274V19.0596H7.36881C7.34975 18.9863 7.33069 18.8881 7.33069 18.7664L7.33069 13.4884ZM10.2629 8.79675C10.2629 7.98745 11.0151 7.33063 11.9387 7.33063C13.7816 7.33063 14.9106 8.92871 15.5322 10.2629H11.9387C11.0151 10.2629 10.2629 9.60606 10.2629 8.79675ZM23.2484 7.33063C24.1721 7.33063 24.9242 7.98745 24.9242 8.79675C24.9242 9.60606 24.1721 10.2629 23.2484 10.2629H19.6461C20.2619 8.92871 21.3879 7.33063 23.2484 7.33063ZM27.8565 13.4884V18.7664C27.8565 18.8881 27.8374 18.9863 27.8183 19.0596H19.0597V13.1951L23.2484 13.1951H27.8183C27.8374 13.2684 27.8565 13.3667 27.8565 13.4884ZM28.1497 10.2629H27.5735C27.7465 9.80252 27.8565 9.3143 27.8565 8.79675C27.8565 6.37178 25.7892 4.39838 23.2484 4.39838C20.4305 4.39838 18.6624 6.15626 17.5936 7.91268C16.5248 6.15626 14.7566 4.39838 11.9387 4.39838C9.39793 4.39838 7.33069 6.37178 7.33069 8.79675C7.33069 9.3143 7.44212 9.80252 7.61365 10.2629H7.03746C5.55814 10.2629 4.39844 11.6806 4.39844 13.4884V18.7664C4.39844 20.3894 5.33676 21.6884 6.59763 21.9391L6.59763 28.3446C6.59763 29.692 7.78959 30.7886 9.25425 30.7886H25.9314C27.3976 30.7886 28.5895 29.692 28.5895 28.3446V21.9391C29.8504 21.6884 30.7887 20.3894 30.7887 18.7664V13.4884C30.7887 11.6806 29.629 10.2629 28.1497 10.2629Z" fill="#3366FF"/>
<mask id="mask0_496_5464" style="mask-type:alpha" maskUnits="userSpaceOnUse" x="4" y="4" width="27" height="27">
<path id="&#240;&#159;&#142;&#168; Icon color_2" fill-rule="evenodd" clip-rule="evenodd" d="M19.0597 27.8564H25.6573V21.9919H19.0597V27.8564ZM9.52988 27.8564H16.1274V21.9919H9.52988V27.8564ZM7.33069 13.4884C7.33069 13.3667 7.34975 13.2684 7.36881 13.1951H11.9387H16.1274V19.0596H7.36881C7.34975 18.9863 7.33069 18.8881 7.33069 18.7664L7.33069 13.4884ZM10.2629 8.79675C10.2629 7.98745 11.0151 7.33063 11.9387 7.33063C13.7816 7.33063 14.9106 8.92871 15.5322 10.2629H11.9387C11.0151 10.2629 10.2629 9.60606 10.2629 8.79675ZM23.2484 7.33063C24.1721 7.33063 24.9242 7.98745 24.9242 8.79675C24.9242 9.60606 24.1721 10.2629 23.2484 10.2629H19.6461C20.2619 8.92871 21.3879 7.33063 23.2484 7.33063ZM27.8565 13.4884V18.7664C27.8565 18.8881 27.8374 18.9863 27.8183 19.0596H19.0597V13.1951L23.2484 13.1951H27.8183C27.8374 13.2684 27.8565 13.3667 27.8565 13.4884ZM28.1497 10.2629H27.5735C27.7465 9.80252 27.8565 9.3143 27.8565 8.79675C27.8565 6.37178 25.7892 4.39838 23.2484 4.39838C20.4305 4.39838 18.6624 6.15626 17.5936 7.91268C16.5248 6.15626 14.7566 4.39838 11.9387 4.39838C9.39793 4.39838 7.33069 6.37178 7.33069 8.79675C7.33069 9.3143 7.44212 9.80252 7.61365 10.2629H7.03746C5.55814 10.2629 4.39844 11.6806 4.39844 13.4884V18.7664C4.39844 20.3894 5.33676 21.6884 6.59763 21.9391L6.59763 28.3446C6.59763 29.692 7.78959 30.7886 9.25425 30.7886H25.9314C27.3976 30.7886 28.5895 29.692 28.5895 28.3446V21.9391C29.8504 21.6884 30.7887 20.3894 30.7887 18.7664V13.4884C30.7887 11.6806 29.629 10.2629 28.1497 10.2629Z" fill="white"/>
</mask>
<g mask="url(#mask0_496_5464)">
</g>
</g>
</svg>
