<svg width="86" height="66" viewBox="0 0 86 66" fill="none" xmlns="http://www.w3.org/2000/svg">
<g clip-path="url(#clip0_496_3447)">
<path d="M57.6334 18.5838C59.4783 13.635 63.8372 9.35883 69.1049 8.85019C65.9379 13.6446 64.5728 19.402 65.2511 25.1039C65.5207 27.302 66.0499 29.7187 64.8623 31.5895C64.1233 32.7535 62.821 33.4701 61.4785 33.7935C60.136 34.1169 58.7371 34.0918 57.3563 34.0649L57.0472 34.2172C56.076 29.0268 55.7885 23.5327 57.6334 18.5838Z" fill="#F0F0F0"/>
<path d="M69.1302 8.95801C65.5392 11.4609 62.83 15.0291 61.3873 19.1557C61.0836 20.0416 60.8528 20.9667 60.8395 21.9075C60.8336 22.8246 61.074 23.7265 61.5356 24.5196C61.9512 25.2677 62.4631 25.985 62.6891 26.8208C62.9274 27.7019 62.7332 28.5931 62.2465 29.3543C61.651 30.2857 60.7556 30.948 59.8574 31.5653C58.8601 32.2508 57.8134 32.947 57.2032 34.0238C57.1292 34.1542 56.9306 34.0321 57.0045 33.9019C58.0661 32.0284 60.2942 31.348 61.6572 29.7566C62.2932 29.0141 62.7088 28.0758 62.5121 27.0871C62.3402 26.2225 61.8129 25.4824 61.3856 24.7286C60.9369 23.937 60.6438 23.1156 60.6096 22.1998C60.5747 21.2629 60.7697 20.3269 61.0493 19.4371C61.6985 17.4241 62.6609 15.5254 63.9013 13.8106C65.3061 11.8458 67.0374 10.1351 69.0203 8.75271C69.1431 8.66719 69.2522 8.87305 69.1302 8.95801V8.95801Z" fill="white"/>
<path d="M61.7718 17.7997C61.1107 17.4642 60.5907 16.9052 60.3045 16.2225C60.0184 15.5398 59.9848 14.7778 60.2098 14.0727C60.2558 13.9302 60.48 13.9948 60.4339 14.1375C60.2232 14.7938 60.2545 15.5035 60.5223 16.1387C60.79 16.7739 61.2765 17.2927 61.894 17.6014C62.0281 17.6687 61.9051 17.8665 61.7718 17.7997Z" fill="white"/>
<path d="M61.2735 24.168C62.7192 23.7124 63.9398 22.7299 64.6918 21.4164C64.7662 21.2862 64.9648 21.4082 64.8905 21.5383C64.1054 22.9037 62.8331 23.9236 61.3276 24.3944C61.184 24.4391 61.1307 24.2125 61.2735 24.168V24.168Z" fill="white"/>
<path d="M65.4654 12.11C65.6941 12.293 65.9647 12.4164 66.2531 12.4693C66.5414 12.5221 66.8384 12.5027 67.1173 12.4127C67.2602 12.3661 67.3134 12.5928 67.1714 12.6391C66.8628 12.737 66.5348 12.7581 66.2161 12.7004C65.8974 12.6428 65.5977 12.5081 65.3432 12.3083C65.3176 12.2914 65.2995 12.2655 65.2924 12.2358C65.2852 12.2061 65.2897 12.1747 65.305 12.1482C65.3213 12.122 65.3473 12.1033 65.3773 12.0962C65.4073 12.089 65.439 12.094 65.4654 12.11V12.11Z" fill="white"/>
<path d="M81.8016 21.4648C81.7132 21.4965 81.6248 21.5281 81.5359 21.5616C80.3496 21.9927 79.2005 22.5192 78.0997 23.136C78.0139 23.1823 77.9276 23.2306 77.8432 23.2793C75.2071 24.7934 72.8757 26.7826 70.9675 29.1459C70.2091 30.087 69.5235 31.0843 68.9167 32.1291C68.0788 33.5722 67.2853 35.2033 66.0547 36.255C65.9276 36.3661 65.7936 36.4693 65.6537 36.5639L57.2572 34.5817C57.2403 34.5676 57.223 34.5555 57.2061 34.5414L56.8672 34.4775C56.8947 34.4215 56.9245 34.3639 56.952 34.3078C56.9678 34.2752 56.9855 34.2431 57.0013 34.2105C57.0125 34.1889 57.0237 34.1673 57.0326 34.1472C57.0362 34.14 57.04 34.1328 57.0432 34.1275C57.0521 34.1074 57.0624 34.0897 57.0708 34.0715C57.2362 33.7493 57.4042 33.4276 57.5747 33.1066C57.5752 33.1047 57.5752 33.1047 57.5775 33.1032C58.8831 30.6606 60.4047 28.3052 62.2362 26.2551C62.2913 26.1934 62.3468 26.1298 62.4057 26.0691C63.2364 25.1495 64.1411 24.2993 65.1106 23.5268C65.6428 23.1055 66.1961 22.7114 66.7683 22.3459C68.2486 21.4045 69.8681 20.7011 71.5675 20.2618C74.9553 19.3864 78.5859 19.6017 81.5745 21.3305C81.651 21.3748 81.7256 21.4187 81.8016 21.4648Z" fill="#F0F0F0"/>
<path d="M81.7577 21.5667C77.38 21.4081 73.0636 22.6297 69.4214 25.058C68.6443 25.583 67.9018 26.183 67.3234 26.9262C66.7653 27.6549 66.4129 28.5194 66.3029 29.4299C66.1832 30.2769 66.1591 31.157 65.8352 31.9602C65.4937 32.8067 64.8008 33.4017 63.9528 33.7172C62.9153 34.1031 61.8007 34.0941 60.711 34.0475C59.5011 33.9957 58.2452 33.9228 57.1082 34.416C56.9704 34.4758 56.8856 34.259 57.0231 34.1994C59.0013 33.3413 61.191 34.1363 63.2396 33.6844C64.1955 33.4736 65.0935 32.974 65.5332 32.0665C65.9176 31.2728 65.9433 30.3653 66.057 29.5067C66.1764 28.6051 66.4381 27.7732 66.9635 27.0214C67.5009 26.2524 68.2215 25.6222 68.9817 25.0797C70.7149 23.8624 72.6291 22.9245 74.6543 22.3004C76.9616 21.5754 79.3763 21.2495 81.7938 21.3368C81.9434 21.3422 81.9063 21.5721 81.7577 21.5667L81.7577 21.5667Z" fill="white"/>
<path d="M70.5475 24.2072C70.2221 23.5423 70.1442 22.7836 70.3277 22.0666C70.5113 21.3496 70.9443 20.7211 71.5494 20.2932C71.6722 20.2071 71.8121 20.3933 71.6892 20.4796C71.1249 20.877 70.7217 21.4625 70.5521 22.1305C70.3826 22.7985 70.458 23.5049 70.7646 24.1223C70.8311 24.2566 70.6136 24.3407 70.5475 24.2072V24.2072Z" fill="white"/>
<path d="M66.3061 28.9925C67.7354 29.4972 69.3029 29.4459 70.696 28.8488C70.834 28.7895 70.9189 29.0063 70.7811 29.0655C69.3303 29.6841 67.699 29.7342 66.2127 29.2058C66.0711 29.1553 66.1653 28.9423 66.3061 28.9925Z" fill="white"/>
<path d="M76.9292 21.8823C77.0014 22.1657 77.143 22.4269 77.3413 22.6423C77.5397 22.8576 77.7885 23.0205 78.0655 23.1162C78.2077 23.1648 78.1134 23.3778 77.9721 23.3294C77.6666 23.2223 77.392 23.0421 77.1723 22.8046C76.9526 22.5671 76.7946 22.2796 76.712 21.9672C76.7018 21.9384 76.7029 21.9068 76.7152 21.8788C76.7274 21.8507 76.7499 21.8284 76.7781 21.8164C76.8069 21.8053 76.8389 21.806 76.8672 21.8183C76.8955 21.8307 76.9178 21.8536 76.9292 21.8823V21.8823Z" fill="white"/>
<path d="M8.98126 63.9459C4.1744 61.7368 0.22972 57.0775 0.119141 51.7987C4.6718 55.3113 10.3231 57.1042 16.0731 56.86C18.2903 56.7578 20.7457 56.4138 22.5258 57.7366C23.6334 58.5596 24.2513 59.9093 24.4732 61.2692C24.695 62.6293 24.5643 64.019 24.4331 65.3907L24.562 65.7097C19.3011 66.2839 13.7881 66.155 8.98126 63.9459Z" fill="#F0F0F0"/>
<path d="M0.229652 51.7815C2.46005 55.5429 5.8217 58.5076 9.83712 60.2545C10.6996 60.6235 11.6068 60.9229 12.5461 61.0072C13.4622 61.0823 14.3819 60.9113 15.2094 60.512C15.9885 60.1551 16.744 59.7 17.5964 59.5382C18.495 59.3677 19.3711 59.6282 20.0952 60.1699C20.981 60.8326 21.5754 61.7734 22.1246 62.7136C22.7343 63.7575 23.3511 64.8514 24.3812 65.5398C24.506 65.6232 24.369 65.8115 24.2444 65.7282C22.4522 64.5306 21.9403 62.2626 20.4528 60.7865C19.7586 60.0977 18.8523 59.6134 17.8492 59.7344C16.9721 59.8402 16.1926 60.3088 15.4069 60.677C14.5819 61.0636 13.7387 61.2932 12.8208 61.258C11.8819 61.222 10.9611 60.9573 10.0929 60.612C8.12994 59.8141 6.30497 58.7133 4.6848 57.3498C2.82707 55.8039 1.24808 53.9524 0.0161532 51.8753C-0.0600468 51.7467 0.153944 51.6537 0.22964 51.7815H0.229652Z" fill="white"/>
<path d="M8.51056 59.7679C8.12534 60.4003 7.52736 60.8754 6.82342 61.1085C6.11948 61.3416 5.35541 61.3174 4.66766 61.0404C4.5287 60.9838 4.61023 60.7657 4.74938 60.8224C5.38933 61.0815 6.10107 61.104 6.75613 60.8856C7.4112 60.6672 7.96644 60.2224 8.32165 59.6314C8.39899 59.5031 8.58746 59.6403 8.51056 59.7679Z" fill="white"/>
<path d="M14.838 60.7448C14.4918 59.2721 13.602 57.9837 12.346 57.1364C12.2215 57.0526 12.3584 56.8642 12.4828 56.9479C13.7882 57.832 14.7115 59.1747 15.0683 60.7081C15.1022 60.8543 14.8717 60.8902 14.838 60.7448Z" fill="white"/>
<path d="M3.10397 55.665C3.30412 55.4513 3.44794 55.1914 3.52252 54.9085C3.59709 54.6257 3.60009 54.3288 3.53123 54.0445C3.49548 53.8988 3.72604 53.8631 3.76156 54.0078C3.83617 54.3222 3.83246 54.6501 3.75076 54.9628C3.66906 55.2755 3.51186 55.5634 3.29288 55.8015C3.27412 55.8257 3.24685 55.8418 3.2166 55.8466C3.18634 55.8515 3.15539 55.8446 3.13001 55.8275C3.10509 55.8093 3.08838 55.782 3.0835 55.7516C3.07863 55.7212 3.08598 55.69 3.10397 55.665Z" fill="white"/>
<path d="M13.6863 40.12C13.7112 40.2103 13.7361 40.3006 13.7629 40.3916C14.1042 41.6043 14.5437 42.7873 15.077 43.9289C15.1168 44.0178 15.1585 44.1073 15.2008 44.1949C16.5151 46.9317 18.3272 49.4013 20.5451 51.4781C21.4284 52.3037 22.3734 53.0611 23.3718 53.7436C24.7508 54.6862 26.3212 55.5987 27.2793 56.9024C27.3808 57.0372 27.4738 57.1783 27.5579 57.3246L24.9426 65.5281C24.9273 65.5438 24.9138 65.5601 24.8984 65.5759L24.809 65.9082C24.7551 65.8766 24.6998 65.8426 24.6458 65.811C24.6145 65.7928 24.5837 65.7728 24.5523 65.7546C24.5315 65.7418 24.5108 65.729 24.4914 65.7187C24.4845 65.7145 24.4776 65.7102 24.4725 65.7066C24.4531 65.6963 24.4361 65.6847 24.4186 65.675C24.109 65.4861 23.8003 65.2947 23.4923 65.1008C23.4904 65.1002 23.4904 65.1002 23.4891 65.0978C21.1464 63.6144 18.9071 61.9229 16.9965 59.946C16.939 59.8865 16.8796 59.8265 16.8233 59.7633C15.967 58.8675 15.1856 57.9033 14.4867 56.8804C14.1059 56.3191 13.7537 55.7389 13.4317 55.1421C12.6025 53.5984 12.0218 51.9341 11.711 50.2104C11.092 46.774 11.5813 43.1783 13.5349 40.3357C13.5849 40.263 13.6344 40.1921 13.6863 40.12Z" fill="#F0F0F0"/>
<path d="M13.7852 40.1715C13.2962 44.5146 14.1911 48.901 16.3431 52.7077C16.8091 53.5204 17.3527 54.3044 18.0518 54.9359C18.7379 55.5462 19.5754 55.9621 20.4771 56.1403C21.3146 56.3233 22.1924 56.4137 22.9707 56.7966C23.791 57.2003 24.3334 57.9345 24.5846 58.8019C24.892 59.8632 24.7988 60.9714 24.6699 62.052C24.5268 63.2517 24.3591 64.4956 24.7662 65.664C24.8155 65.8056 24.5925 65.8736 24.5432 65.7323C23.835 63.6995 24.7949 61.5812 24.498 59.5091C24.3595 58.5422 23.928 57.611 23.0541 57.1051C22.29 56.6627 21.3848 56.5687 20.5353 56.3907C19.6433 56.2038 18.8315 55.8807 18.1198 55.3012C17.3918 54.7085 16.8163 53.9441 16.3315 53.1468C15.2457 51.3306 14.4529 49.3555 13.9821 47.2936C13.4317 44.9435 13.2883 42.5167 13.5581 40.1182C13.5749 39.9698 13.8019 40.0241 13.7852 40.1715V40.1715Z" fill="white"/>
<path d="M15.5783 51.5227C14.8891 51.7962 14.125 51.8164 13.4222 51.5796C12.7195 51.3429 12.124 50.8647 11.7421 50.2303C11.6653 50.1017 11.862 49.9765 11.9389 50.1053C12.2935 50.6967 12.8482 51.1421 13.503 51.3612C14.1579 51.5803 14.8696 51.5587 15.5099 51.3002C15.6491 51.2442 15.7167 51.467 15.5783 51.5227Z" fill="white"/>
<path d="M20.0404 56.1033C20.6528 54.7195 20.7198 53.1562 20.2283 51.7253C20.1794 51.5836 20.4025 51.5154 20.4512 51.657C20.96 53.147 20.8869 54.7737 20.2465 56.2123C20.1854 56.3494 19.9796 56.2396 20.0404 56.1033Z" fill="white"/>
<path d="M13.7366 44.9984C14.0253 44.948 14.297 44.8269 14.5272 44.6458C14.7575 44.4648 14.939 44.2295 15.0556 43.9612C15.115 43.8234 15.3207 43.9333 15.2617 44.0702C15.1315 44.3661 14.9307 44.6257 14.6767 44.8262C14.4228 45.0268 14.1235 45.1623 13.805 45.2209C13.7754 45.2289 13.7439 45.2254 13.7169 45.2111C13.6898 45.1968 13.6692 45.1727 13.6593 45.1438C13.6504 45.1143 13.6535 45.0825 13.668 45.0553C13.6824 45.028 13.7071 45.0076 13.7366 44.9984Z" fill="white"/>
<path d="M20.0498 34.7737C15.8023 30.602 14.0084 26.2499 14.9983 22.5192C16.2687 17.7316 21.9125 14.4214 30.4825 13.4374L30.5141 13.712C22.0634 14.6823 16.5058 17.9182 15.2661 22.5899C14.3027 26.2206 16.0706 30.4776 20.2442 34.5768L20.0498 34.7737Z" fill="#F0F0F0"/>
<path d="M61.0304 49.5818C55.7292 49.5818 49.9686 48.7958 44.2466 47.2845C37.1707 45.4156 30.6828 42.5947 25.4844 39.1266L25.6383 38.8969C30.8117 42.3482 37.2708 45.1562 44.3175 47.0173C50.6855 48.6994 57.1012 49.4787 62.8687 49.273L62.8787 49.5491C62.2696 49.571 61.6535 49.5819 61.0304 49.5818Z" fill="#F0F0F0"/>
<path d="M73.1921 47.8438L73.1034 47.582C77.8445 45.9827 80.8099 43.4064 81.679 40.1314C82.7837 35.9681 80.3837 31.1369 74.9211 26.5276C69.4306 21.895 61.5131 18.051 52.627 15.7041L52.6978 15.4369C61.6228 17.7942 69.5788 21.658 75.0999 26.3166C80.6488 30.9986 83.0805 35.9299 81.9468 40.2021C81.0529 43.571 78.0255 46.2134 73.1921 47.8438Z" fill="#F0F0F0"/>
<path d="M29.6579 49.6973C19.2414 45.0882 11.2148 39.1085 7.05664 32.8595L7.2874 32.7066C11.4168 38.9123 19.4013 44.8566 29.7701 49.4447L29.6579 49.6973Z" fill="#F0F0F0"/>
<path d="M66.2802 57.6822C65.2058 57.6822 64.1131 57.6583 63.002 57.6104L63.0139 57.3343C71.3057 57.6925 78.6217 56.7025 84.1724 54.4708L84.2761 54.7272C79.434 56.6737 73.2624 57.6822 66.2802 57.6822Z" fill="#F0F0F0"/>
<path d="M60.238 13.6852C58.5164 13.126 56.7455 12.6052 54.9746 12.1375C44.7839 9.44592 34.7663 8.49027 26.0044 9.3744L25.9766 9.09937C34.7711 8.21234 44.823 9.17028 55.0455 11.8703C56.8214 12.3394 58.5973 12.8616 60.3238 13.4224L60.238 13.6852Z" fill="#F0F0F0"/>
<path d="M13.5401 35.1882C9.29256 31.0166 7.49862 26.6645 8.48855 22.9338C9.75896 18.1462 15.4027 14.836 23.9727 13.8519L24.0044 14.1266C15.5537 15.0968 9.99601 18.3328 8.75638 23.0045C7.79296 26.6352 9.56086 30.8922 13.7344 34.9913L13.5401 35.1882Z" fill="#F0F0F0"/>
<path d="M54.5206 49.9964C49.2194 49.9964 43.4588 49.2104 37.7369 47.6991C30.6609 45.8302 24.173 43.0092 18.9746 39.5411L19.1285 39.3114C24.3019 42.7627 30.7611 45.5708 37.8077 47.4319C44.1757 49.1139 50.5914 49.8932 56.359 49.6876L56.369 49.9637C55.7599 49.9856 55.1437 49.9964 54.5206 49.9964Z" fill="#F0F0F0"/>
<path d="M66.6824 48.2583L66.5936 47.9965C71.3348 46.3972 74.3002 43.821 75.1693 40.546C76.274 36.3827 73.874 31.5514 68.4113 26.9422C62.9208 22.3096 55.0034 18.4656 46.1172 16.1186L46.1881 15.8514C55.1131 18.2087 63.069 22.0726 68.5901 26.7312C74.1391 31.4132 76.5707 36.3445 75.4371 40.6167C74.5431 43.9856 71.5158 46.628 66.6824 48.2583Z" fill="#F0F0F0"/>
<path d="M23.1481 50.1119C12.7317 45.5028 4.70503 39.523 0.546875 33.2741L0.777637 33.1212C4.90705 39.3269 12.8916 45.2712 23.2604 49.8592L23.1481 50.1119Z" fill="#F0F0F0"/>
<path d="M59.7705 58.0968C58.6961 58.0968 57.6033 58.0728 56.4922 58.025L56.5041 57.7489C64.7959 58.107 72.112 57.117 77.6627 54.8853L77.7663 55.1418C72.9242 57.0883 66.7527 58.0968 59.7705 58.0968Z" fill="#F0F0F0"/>
<path d="M53.7283 14.0998C52.0066 13.5405 50.2358 13.0198 48.4649 12.5521C38.2742 9.86049 28.2565 8.90484 19.4947 9.78897L19.4668 9.51394C28.2613 8.62691 38.3132 9.58485 48.5358 12.2849C50.3116 12.754 52.0875 13.2762 53.814 13.837L53.7283 14.0998Z" fill="#F0F0F0"/>
<path d="M26.2073 34.6215C25.6381 34.6222 25.0923 34.8481 24.6899 35.2496C24.2874 35.6512 24.061 36.1956 24.0603 36.7635C23.2441 42.7595 22.9715 48.8168 23.2458 54.8617C23.2621 55.2477 23.2802 55.6007 23.3012 55.9413C23.3316 56.5038 23.3703 57.0976 23.4161 57.7065C23.4424 58.0657 23.4701 58.426 23.5005 58.7851C23.5513 59.37 23.6072 59.9643 23.6667 60.5515C23.704 60.9102 23.7427 61.2707 23.7842 61.6296C23.8638 62.3347 23.9539 63.0575 24.0597 63.8393C24.0587 64.4087 24.2843 64.9551 24.687 65.3586C25.0898 65.762 25.6366 65.9893 26.2073 65.9905H62.22C62.7892 65.9899 63.3349 65.764 63.7374 65.3625C64.1399 64.9609 64.3663 64.4165 64.3669 63.8486L64.3686 63.8338C64.529 63.1046 64.6784 62.3616 64.8127 61.6252C64.8845 61.2369 64.9465 60.8843 65.0023 60.5472C65.1033 59.9334 65.1932 59.3394 65.2692 58.7816C65.3212 58.4071 65.3683 58.0445 65.409 57.7034C65.476 57.1451 65.5367 56.568 65.5944 55.9391C65.626 55.5973 65.6549 55.2443 65.683 54.8599V54.8598C66.1233 48.801 65.6805 42.7104 64.3685 36.7783L64.3669 36.7635C64.3663 36.1956 64.1399 35.6512 63.7374 35.2496C63.3349 34.848 62.7892 34.6222 62.22 34.6215L26.2073 34.6215Z" fill="#3F3D56"/>
<path d="M45.611 43.7913C37.8079 43.7913 29.5394 43.0839 18.7179 41.6687H18.7167C18.1557 41.6679 17.6147 41.4606 17.1975 41.0864C16.7803 40.7123 16.5161 40.1976 16.4557 39.6412C16.4459 39.5575 16.4411 39.4733 16.4415 39.3891V32.8942C16.4412 32.8803 16.4418 32.8664 16.4434 32.8526C16.4555 32.2559 16.7013 31.6875 17.128 31.2692C17.5547 30.8509 18.1286 30.6157 18.7269 30.6141C37.5541 28.0601 48.9909 28.0604 69.7073 30.6146H69.7083C70.3062 30.6185 70.8789 30.8556 71.3039 31.2752C71.7289 31.6948 71.9726 32.2636 71.9829 32.86C71.9841 32.8714 71.9845 32.8828 71.9842 32.8942V39.3891C71.9846 39.4735 71.9798 39.558 71.9699 39.6418C71.9086 40.1997 71.6428 40.7153 71.2236 41.0896C70.8044 41.4638 70.2613 41.6702 69.6988 41.6692C60.7484 43.0838 53.4122 43.7913 45.611 43.7913Z" fill="#6C63FF"/>
<path d="M46.8628 48.3023H42.1283C41.5257 48.3016 40.948 48.0625 40.5219 47.6374C40.0958 47.2123 39.8562 46.6359 39.8555 46.0347V28.8741C39.8562 28.273 40.0958 27.6966 40.5219 27.2715C40.948 26.8464 41.5257 26.6073 42.1283 26.6066H46.8628C47.4654 26.6072 48.0431 26.8464 48.4692 27.2715C48.8953 27.6966 49.135 28.2729 49.1357 28.8741V46.0347C49.135 46.6359 48.8953 47.2123 48.4692 47.6374C48.0431 48.0625 47.4654 48.3016 46.8628 48.3023Z" fill="#3F3D56"/>
<path d="M57.6117 23.3229C57.5774 23.0012 57.517 22.6827 57.4311 22.3708C57.3385 22.0582 57.2211 21.7534 57.0802 21.4593C56.5752 20.378 55.7233 19.4955 54.6592 18.9513C53.3386 18.3027 51.828 18.2497 50.4081 18.5622C49.2145 18.8289 48.0937 19.3524 47.124 20.0961C46.6212 20.4741 46.1618 20.9063 45.7543 21.385C45.3336 21.8886 44.551 23.2722 44.4946 23.4003C44.0521 22.3981 43.4172 21.492 42.6257 20.7332C41.7057 19.8619 40.6075 19.1998 39.4066 18.7922C38.7682 18.5776 38.1054 18.4432 37.4336 18.3921C36.7228 18.3331 36.0071 18.3954 35.3172 18.5763C34.078 18.9226 33.0062 19.7043 32.2994 20.7772C31.626 21.7744 31.2952 22.9628 31.3569 24.1636C31.391 24.7699 31.5221 25.3668 31.7451 25.9318C31.8646 26.2377 32.0064 26.5344 32.1693 26.8197C32.3378 27.1014 32.5263 27.3708 32.7332 27.6258C33.5452 28.62 34.639 29.3466 35.8715 29.7107C37.1873 30.1164 38.5831 30.1297 39.9362 29.9392C41.3257 29.7436 42.6632 29.2949 43.9719 28.8034C44.1464 28.7378 44.3203 28.6704 44.4944 28.6036C45.6578 29.0501 46.8311 29.4807 48.049 29.7541C49.4191 30.0842 50.841 30.1411 52.2332 29.9215C53.5308 29.709 54.7374 29.121 55.703 28.2305C56.5965 27.3916 57.2218 26.3082 57.5006 25.1162C57.6382 24.5289 57.6757 23.9226 57.6117 23.3229ZM39.5749 28.6042C38.8239 28.7002 38.064 28.7046 37.3119 28.6174C36.7729 28.5395 36.2448 28.3992 35.7383 28.1995C34.5443 27.7035 33.5926 26.7607 33.0868 25.5731C32.9356 25.1987 32.828 24.8083 32.7659 24.4095C32.7262 24.0546 32.726 23.6964 32.7656 23.3416C32.8245 22.9682 32.9255 22.6027 33.0665 22.2519C33.2191 21.9108 33.4085 21.5872 33.6314 21.2871C33.8476 21.0185 34.0919 20.7737 34.3601 20.5568C34.6144 20.3692 34.888 20.2092 35.1764 20.0796C35.5206 19.9455 35.8786 19.85 36.244 19.7947C36.7388 19.7401 37.2384 19.744 37.7323 19.8063C38.3201 19.8969 38.8954 20.0551 39.4466 20.2778C40.0329 20.5316 40.5871 20.854 41.0974 21.238C41.5695 21.6112 41.9975 22.0369 42.373 22.5068C42.7448 23.0002 43.0566 23.5358 43.3018 24.1025C43.5401 24.6937 43.7075 25.311 43.8006 25.9415L43.8016 25.9507C43.7653 26.2675 43.7472 26.5861 43.7472 26.9049C43.7475 27.0277 43.7529 27.1504 43.7591 27.273C43.7006 27.3292 43.6518 27.3947 43.6147 27.4668C42.6499 27.8444 41.6609 28.1573 40.6543 28.4034C40.2975 28.4856 39.9377 28.5525 39.5749 28.6042ZM56.2259 24.4094C56.1639 24.8083 56.0562 25.1988 55.905 25.5732C55.4017 26.7624 54.4492 27.706 53.2536 28.1995C52.7471 28.3992 52.219 28.5395 51.68 28.6174C50.9265 28.7048 50.1652 28.7002 49.4129 28.6037C48.0766 28.4131 46.7875 27.9923 45.5266 27.5226C45.4746 27.5033 45.4231 27.4829 45.3713 27.4634C45.3361 27.3924 45.2895 27.3276 45.2332 27.2717C45.2554 26.8268 45.2416 26.3808 45.1918 25.938C45.285 25.3088 45.4522 24.6927 45.6901 24.1025C45.9353 23.5358 46.2471 23.0002 46.6188 22.5069C46.9943 22.0369 47.4223 21.6112 47.8945 21.238C48.4048 20.854 48.9589 20.5316 49.5453 20.2778C50.0965 20.0551 50.6718 19.8969 51.2596 19.8063C51.7535 19.744 52.2531 19.7401 52.7479 19.7947C53.1132 19.85 53.4713 19.9455 53.8155 20.0796C54.1039 20.2092 54.3775 20.3692 54.6318 20.5569C54.9 20.7737 55.1443 21.0185 55.3605 21.2871C55.5834 21.5873 55.7728 21.9108 55.9254 22.2519C56.0664 22.6027 56.1674 22.9682 56.2263 23.3416C56.2658 23.6964 56.2657 24.0546 56.2259 24.4094Z" fill="#3F3D56"/>
<path d="M30.085 49.0623C30.544 49.0623 30.916 48.6911 30.916 48.2332C30.916 47.7753 30.544 47.4041 30.085 47.4041C29.626 47.4041 29.2539 47.7753 29.2539 48.2332C29.2539 48.6911 29.626 49.0623 30.085 49.0623Z" fill="#6C63FF"/>
<path d="M36.042 46.9895C36.501 46.9895 36.8731 46.6183 36.8731 46.1604C36.8731 45.7025 36.501 45.3312 36.042 45.3312C35.583 45.3312 35.2109 45.7025 35.2109 46.1604C35.2109 46.6183 35.583 46.9895 36.042 46.9895Z" fill="#6C63FF"/>
<path d="M33.4092 53.4844C33.8682 53.4844 34.2403 53.1132 34.2403 52.6553C34.2403 52.1974 33.8682 51.8261 33.4092 51.8261C32.9502 51.8261 32.5781 52.1974 32.5781 52.6553C32.5781 53.1132 32.9502 53.4844 33.4092 53.4844Z" fill="#6C63FF"/>
<path d="M58.0654 49.0623C58.5244 49.0623 58.8965 48.6911 58.8965 48.2332C58.8965 47.7753 58.5244 47.4041 58.0654 47.4041C57.6065 47.4041 57.2344 47.7753 57.2344 48.2332C57.2344 48.6911 57.6065 49.0623 58.0654 49.0623Z" fill="#6C63FF"/>
<path d="M52.1084 46.9895C52.5674 46.9895 52.9395 46.6183 52.9395 46.1604C52.9395 45.7025 52.5674 45.3312 52.1084 45.3312C51.6494 45.3312 51.2773 45.7025 51.2773 46.1604C51.2773 46.6183 51.6494 46.9895 52.1084 46.9895Z" fill="#6C63FF"/>
<path d="M54.7412 53.4844C55.2002 53.4844 55.5723 53.1132 55.5723 52.6553C55.5723 52.1974 55.2002 51.8261 54.7412 51.8261C54.2822 51.8261 53.9102 52.1974 53.9102 52.6553C53.9102 53.1132 54.2822 53.4844 54.7412 53.4844Z" fill="#6C63FF"/>
<path d="M58.7568 63.5722C59.2158 63.5722 59.5879 63.201 59.5879 62.7431C59.5879 62.2852 59.2158 61.914 58.7568 61.914C58.2979 61.914 57.9258 62.2852 57.9258 62.7431C57.9258 63.201 58.2979 63.5722 58.7568 63.5722Z" fill="#6C63FF"/>
<path d="M60.835 57.6301C61.294 57.6301 61.666 57.2589 61.666 56.801C61.666 56.343 61.294 55.9718 60.835 55.9718C60.376 55.9718 60.0039 56.343 60.0039 56.801C60.0039 57.2589 60.376 57.6301 60.835 57.6301Z" fill="#6C63FF"/>
<path d="M54.3252 60.2557C54.7842 60.2557 55.1562 59.8845 55.1562 59.4266C55.1562 58.9686 54.7842 58.5974 54.3252 58.5974C53.8662 58.5974 53.4941 58.9686 53.4941 59.4266C53.4941 59.8845 53.8662 60.2557 54.3252 60.2557Z" fill="#6C63FF"/>
<path d="M34.9326 63.5722C35.3916 63.5722 35.7637 63.201 35.7637 62.7431C35.7637 62.2852 35.3916 61.914 34.9326 61.914C34.4736 61.914 34.1016 62.2852 34.1016 62.7431C34.1016 63.201 34.4736 63.5722 34.9326 63.5722Z" fill="#6C63FF"/>
<path d="M37.0108 57.6301C37.4697 57.6301 37.8418 57.2589 37.8418 56.801C37.8418 56.343 37.4697 55.9718 37.0108 55.9718C36.5518 55.9718 36.1797 56.343 36.1797 56.801C36.1797 57.2589 36.5518 57.6301 37.0108 57.6301Z" fill="#6C63FF"/>
<path d="M30.501 60.2557C30.96 60.2557 31.3321 59.8845 31.3321 59.4266C31.3321 58.9686 30.96 58.5974 30.501 58.5974C30.042 58.5974 29.6699 58.9686 29.6699 59.4266C29.6699 59.8845 30.042 60.2557 30.501 60.2557Z" fill="#6C63FF"/>
<path d="M54.3784 5.01304C54.6931 5.1441 55.0363 5.1921 55.375 5.1524C55.7137 5.1127 56.0364 4.98666 56.3121 4.7864C57.0149 4.26343 57.2784 3.35054 57.4991 2.50412L58.151 0L57.0499 0.666938C56.2581 1.14647 55.4481 1.64189 54.8765 2.3699C54.3049 3.09791 54.0157 4.1181 54.3924 4.96291" fill="#F2F2F2"/>
<path d="M24.9302 26.4031C25.1427 26.1371 25.283 25.8209 25.3375 25.485C25.3919 25.1492 25.3588 24.805 25.2413 24.4856C24.9296 23.668 24.1218 23.1652 23.3663 22.7216L21.1309 21.4102L21.4722 22.6494C21.7176 23.5405 21.9733 24.4535 22.5186 25.2013C23.0639 25.9491 23.9681 26.506 24.8857 26.3759" fill="#F2F2F2"/>
<path d="M77.4262 64.958C77.6388 64.6919 77.779 64.3757 77.8335 64.0399C77.888 63.704 77.8549 63.3599 77.7374 63.0405C77.4257 62.2229 76.6179 61.72 75.8624 61.2765L73.627 59.9651L73.9683 61.2042C74.2137 62.0954 74.4694 63.0083 75.0147 63.7561C75.5599 64.504 76.4642 65.0608 77.3818 64.9308" fill="#F2F2F2"/>
<path d="M35.2096 16.0351C35.8216 16.0351 36.3177 15.5401 36.3177 14.9296C36.3177 14.319 35.8216 13.824 35.2096 13.824C34.5977 13.824 34.1016 14.319 34.1016 14.9296C34.1016 15.5401 34.5977 16.0351 35.2096 16.0351Z" fill="#FD6584"/>
<path d="M5.7077 48.6478C6.31967 48.6478 6.81578 48.1528 6.81578 47.5423C6.81578 46.9317 6.31967 46.4367 5.7077 46.4367C5.09572 46.4367 4.59961 46.9317 4.59961 47.5423C4.59961 48.1528 5.09572 48.6478 5.7077 48.6478Z" fill="#FD6584"/>
<path d="M81.8893 39.6655C82.5013 39.6655 82.9974 39.1705 82.9974 38.5599C82.9974 37.9494 82.5013 37.4544 81.8893 37.4544C81.2774 37.4544 80.7812 37.9494 80.7812 38.5599C80.7812 39.1705 81.2774 39.6655 81.8893 39.6655Z" fill="#FD6584"/>
<path d="M4.60027 20.8717C5.21225 20.8717 5.70836 20.3767 5.70836 19.7662C5.70836 19.1556 5.21225 18.6607 4.60027 18.6607C3.98829 18.6607 3.49219 19.1556 3.49219 19.7662C3.49219 20.3767 3.98829 20.8717 4.60027 20.8717Z" fill="#E6E6E6"/>
<path d="M73.1628 52.3789C73.7747 52.3789 74.2709 51.8839 74.2709 51.2734C74.2709 50.6628 73.7747 50.1679 73.1628 50.1679C72.5508 50.1679 72.0547 50.6628 72.0547 51.2734C72.0547 51.8839 72.5508 52.3789 73.1628 52.3789Z" fill="#E6E6E6"/>
<path d="M75.3776 18.7989C75.9896 18.7989 76.4857 18.3039 76.4857 17.6933C76.4857 17.0828 75.9896 16.5878 75.3776 16.5878C74.7656 16.5878 74.2695 17.0828 74.2695 17.6933C74.2695 18.3039 74.7656 18.7989 75.3776 18.7989Z" fill="#E6E6E6"/>
<path d="M26.7933 36.3816C26.6975 36.5327 26.4653 36.5108 26.3349 36.4163C26.1538 36.2851 26.2124 36.0324 26.3371 35.8831C26.7333 35.4085 27.3887 35.9095 27.4771 36.3808C27.5099 36.6106 27.4744 36.845 27.375 37.0548C27.2756 37.2647 27.1167 37.4408 26.9179 37.5614C26.4658 37.8287 25.8786 37.6946 25.4899 37.3747C24.6791 36.7075 24.8999 35.3714 25.8005 34.8887C26.3752 34.5806 27.1018 34.7158 27.668 34.9739C28.3054 35.2644 28.8534 35.7097 29.4428 36.0809C30.736 36.8885 32.1989 37.3869 33.7172 37.537C33.983 37.5641 33.9811 37.1493 33.7172 37.1224C32.8758 37.0357 32.0499 36.8373 31.2611 36.5324C30.4808 36.2169 29.7401 35.8113 29.0542 35.3239C28.3602 34.8494 27.6352 34.3883 26.7764 34.3099C26.4298 34.2695 26.0787 34.3214 25.7588 34.4603C25.4388 34.5992 25.1614 34.8202 24.9548 35.1007C24.771 35.3517 24.648 35.6418 24.5954 35.9482C24.5428 36.2546 24.562 36.569 24.6515 36.8667C24.7595 37.1781 24.9481 37.4554 25.1984 37.6703C25.4486 37.8852 25.7515 38.0302 26.0761 38.0904C26.3886 38.1493 26.7118 38.1095 27.0005 37.9764C27.2893 37.8433 27.5292 37.6236 27.6868 37.348C28.0029 36.8026 27.9926 36.0699 27.5151 35.6177C27.3783 35.4789 27.207 35.3788 27.0186 35.3277C26.8303 35.2766 26.6318 35.2763 26.4433 35.3269C26.2697 35.3854 26.1169 35.4931 26.0037 35.6369C25.8905 35.7807 25.8217 35.9543 25.8058 36.1364C25.7597 36.8444 26.7671 37.1985 27.1521 36.5908C27.2954 36.3646 26.936 36.1564 26.7933 36.3816L26.7933 36.3816Z" fill="#3F3D56"/>
<path d="M62.3276 36.3816C62.4233 36.5327 62.6556 36.5108 62.786 36.4163C62.967 36.2851 62.9084 36.0324 62.7838 35.8831C62.3875 35.4085 61.7322 35.9095 61.6438 36.3808C61.611 36.6106 61.6464 36.845 61.7458 37.0548C61.8452 37.2647 62.0042 37.4408 62.203 37.5614C62.6551 37.8287 63.2423 37.6946 63.631 37.3747C64.4418 36.7075 64.221 35.3714 63.3204 34.8887C62.7457 34.5806 62.019 34.7158 61.4529 34.9739C60.8155 35.2644 60.2675 35.7097 59.6781 36.0809C58.3849 36.8885 56.922 37.3869 55.4037 37.537C55.1379 37.5641 55.1398 37.1493 55.4037 37.1224C56.2451 37.0357 57.071 36.8373 57.8598 36.5324C58.6401 36.2169 59.3808 35.8113 60.0667 35.3239C60.7607 34.8494 61.4857 34.3883 62.3445 34.3099C62.6911 34.2695 63.0422 34.3214 63.3621 34.4603C63.6821 34.5992 63.9595 34.8202 64.1661 35.1007C64.3499 35.3517 64.4729 35.6418 64.5255 35.9482C64.5781 36.2546 64.5589 36.569 64.4693 36.8667C64.3614 37.1781 64.1727 37.4554 63.9225 37.6703C63.6723 37.8852 63.3694 38.0302 63.0448 38.0904C62.7322 38.1493 62.4091 38.1095 62.1203 37.9764C61.8316 37.8433 61.5917 37.6236 61.4341 37.348C61.118 36.8026 61.1283 36.0699 61.6057 35.6177C61.7426 35.4789 61.9139 35.3788 62.1022 35.3277C62.2905 35.2766 62.4891 35.2763 62.6775 35.3269C62.8512 35.3854 63.004 35.4931 63.1172 35.6369C63.2304 35.7807 63.2992 35.9543 63.3151 36.1364C63.3612 36.8444 62.3538 37.1985 61.9688 36.5908C61.8255 36.3646 62.1849 36.1564 62.3276 36.3816L62.3276 36.3816Z" fill="#3F3D56"/>
<path d="M12.3318 5.02495L11.7829 5.71197L9.8418 4.56638L10.3906 3.87936L12.3318 5.02495Z" fill="#E4E4E4"/>
<path d="M14.3576 7.9767L14.8423 8.69847L12.8031 9.71042L12.3184 8.98877L14.3576 7.9767Z" fill="#E4E4E4"/>
<path d="M16.4677 4.83892L17.4364 4.87316L17.3399 6.89538L16.3711 6.86127L16.4677 4.83892Z" fill="#E4E4E4"/>
<path d="M80.8943 47.3109L80.3454 47.9979L78.4043 46.8524L78.9532 46.1653L80.8943 47.3109Z" fill="#E4E4E4"/>
<path d="M82.9201 50.2627L83.4048 50.9844L81.3656 51.9964L80.8809 51.2746L82.9201 50.2627Z" fill="#E4E4E4"/>
<path d="M85.0321 47.1249L86.0008 47.1591L85.9044 49.1814L84.9355 49.1472L85.0321 47.1249Z" fill="#E4E4E4"/>
</g>
<defs>
<clipPath id="clip0_496_3447">
<rect width="86" height="66" fill="white"/>
</clipPath>
</defs>
</svg>
