<svg width="579" height="461" viewBox="0 0 579 461" fill="none" xmlns="http://www.w3.org/2000/svg">
<path d="M508.602 447.347L496.565 447.346L490.84 400.943L508.605 400.945L508.602 447.347Z" fill="#FFB6B6"/>
<path d="M509.026 459.897L472.011 459.896V459.428C472.012 451.476 478.462 445.029 486.418 445.029H486.419L493.18 439.902L505.795 445.03L509.026 445.03L509.026 459.897Z" fill="#2F2E41"/>
<path d="M455.24 447.347L443.203 447.346L437.477 400.943L455.242 400.945L455.24 447.347Z" fill="#FFB6B6"/>
<path d="M455.663 459.897L418.649 459.896V459.428C418.649 451.476 425.099 445.029 433.056 445.029H433.057L439.818 439.902L452.433 445.03L455.664 445.03L455.663 459.897Z" fill="#2F2E41"/>
<path d="M449.504 188.384L518.948 189.845C518.948 189.845 531.433 210.302 521.901 239.161L522.969 247.198L518.583 259.618L516.39 297.61L518.583 303.454L517.121 314.413C517.121 314.413 522.969 386.743 508.349 423.274L490.805 422.543L484.226 327.234L487.881 320.258L487.15 317.336L478.378 273.499L469.606 296.148V308.733L461.565 318.066C461.565 318.066 464.489 404.278 456.448 421.813H436.806L429.401 304.916L436.711 236.969L435.249 232.586L437.442 230.394L435.98 223.088L449.504 188.384L449.504 188.384Z" fill="#2F2E41"/>
<path d="M479.109 55.0482L500.308 49.934L506.156 63.8155C506.156 63.8155 536.412 79.8888 537.874 101.807C537.874 101.807 541.974 119.342 538.319 127.378C534.664 135.415 519.314 160.986 519.314 160.986C519.314 160.986 533.202 205.553 529.548 207.745C525.893 209.937 438.904 205.553 438.904 201.169C438.904 196.786 453.381 150.758 453.381 150.758L456.448 71.8522L476.185 64.5461L479.109 55.0482L479.109 55.0482V55.0482Z" fill="#FCFCFC"/>
<path d="M535.624 234.898C531.187 232.663 529.402 227.257 531.638 222.822C531.863 222.376 532.128 221.964 532.413 221.573L520.617 140.741L536.948 141.263L545.491 220.021C548.587 222.646 549.614 227.13 547.706 230.914C545.47 235.349 540.061 237.132 535.624 234.898H535.624Z" fill="#FFB6B6"/>
<path d="M380.668 196.748C378.881 192.114 381.191 186.91 385.827 185.125C386.294 184.945 386.767 184.818 387.241 184.719L432.81 116.907L444.56 128.255L397.974 192.347C398.505 196.37 396.252 200.382 392.297 201.905C387.661 203.691 382.454 201.382 380.668 196.748V196.748Z" fill="#FFB6B6"/>
<path d="M505.866 120.353C501.251 104.509 508.915 88.3448 525.425 88.4229C530.197 88.4455 533.904 89.8294 534.931 93.6603C538.528 107.068 540.489 127.308 540.489 127.308L544.755 148.857L542.171 153.331L547.558 167.773L544.945 174.605L544.38 209.494L531.222 208.763L516.724 182.166L511.181 178.871C511.181 178.871 515.632 135.867 506.778 123.486L505.865 120.353H505.866V120.353Z" fill="#FCFCFC"/>
<path d="M446.928 81.3614C454.622 66.7616 474.319 63.3033 486.14 74.8231C489.557 78.1527 491.262 81.7224 489.338 85.1913C482.605 97.3325 466.997 110.405 466.997 110.405L447.777 141.287L442.809 142.711L436.645 156.839L423.438 172.359L405.945 181.579L395.711 171.351L397.884 158.202L424.22 123.131C424.22 123.131 443.169 99.3019 445.407 84.2482L446.928 81.3614V81.3614V81.3614Z" fill="#FCFCFC"/>
<path d="M483.137 50.7781C483.621 50.8362 484.104 50.8799 484.584 50.9018C486.078 50.9837 487.554 50.8985 488.976 50.6575C493.298 49.9651 497.225 47.9192 500.255 44.9188C503.458 41.7528 505.65 37.5271 506.242 32.7165C507.63 21.3613 499.54 11.0175 488.179 9.63004C476.981 8.25443 466.773 16.0826 465.144 27.1771C465.118 27.3488 465.092 27.5134 465.073 27.6843C463.686 39.0468 471.768 49.3841 483.137 50.7781V50.7781V50.7781Z" fill="#FFB6B6"/>
<path d="M460.472 26.417C463.415 27.8716 468.224 23.2986 470.065 25.9297C470.365 25.3611 470.695 24.8112 471.021 24.2912C471.317 23.8258 471.739 22.8325 472.228 22.6624C471.61 24.1545 471.746 26.1752 472.388 27.9065C475.291 28.9907 479.091 26.5908 481.778 23.7522C485.997 19.3013 492.887 30.7148 491.258 36.6214C493.331 34.0913 497.829 35.5183 499.354 38.4113C500.877 41.2971 498.303 43.6092 497.752 46.8281L501.908 46.3006C504.53 43.7482 504.347 39.4471 506.506 36.4888C510.113 31.538 511.51 26.4865 508.799 21.377C506.394 16.8592 506.169 11.0122 501.757 8.40751C503.685 7.46549 496.829 8.93716 498.661 5.86721C500.5 2.80371 490.696 2.43188 490.057 4.07313C487.255 0.722163 484.43 -1.4872 480.984 1.19789C477.599 3.83958 477.95 6.6163 473.975 6.36746C472.11 6.25196 472.314 9.72769 471.206 11.243C470.103 12.7503 465.818 13.7179 465.61 13.5566C464.478 12.6716 460.627 20.2058 460.627 20.2058C460.627 20.2058 457.505 24.943 460.472 26.417H460.472Z" fill="#2F2E41"/>
<path d="M201.083 157.919C270.721 157.919 327.173 214.341 327.173 283.942C327.173 353.543 270.721 409.965 201.083 409.965C131.446 409.965 35.0698 340.959 74.9931 283.942C114.916 226.926 131.446 157.919 201.083 157.919Z" fill="#F2F2F2"/>
<path d="M369.846 163.914C368.715 163.914 367.795 164.833 367.795 165.963V231.536C367.795 232.666 368.715 233.585 369.846 233.585C370.976 233.585 371.896 232.666 371.896 231.536V165.963C371.896 164.833 370.976 163.914 369.846 163.914Z" fill="#FCFCFC"/>
<path d="M25.4044 114.734C24.2736 114.734 23.3541 115.653 23.3541 116.783V133.176C23.3541 134.307 24.2736 135.226 25.4044 135.226C26.5351 135.226 27.4546 134.307 27.4546 133.176V116.783C27.4546 115.653 26.5351 114.734 25.4044 114.734Z" fill="#FCFCFC"/>
<path d="M25.4044 163.914C24.2736 163.914 23.3541 164.833 23.3541 165.963V197.725C23.3541 198.855 24.2736 199.774 25.4044 199.774C26.5351 199.774 27.4546 198.855 27.4546 197.725V165.963C27.4546 164.833 26.5351 163.914 25.4044 163.914Z" fill="#FCFCFC"/>
<path d="M25.4044 208.995C24.2736 208.995 23.3541 209.914 23.3541 211.045V242.807C23.3541 243.937 24.2736 244.856 25.4044 244.856C26.5351 244.856 27.4546 243.937 27.4546 242.807V211.045C27.4546 209.914 26.5351 208.995 25.4044 208.995Z" fill="#FCFCFC"/>
<path d="M209.284 50.1855C208.154 50.1855 207.234 51.1046 207.234 52.2347V83.9967C207.234 85.1268 208.154 86.0458 209.284 86.0458C210.415 86.0458 211.335 85.1268 211.335 83.9967V52.2347C211.335 51.1046 210.415 50.1855 209.284 50.1855Z" fill="#FCFCFC"/>
<path d="M523.378 443.241C525.496 443.374 526.666 440.744 525.064 439.211L524.905 438.578C524.925 438.527 524.947 438.476 524.968 438.426C527.11 433.321 534.368 433.357 536.492 438.468C538.376 443.005 540.776 447.55 541.367 452.347C541.632 454.465 541.513 456.622 541.042 458.7C545.459 449.058 547.783 438.53 547.783 427.942C547.783 425.281 547.637 422.621 547.339 419.967C547.094 417.797 546.757 415.639 546.32 413.502C543.956 401.947 538.838 390.942 531.455 381.751C527.906 379.812 524.947 376.781 523.159 373.148C522.517 371.837 522.013 370.428 521.775 368.992C522.179 369.045 523.298 362.897 522.993 362.52C523.556 361.666 524.564 361.242 525.178 360.409C528.236 356.266 532.448 356.989 534.647 362.619C539.344 364.989 539.389 368.918 536.507 372.698C534.673 375.102 534.421 378.356 532.812 380.93C532.978 381.142 533.15 381.347 533.316 381.559C536.351 385.45 538.977 389.632 541.19 394.026C540.564 389.143 541.488 383.26 543.062 379.467C544.854 375.146 548.213 371.507 551.171 367.772C554.724 363.285 562.01 365.243 562.636 370.931C562.642 370.986 562.648 371.041 562.654 371.096C562.215 371.344 561.784 371.607 561.364 371.885C558.965 373.47 559.794 377.186 562.636 377.624L562.7 377.634C562.541 379.216 562.27 380.784 561.873 382.326C565.667 396.994 557.475 402.336 545.777 402.576C545.519 402.708 545.267 402.841 545.009 402.967C546.194 406.302 547.141 409.723 547.843 413.191C548.472 416.255 548.909 419.352 549.154 422.462C549.458 426.386 549.432 430.33 549.101 434.248L549.12 434.109C549.961 429.794 552.305 425.764 555.708 422.972C560.778 418.809 567.941 417.276 573.411 413.931C576.043 412.32 579.417 414.401 578.958 417.452L578.935 417.598C578.121 417.929 577.326 418.313 576.558 418.743C576.119 418.991 575.689 419.254 575.268 419.532C572.87 421.117 573.699 424.833 576.54 425.271L576.605 425.281C576.651 425.288 576.691 425.294 576.737 425.301C575.34 428.616 573.393 431.694 570.957 434.347C568.584 447.152 558.393 448.367 547.492 444.638H547.485C546.293 449.826 544.552 454.895 542.314 459.726H523.841C523.775 459.521 523.715 459.309 523.655 459.104C525.364 459.21 527.085 459.111 528.767 458.8C527.396 457.119 526.026 455.424 524.655 453.744C524.622 453.711 524.596 453.677 524.569 453.644C523.874 452.784 523.172 451.93 522.477 451.07L522.477 451.069C522.433 448.428 522.75 445.796 523.377 443.241L523.378 443.241L523.378 443.241H523.378Z" fill="#F2F2F2"/>
<path d="M0 459.781C0 460.457 0.543346 461 1.21996 461H577.636C578.313 461 578.856 460.457 578.856 459.781C578.856 459.105 578.313 458.562 577.636 458.562H1.21996C0.543346 458.562 0 459.105 0 459.781Z" fill="#CCCCCC"/>
<path d="M145.953 275.447H74.9932V273.398H145.953C152.117 273.398 157.132 268.385 157.132 262.224V214.271H159.182V262.224C159.182 269.515 153.248 275.447 145.953 275.447H145.953Z" fill="#6C63FF"/>
<path d="M281.35 379.396H119.959V381.445H281.35V379.396Z" fill="#6C63FF"/>
<path d="M383.748 261.745H297.543C292.891 261.745 289.106 257.963 289.106 253.313V168.205C289.106 163.556 292.891 159.773 297.543 159.773H383.748C388.4 159.773 392.184 163.556 392.184 168.205V253.313C392.184 257.963 388.4 261.745 383.748 261.745Z" fill="#E6E6E6"/>
<path d="M313.597 162.285C301.46 162.285 291.62 172.12 291.62 184.251V251.507C291.62 255.774 295.081 259.233 299.35 259.233H352.061C372.832 259.233 389.671 242.404 389.671 221.644V170.011C389.671 165.744 386.21 162.285 381.941 162.285H313.597V162.285Z" fill="white"/>
<path d="M363.733 187.018H317.377C316.492 187.018 315.773 186.299 315.773 185.415C315.773 184.531 316.492 183.812 317.377 183.812H363.733C364.618 183.812 365.337 184.531 365.337 185.415C365.337 186.299 364.618 187.018 363.733 187.018Z" fill="#E6E6E6"/>
<path d="M363.733 221.202H317.377C316.492 221.202 315.773 220.482 315.773 219.599C315.773 218.715 316.492 217.996 317.377 217.996H363.733C364.618 217.996 365.337 218.715 365.337 219.599C365.337 220.482 364.618 221.202 363.733 221.202Z" fill="#E6E6E6"/>
<path d="M382.558 204.121H298.552C297.668 204.121 296.948 203.402 296.948 202.518C296.948 201.634 297.668 200.915 298.552 200.915H382.558C383.442 200.915 384.162 201.634 384.162 202.518C384.162 203.402 383.442 204.121 382.558 204.121Z" fill="#E6E6E6"/>
<path d="M383.416 235.101H353.068C352.184 235.101 351.464 234.382 351.464 233.498C351.464 232.614 352.184 231.895 353.068 231.895H383.416C384.3 231.895 385.019 232.614 385.019 233.498C385.019 234.382 384.3 235.101 383.416 235.101Z" fill="#E6E6E6"/>
<path d="M202.678 431.317H134.226C130.532 431.317 127.527 428.314 127.527 424.622V357.041C127.527 353.348 130.532 350.345 134.226 350.345H202.678C206.372 350.345 209.378 353.348 209.378 357.041V424.622C209.378 428.314 206.372 431.317 202.678 431.317H202.678Z" fill="#E6E6E6"/>
<path d="M146.974 352.34C137.336 352.34 129.523 360.149 129.523 369.782V423.188C129.523 426.576 132.271 429.323 135.661 429.323H177.517C194.011 429.323 207.382 415.959 207.382 399.474V358.474C207.382 355.086 204.634 352.34 201.244 352.34H146.974L146.974 352.34H146.974Z" fill="white"/>
<path d="M186.786 371.979H149.975C149.273 371.979 148.702 371.408 148.702 370.706C148.702 370.004 149.273 369.433 149.975 369.433H186.786C187.488 369.433 188.059 370.004 188.059 370.706C188.059 371.408 187.488 371.979 186.786 371.979Z" fill="#E6E6E6"/>
<path d="M186.786 399.123H149.975C149.273 399.123 148.702 398.552 148.702 397.85C148.702 397.148 149.273 396.578 149.975 396.578H186.786C187.488 396.578 188.059 397.148 188.059 397.85C188.059 398.552 187.488 399.123 186.786 399.123Z" fill="#E6E6E6"/>
<path d="M201.734 385.56H135.027C134.325 385.56 133.754 384.989 133.754 384.287C133.754 383.585 134.325 383.014 135.027 383.014H201.734C202.436 383.014 203.007 383.585 203.007 384.287C203.007 384.989 202.436 385.56 201.734 385.56Z" fill="#E6E6E6"/>
<path d="M202.415 410.16H178.317C177.615 410.16 177.043 409.589 177.043 408.887C177.043 408.185 177.615 407.614 178.317 407.614H202.415C203.117 407.614 203.688 408.185 203.688 408.887C203.688 409.589 203.117 410.16 202.415 410.16Z" fill="#E6E6E6"/>
<path d="M154.835 213.754H104.211C101.479 213.754 99.2568 211.532 99.2568 208.802V158.822C99.2568 156.092 101.479 153.871 104.211 153.871H154.835C157.567 153.871 159.789 156.092 159.789 158.822V208.802C159.789 211.532 157.567 213.754 154.835 213.754Z" fill="#E6E6E6"/>
<path d="M113.639 155.346C106.511 155.346 100.733 161.121 100.733 168.245V207.741C100.733 210.247 102.765 212.278 105.272 212.278H136.227C148.425 212.278 158.313 202.395 158.313 190.204V159.883C158.313 157.377 156.281 155.346 153.774 155.346H113.639V155.346L113.639 155.346Z" fill="white"/>
<path d="M143.081 169.87H115.858C115.339 169.87 114.917 169.448 114.917 168.929C114.917 168.41 115.339 167.988 115.858 167.988H143.081C143.601 167.988 144.023 168.41 144.023 168.929C144.023 169.448 143.601 169.87 143.081 169.87Z" fill="#E6E6E6"/>
<path d="M143.081 189.945H115.858C115.339 189.945 114.917 189.522 114.917 189.003C114.917 188.484 115.339 188.062 115.858 188.062H143.081C143.601 188.062 144.023 188.484 144.023 189.003C144.023 189.522 143.601 189.945 143.081 189.945Z" fill="#E6E6E6"/>
<path d="M154.136 179.914H104.804C104.285 179.914 103.862 179.492 103.862 178.973C103.862 178.453 104.285 178.031 104.804 178.031H154.136C154.655 178.031 155.078 178.453 155.078 178.973C155.078 179.492 154.655 179.914 154.136 179.914Z" fill="#E6E6E6"/>
<path d="M154.64 198.107H136.818C136.299 198.107 135.876 197.684 135.876 197.165C135.876 196.646 136.299 196.224 136.818 196.224H154.64C155.159 196.224 155.581 196.646 155.581 197.165C155.581 197.684 155.159 198.107 154.64 198.107Z" fill="#E6E6E6"/>
<path d="M302.57 276.77C308.232 276.77 312.822 272.183 312.822 266.524C312.822 260.866 308.232 256.278 302.57 256.278C296.909 256.278 292.319 260.866 292.319 266.524C292.319 272.183 296.909 276.77 302.57 276.77Z" fill="#6C63FF"/>
<path d="M158.028 224.516C163.69 224.516 168.279 219.929 168.279 214.271C168.279 208.612 163.69 204.025 158.028 204.025C152.366 204.025 147.777 208.612 147.777 214.271C147.777 219.929 152.366 224.516 158.028 224.516Z" fill="#6C63FF"/>
<path d="M207.234 364.884C212.896 364.884 217.485 360.297 217.485 354.638C217.485 348.979 212.896 344.392 207.234 344.392C201.572 344.392 196.983 348.979 196.983 354.638C196.983 360.297 201.572 364.884 207.234 364.884Z" fill="#6C63FF"/>
<path d="M229.378 80.7909C236.434 80.7909 242.154 75.1942 242.154 68.2904C242.154 61.3865 236.434 55.7898 229.378 55.7898C222.322 55.7898 216.601 61.3865 216.601 68.2904C216.601 75.1942 222.322 80.7909 229.378 80.7909Z" fill="#F2F2F2"/>
<path d="M331.801 64.0138H263.03C260.671 64.0138 258.752 62.0953 258.752 59.7373C258.752 57.3793 260.671 55.4608 263.03 55.4608H331.801C334.16 55.4608 336.079 57.3793 336.079 59.7373C336.079 62.0953 334.16 64.0138 331.801 64.0138Z" fill="#F2F2F2"/>
<path d="M385.469 78.4882H263.03C260.671 78.4882 258.752 76.5697 258.752 74.2117C258.752 71.8537 260.671 69.9352 263.03 69.9352H385.469C387.829 69.9352 389.748 71.8537 389.748 74.2117C389.748 76.5697 387.829 78.4882 385.469 78.4882Z" fill="#F2F2F2"/>
<path d="M44.4484 133.329C49.0151 133.329 52.7171 129.707 52.7171 125.239C52.7171 120.771 49.0151 117.148 44.4484 117.148C39.8817 117.148 36.1797 120.771 36.1797 125.239C36.1797 129.707 39.8817 133.329 44.4484 133.329Z" fill="#F2F2F2"/>
<path d="M110.735 122.471H66.2279C64.701 122.471 63.4587 121.229 63.4587 119.703C63.4587 118.177 64.701 116.936 66.2279 116.936H110.735C112.262 116.936 113.504 118.177 113.504 119.703C113.504 121.229 112.262 122.471 110.735 122.471H110.735Z" fill="#F2F2F2"/>
<path d="M145.469 131.839H66.2279C64.701 131.839 63.4587 130.597 63.4587 129.071C63.4587 127.545 64.701 126.303 66.2279 126.303H145.469C146.995 126.303 148.238 127.545 148.238 129.071C148.238 130.597 146.995 131.839 145.469 131.839Z" fill="#F2F2F2"/>
<path d="M292.528 421.236C297.095 421.236 300.797 417.614 300.797 413.145C300.797 408.677 297.095 405.055 292.528 405.055C287.962 405.055 284.26 408.677 284.26 413.145C284.26 417.614 287.962 421.236 292.528 421.236Z" fill="#F2F2F2"/>
<path d="M358.815 410.378H314.308C312.781 410.378 311.539 409.136 311.539 407.61C311.539 406.084 312.781 404.842 314.308 404.842H358.815C360.342 404.842 361.584 406.084 361.584 407.61C361.584 409.136 360.342 410.378 358.815 410.378Z" fill="#F2F2F2"/>
<path d="M393.548 419.745H314.308C312.781 419.745 311.539 418.504 311.539 416.978C311.539 415.452 312.781 414.21 314.308 414.21H393.548C395.075 414.21 396.318 415.452 396.318 416.978C396.318 418.504 395.075 419.745 393.548 419.745Z" fill="#F2F2F2"/>
<path d="M193.138 159.804H191.088V257.139H193.138V159.804Z" fill="#E6E6E6"/>
<path d="M192.113 263.287C195.51 263.287 198.264 260.534 198.264 257.139C198.264 253.744 195.51 250.992 192.113 250.992C188.716 250.992 185.963 253.744 185.963 257.139C185.963 260.534 188.716 263.287 192.113 263.287Z" fill="#E6E6E6"/>
<path d="M285.4 333.983C288.796 333.983 291.55 331.23 291.55 327.835C291.55 324.44 288.796 321.688 285.4 321.688C282.003 321.688 279.249 324.44 279.249 327.835C279.249 331.23 282.003 333.983 285.4 333.983Z" fill="#E6E6E6"/>
<path d="M119.33 249.967C122.727 249.967 125.48 247.215 125.48 243.82C125.48 240.424 122.727 237.672 119.33 237.672C115.933 237.672 113.179 240.424 113.179 243.82C113.179 247.215 115.933 249.967 119.33 249.967Z" fill="#E6E6E6"/>
<path d="M117.057 243.829L83.4193 244.847L83.4814 246.896L117.119 245.878L117.057 243.829Z" fill="#E6E6E6"/>
<path d="M335.437 351.369H284.431V327.835H286.481V349.32H335.437V351.369Z" fill="#E6E6E6"/>
<path d="M116.805 317.092C120.202 317.092 122.956 314.34 122.956 310.945C122.956 307.55 120.202 304.798 116.805 304.798C113.408 304.798 110.654 307.55 110.654 310.945C110.654 314.34 113.408 317.092 116.805 317.092Z" fill="#E6E6E6"/>
<path d="M166.235 334.479H115.229V310.945H117.279V332.43H166.235V334.479Z" fill="#E6E6E6"/>
<path d="M322.304 287.553H77.3175V289.602H322.304V287.553Z" fill="#E6E6E6"/>
</svg>
