<svg width="250" height="107" viewBox="0 0 250 107" fill="none" xmlns="http://www.w3.org/2000/svg">
<path d="M92.08 18.152V35H87.976V28.064H81.592V35H77.488V18.152H81.592V24.752H87.976V18.152H92.08ZM103.635 35L100.131 28.64H99.1467V35H95.0427V18.152H101.931C103.259 18.152 104.387 18.384 105.315 18.848C106.259 19.312 106.963 19.952 107.427 20.768C107.891 21.568 108.123 22.464 108.123 23.456C108.123 24.576 107.803 25.576 107.163 26.456C106.539 27.336 105.611 27.96 104.379 28.328L108.267 35H103.635ZM99.1467 25.736H101.691C102.443 25.736 103.003 25.552 103.371 25.184C103.755 24.816 103.947 24.296 103.947 23.624C103.947 22.984 103.755 22.48 103.371 22.112C103.003 21.744 102.443 21.56 101.691 21.56H99.1467V25.736ZM134.865 18.152V35H130.761V24.896L126.993 35H123.681L119.889 24.872V35H115.785V18.152H120.633L125.361 29.816L130.041 18.152H134.865ZM148.784 18.152V21.44H141.92V24.992H147.056V28.184H141.92V35H137.816V18.152H148.784ZM162.123 35.168C160.891 35.168 159.787 34.968 158.811 34.568C157.835 34.168 157.051 33.576 156.459 32.792C155.883 32.008 155.579 31.064 155.547 29.96H159.915C159.979 30.584 160.195 31.064 160.563 31.4C160.931 31.72 161.411 31.88 162.003 31.88C162.611 31.88 163.091 31.744 163.443 31.472C163.795 31.184 163.971 30.792 163.971 30.296C163.971 29.88 163.827 29.536 163.539 29.264C163.267 28.992 162.923 28.768 162.507 28.592C162.107 28.416 161.531 28.216 160.779 27.992C159.691 27.656 158.803 27.32 158.115 26.984C157.427 26.648 156.835 26.152 156.339 25.496C155.843 24.84 155.595 23.984 155.595 22.928C155.595 21.36 156.163 20.136 157.299 19.256C158.435 18.36 159.915 17.912 161.739 17.912C163.595 17.912 165.091 18.36 166.227 19.256C167.363 20.136 167.971 21.368 168.051 22.952H163.611C163.579 22.408 163.379 21.984 163.011 21.68C162.643 21.36 162.171 21.2 161.595 21.2C161.099 21.2 160.699 21.336 160.395 21.608C160.091 21.864 159.939 22.24 159.939 22.736C159.939 23.28 160.195 23.704 160.707 24.008C161.219 24.312 162.019 24.64 163.107 24.992C164.195 25.36 165.075 25.712 165.747 26.048C166.435 26.384 167.027 26.872 167.523 27.512C168.019 28.152 168.267 28.976 168.267 29.984C168.267 30.944 168.019 31.816 167.523 32.6C167.043 33.384 166.339 34.008 165.411 34.472C164.483 34.936 163.387 35.168 162.123 35.168ZM185.241 18.152L179.409 29.432V35H175.305V29.432L169.473 18.152H174.129L177.393 25.208L180.633 18.152H185.241ZM192.99 35.168C191.758 35.168 190.654 34.968 189.678 34.568C188.702 34.168 187.918 33.576 187.326 32.792C186.75 32.008 186.446 31.064 186.414 29.96H190.782C190.846 30.584 191.062 31.064 191.43 31.4C191.798 31.72 192.278 31.88 192.87 31.88C193.478 31.88 193.958 31.744 194.31 31.472C194.662 31.184 194.838 30.792 194.838 30.296C194.838 29.88 194.694 29.536 194.406 29.264C194.134 28.992 193.79 28.768 193.374 28.592C192.974 28.416 192.398 28.216 191.646 27.992C190.558 27.656 189.67 27.32 188.982 26.984C188.294 26.648 187.702 26.152 187.206 25.496C186.71 24.84 186.462 23.984 186.462 22.928C186.462 21.36 187.03 20.136 188.166 19.256C189.302 18.36 190.782 17.912 192.606 17.912C194.462 17.912 195.958 18.36 197.094 19.256C198.23 20.136 198.838 21.368 198.918 22.952H194.478C194.446 22.408 194.246 21.984 193.878 21.68C193.51 21.36 193.038 21.2 192.462 21.2C191.966 21.2 191.566 21.336 191.262 21.608C190.958 21.864 190.806 22.24 190.806 22.736C190.806 23.28 191.062 23.704 191.574 24.008C192.086 24.312 192.886 24.64 193.974 24.992C195.062 25.36 195.942 25.712 196.614 26.048C197.302 26.384 197.894 26.872 198.39 27.512C198.886 28.152 199.134 28.976 199.134 29.984C199.134 30.944 198.886 31.816 198.39 32.6C197.91 33.384 197.206 34.008 196.278 34.472C195.35 34.936 194.254 35.168 192.99 35.168ZM213.78 18.152V21.44H209.316V35H205.212V21.44H200.748V18.152H213.78ZM219.944 21.44V24.848H225.44V28.016H219.944V31.712H226.16V35H215.84V18.152H226.16V21.44H219.944ZM247.904 18.152V35H243.8V24.896L240.032 35H236.72L232.928 24.872V35H228.824V18.152H233.672L238.4 29.816L243.08 18.152H247.904Z" fill="white"/>
<rect width="54" height="54" rx="14" fill="white"/>
<path d="M23 22C23 20.8954 23.8954 20 25 20H30C31.1046 20 32 20.8954 32 22V40C32 41.1046 31.1046 42 30 42H25C23.8954 42 23 41.1046 23 40V22Z" fill="#2C46CC"/>
<path d="M36 26C36 24.8954 36.8954 24 38 24H41C42.1046 24 43 24.8954 43 26V36.4C43 39.4928 40.4928 42 37.4 42C36.6268 42 36 41.3732 36 40.6V26Z" fill="#2D47CD"/>
<circle cx="39.5" cy="18.5" r="3.5" fill="#2D47CD"/>
<path d="M19 26C19 24.8954 18.1046 24 17 24H14C12.8954 24 12 24.8954 12 26V36.4C12 39.4928 14.5072 42 17.6 42C18.3732 42 19 41.3732 19 40.6V26Z" fill="#2D47CD"/>
<circle cx="15.5" cy="18.5" r="3.5" fill="#2D47CD"/>
<circle cx="22.5" cy="102.5" r="4.5" fill="#2C46CC"/>
<circle cx="27.5" cy="13.5" r="4.5" fill="#2B45CB"/>
</svg>
