<svg width="240" height="54" viewBox="0 0 240 54" fill="none" xmlns="http://www.w3.org/2000/svg">
<path d="M82.08 18.152V35H77.976V28.064H71.592V35H67.488V18.152H71.592V24.752H77.976V18.152H82.08ZM93.6347 35L90.1307 28.64H89.1467V35H85.0427V18.152H91.9307C93.2587 18.152 94.3867 18.384 95.3147 18.848C96.2587 19.312 96.9627 19.952 97.4267 20.768C97.8907 21.568 98.1227 22.464 98.1227 23.456C98.1227 24.576 97.8027 25.576 97.1627 26.456C96.5387 27.336 95.6107 27.96 94.3787 28.328L98.2667 35H93.6347ZM89.1467 25.736H91.6907C92.4427 25.736 93.0027 25.552 93.3707 25.184C93.7547 24.816 93.9467 24.296 93.9467 23.624C93.9467 22.984 93.7547 22.48 93.3707 22.112C93.0027 21.744 92.4427 21.56 91.6907 21.56H89.1467V25.736ZM124.865 18.152V35H120.761V24.896L116.993 35H113.681L109.889 24.872V35H105.785V18.152H110.633L115.361 29.816L120.041 18.152H124.865ZM138.784 18.152V21.44H131.92V24.992H137.056V28.184H131.92V35H127.816V18.152H138.784ZM152.123 35.168C150.891 35.168 149.787 34.968 148.811 34.568C147.835 34.168 147.051 33.576 146.459 32.792C145.883 32.008 145.579 31.064 145.547 29.96H149.915C149.979 30.584 150.195 31.064 150.563 31.4C150.931 31.72 151.411 31.88 152.003 31.88C152.611 31.88 153.091 31.744 153.443 31.472C153.795 31.184 153.971 30.792 153.971 30.296C153.971 29.88 153.827 29.536 153.539 29.264C153.267 28.992 152.923 28.768 152.507 28.592C152.107 28.416 151.531 28.216 150.779 27.992C149.691 27.656 148.803 27.32 148.115 26.984C147.427 26.648 146.835 26.152 146.339 25.496C145.843 24.84 145.595 23.984 145.595 22.928C145.595 21.36 146.163 20.136 147.299 19.256C148.435 18.36 149.915 17.912 151.739 17.912C153.595 17.912 155.091 18.36 156.227 19.256C157.363 20.136 157.971 21.368 158.051 22.952H153.611C153.579 22.408 153.379 21.984 153.011 21.68C152.643 21.36 152.171 21.2 151.595 21.2C151.099 21.2 150.699 21.336 150.395 21.608C150.091 21.864 149.939 22.24 149.939 22.736C149.939 23.28 150.195 23.704 150.707 24.008C151.219 24.312 152.019 24.64 153.107 24.992C154.195 25.36 155.075 25.712 155.747 26.048C156.435 26.384 157.027 26.872 157.523 27.512C158.019 28.152 158.267 28.976 158.267 29.984C158.267 30.944 158.019 31.816 157.523 32.6C157.043 33.384 156.339 34.008 155.411 34.472C154.483 34.936 153.387 35.168 152.123 35.168ZM175.241 18.152L169.409 29.432V35H165.305V29.432L159.473 18.152H164.129L167.393 25.208L170.633 18.152H175.241ZM182.99 35.168C181.758 35.168 180.654 34.968 179.678 34.568C178.702 34.168 177.918 33.576 177.326 32.792C176.75 32.008 176.446 31.064 176.414 29.96H180.782C180.846 30.584 181.062 31.064 181.43 31.4C181.798 31.72 182.278 31.88 182.87 31.88C183.478 31.88 183.958 31.744 184.31 31.472C184.662 31.184 184.838 30.792 184.838 30.296C184.838 29.88 184.694 29.536 184.406 29.264C184.134 28.992 183.79 28.768 183.374 28.592C182.974 28.416 182.398 28.216 181.646 27.992C180.558 27.656 179.67 27.32 178.982 26.984C178.294 26.648 177.702 26.152 177.206 25.496C176.71 24.84 176.462 23.984 176.462 22.928C176.462 21.36 177.03 20.136 178.166 19.256C179.302 18.36 180.782 17.912 182.606 17.912C184.462 17.912 185.958 18.36 187.094 19.256C188.23 20.136 188.838 21.368 188.918 22.952H184.478C184.446 22.408 184.246 21.984 183.878 21.68C183.51 21.36 183.038 21.2 182.462 21.2C181.966 21.2 181.566 21.336 181.262 21.608C180.958 21.864 180.806 22.24 180.806 22.736C180.806 23.28 181.062 23.704 181.574 24.008C182.086 24.312 182.886 24.64 183.974 24.992C185.062 25.36 185.942 25.712 186.614 26.048C187.302 26.384 187.894 26.872 188.39 27.512C188.886 28.152 189.134 28.976 189.134 29.984C189.134 30.944 188.886 31.816 188.39 32.6C187.91 33.384 187.206 34.008 186.278 34.472C185.35 34.936 184.254 35.168 182.99 35.168ZM203.78 18.152V21.44H199.316V35H195.212V21.44H190.748V18.152H203.78ZM209.944 21.44V24.848H215.44V28.016H209.944V31.712H216.16V35H205.84V18.152H216.16V21.44H209.944ZM237.904 18.152V35H233.8V24.896L230.032 35H226.72L222.928 24.872V35H218.824V18.152H223.672L228.4 29.816L233.08 18.152H237.904Z" fill="#202020"/>
<rect width="54" height="54" rx="14" fill="url(#paint0_linear_3_1405)"/>
<path d="M23 22C23 20.8954 23.8954 20 25 20H30C31.1046 20 32 20.8954 32 22V40C32 41.1046 31.1046 42 30 42H25C23.8954 42 23 41.1046 23 40V22Z" fill="white"/>
<path d="M36 26C36 24.8954 36.8954 24 38 24H41C42.1046 24 43 24.8954 43 26V36.4C43 39.4928 40.4928 42 37.4 42C36.6268 42 36 41.3732 36 40.6V26Z" fill="white" fill-opacity="0.6"/>
<circle cx="39.5" cy="18.5" r="3.5" fill="white" fill-opacity="0.6"/>
<path d="M19 26C19 24.8954 18.1046 24 17 24H14C12.8954 24 12 24.8954 12 26V36.4C12 39.4928 14.5072 42 17.6 42C18.3732 42 19 41.3732 19 40.6V26Z" fill="white" fill-opacity="0.6"/>
<circle cx="15.5" cy="18.5" r="3.5" fill="white" fill-opacity="0.6"/>
<circle cx="27.5" cy="13.5" r="4.5" fill="white"/>
<defs>
<linearGradient id="paint0_linear_3_1405" x1="27" y1="0" x2="45.6923" y2="64.9038" gradientUnits="userSpaceOnUse">
<stop stop-color="#2842C8"/>
<stop offset="0.9999" stop-color="#5775FC"/>
<stop offset="1" stop-color="#A827E4"/>
</linearGradient>
</defs>
</svg>
