<svg width="455" height="508" viewBox="0 0 455 508" fill="none" xmlns="http://www.w3.org/2000/svg">
<g clip-path="url(#clip0_598_4007)">
<path d="M433.596 478.82C430.759 479.818 427.714 480.067 424.753 479.546C421.792 479.024 419.016 477.749 416.691 475.842C410.77 470.871 408.912 462.682 407.403 455.099L402.936 432.669L412.289 439.112C419.016 443.745 425.893 448.526 430.551 455.236C435.208 461.947 437.241 471.108 433.499 478.368" fill="#E6E6E6"/>
<path d="M432.796 505.975C433.743 499.078 434.716 492.092 434.052 485.12C433.462 478.929 431.574 472.882 427.729 467.923C425.689 465.296 423.205 463.046 420.391 461.272C419.657 460.81 418.982 461.973 419.713 462.433C424.582 465.511 428.347 470.056 430.468 475.413C432.809 481.37 433.185 487.864 432.778 494.192C432.534 498.018 432.017 501.819 431.496 505.617C431.454 505.789 431.479 505.97 431.566 506.124C431.654 506.278 431.797 506.393 431.966 506.445C432.138 506.491 432.321 506.468 432.476 506.38C432.631 506.292 432.745 506.146 432.793 505.975L432.796 505.975Z" fill="#F2F2F2"/>
<path d="M398.897 391.411H7.5874V0H398.897V391.411Z" fill="white"/>
<path d="M398.897 391.411H7.5874V0H398.897V391.411ZM13.3689 385.628H393.115V5.78307H13.3689V385.628Z" fill="#E5E5E5"/>
<path d="M329.575 61.2363H160.122V66.5163H329.575V61.2363Z" fill="#E5E5E5"/>
<path d="M329.575 74.9644H160.122V80.2443H329.575V74.9644Z" fill="#E5E5E5"/>
<path d="M329.575 88.6919H160.122V93.9718H329.575V88.6919Z" fill="#E5E5E5"/>
<path d="M329.575 179.114H160.122V184.394H329.575V179.114Z" fill="#E5E5E5"/>
<path d="M329.575 192.842H160.122V198.122H329.575V192.842Z" fill="#E5E5E5"/>
<path d="M329.575 206.57H160.122V211.85H329.575V206.57Z" fill="#E5E5E5"/>
<path d="M329.575 296.992H160.122V302.272H329.575V296.992Z" fill="#E5E5E5"/>
<path d="M329.575 310.72H160.122V316H329.575V310.72Z" fill="#E5E5E5"/>
<path d="M329.575 324.448H160.122V329.728H329.575V324.448Z" fill="#E5E5E5"/>
<path d="M92.2858 103.304C89.3909 101.778 86.3693 100.506 83.2547 99.5026L82.8577 95.1083L66.7513 93.3726L64.7043 98.9893L58.9241 101.159C58.7173 101.237 58.5204 101.34 58.3376 101.465H58.3313C58.0087 101.683 57.734 101.964 57.5239 102.292C57.3138 102.62 57.1727 102.987 57.1093 103.371C57.0475 103.753 57.0622 104.144 57.1522 104.52L57.4577 105.773C57.8975 106.036 58.3498 106.287 58.8018 106.525L59.0891 106.672C59.7491 107.014 60.4212 107.338 61.1116 107.637C61.2521 107.699 61.4049 107.76 61.5454 107.821C61.5576 107.827 61.5636 107.827 61.5759 107.833C61.8999 107.967 62.2236 108.096 62.5535 108.218C63.6374 108.632 64.7429 108.987 65.8652 109.281C68.7295 110.045 71.6813 110.431 74.6456 110.43C75.7271 110.43 76.7964 110.382 77.8534 110.278C80.2687 110.055 82.6532 109.573 84.9658 108.841C84.9718 108.841 84.978 108.835 84.984 108.835C86.4449 108.37 87.872 107.804 89.2551 107.142C89.2611 107.136 89.2733 107.136 89.2796 107.13C89.5911 106.983 89.8906 106.825 90.1961 106.672L90.3426 106.598C90.587 106.47 90.8316 106.342 91.076 106.207C91.687 105.871 92.2858 105.517 92.8783 105.138C93.0433 105.04 93.2023 104.936 93.3673 104.826C93.5994 104.673 93.8315 104.514 94.0577 104.349C93.4893 103.983 92.8968 103.634 92.2858 103.304Z" fill="#3F3D56"/>
<path d="M62.0586 106.011L61.0505 101.458H58.417C58.3904 101.458 58.3639 101.46 58.3376 101.464H58.3314C57.385 101.544 56.4735 101.859 55.6797 102.381C55.1412 102.725 54.6624 103.154 54.2622 103.652C55.0442 104.245 55.8569 104.795 56.694 105.321L56.7307 105.339C56.9688 105.486 57.2135 105.632 57.4578 105.773C57.8976 106.036 58.3499 106.286 58.8019 106.525L59.0892 106.671C59.7492 107.014 60.4213 107.337 61.1117 107.637C61.2522 107.698 61.405 107.759 61.5455 107.82C61.5577 107.826 61.5637 107.826 61.5759 107.833C61.9 107.967 62.2237 108.095 62.5536 108.218L62.0586 106.011Z" fill="#3F3D56"/>
<path d="M74.1722 90.5941C80.5787 90.5941 85.7721 85.3993 85.7721 78.9911C85.7721 72.583 80.5787 67.3882 74.1722 67.3882C67.7657 67.3882 62.5723 72.583 62.5723 78.9911C62.5723 85.3993 67.7657 90.5941 74.1722 90.5941Z" fill="#FFB8B8"/>
<path d="M66.3841 73.3395C67.5849 74.761 69.6171 75.1621 71.4917 75.3265C75.8744 75.5687 80.2697 75.2097 84.5552 74.2595C84.8207 76.8339 84.0967 79.6097 85.6126 81.7274C86.3232 79.1636 86.7364 76.5265 86.8441 73.8682C86.9573 72.7277 86.8084 71.5764 86.4088 70.5021C86.1952 69.9638 85.8348 69.4962 85.3688 69.1525C84.9027 68.8088 84.3496 68.6028 83.7723 68.5579C84.6365 67.9021 85.6488 67.4692 86.7198 67.2974L83.0366 65.446L83.9825 64.4747L77.3142 64.0665L79.2455 62.8392C76.3387 62.4396 73.3979 62.3468 70.4716 62.5621C69.1041 62.5628 67.7626 62.9357 66.591 63.6411C65.49 64.4286 64.8538 65.9939 65.5373 67.1501C64.6816 67.2907 63.8759 67.6474 63.1966 68.1866C62.5172 68.7257 61.9868 69.4294 61.6554 70.231C61.2364 71.5051 61.1353 72.8624 61.3608 74.1846C61.612 76.3059 62.1049 78.3916 62.8298 80.4009L66.3841 73.3395Z" fill="#2F2E41"/>
<path d="M106.791 66.4131C105.164 61.7363 102.536 57.4709 99.0909 53.9143C95.646 50.3578 91.4669 47.5956 86.8451 45.8206C82.2233 44.0456 77.27 43.3003 72.3307 43.6368C67.3914 43.9733 62.5849 45.3835 58.2464 47.769C53.9079 50.1545 50.1419 53.4579 47.2109 57.4489C44.2799 61.4398 42.2545 66.0223 41.276 70.8766C40.2975 75.731 40.3894 80.7405 41.5452 85.5556C42.7011 90.3708 44.8931 94.8759 47.9685 98.7566C48.274 99.1417 48.5918 99.5267 48.9158 99.8995C48.9402 99.924 48.9584 99.9484 48.9829 99.9729C49.7793 100.891 50.6258 101.764 51.5185 102.589C51.7509 102.803 51.9953 103.023 52.2396 103.23C52.7039 103.646 53.1806 104.043 53.6756 104.422C53.871 104.575 54.0605 104.728 54.2621 104.875C55.0441 105.467 55.8568 106.017 56.694 106.543L56.7307 106.561C56.9688 106.708 57.2134 106.855 57.4578 106.995C57.8976 107.258 58.3498 107.509 58.8019 107.747L59.0891 107.894C59.7491 108.236 60.4213 108.56 61.1117 108.859C61.2522 108.921 61.4049 108.982 61.5455 109.043C61.5577 109.049 61.5637 109.049 61.5759 109.055C61.8999 109.189 62.2236 109.318 62.5536 109.44C63.6375 109.854 64.743 110.209 65.8652 110.503C68.7296 111.267 71.6813 111.653 74.6456 111.652C75.7271 111.652 76.7964 111.604 77.8535 111.5C80.2688 111.277 82.6532 110.795 84.9658 110.063C84.9718 110.063 84.9781 110.057 84.984 110.057C86.4449 109.592 87.872 109.026 89.2552 108.364C89.2611 108.358 89.2734 108.358 89.2796 108.352C89.5911 108.205 89.8907 108.047 90.1962 107.894L90.3427 107.82C90.587 107.692 90.8316 107.564 91.076 107.429C91.687 107.093 92.2858 106.739 92.8783 106.36C93.0433 106.262 93.2023 106.158 93.3673 106.048C93.5994 105.895 93.8315 105.736 94.0577 105.571C94.3569 105.363 94.6565 105.15 94.9497 104.93C95.0413 104.862 95.1392 104.795 95.2308 104.722C100.955 100.376 105.157 94.3281 107.234 87.4463C109.31 80.5644 109.156 73.2015 106.791 66.4131V66.4131ZM94.1066 103.237C93.905 103.395 93.6973 103.548 93.4893 103.689C93.2877 103.842 93.0863 103.988 92.8783 104.123C92.7011 104.251 92.5239 104.373 92.3407 104.489L92.2858 104.526C92.1512 104.618 92.017 104.703 91.8824 104.789C91.3752 105.107 90.862 105.412 90.3427 105.706L90.1777 105.797C89.9456 105.926 89.7135 106.048 89.4813 106.17C89.4506 106.189 89.4139 106.201 89.3835 106.219L89.3468 106.237C89.0535 106.39 88.754 106.537 88.4547 106.677C87.2994 107.234 86.1095 107.716 84.8925 108.12C84.7334 108.175 84.5747 108.23 84.416 108.279C82.227 108.975 79.9696 109.434 77.6825 109.648C76.6804 109.74 75.666 109.788 74.6457 109.788C71.8419 109.794 69.0497 109.428 66.342 108.7C64.9524 108.338 63.5905 107.876 62.2666 107.319C62.1992 107.289 62.1258 107.264 62.0586 107.234C61.9855 107.203 61.9181 107.179 61.851 107.148C61.7776 107.118 61.7104 107.087 61.637 107.05C61.0627 106.8 60.4944 106.525 59.9386 106.237L59.6697 106.097C58.9913 105.742 58.3254 105.363 57.6777 104.96C57.4882 104.844 57.2928 104.722 57.1093 104.593C57.0607 104.563 57.0177 104.532 56.9688 104.502C56.535 104.214 56.1012 103.915 55.6796 103.603C55.3926 103.389 55.1053 103.175 54.8243 102.955C54.3538 102.601 53.9015 102.222 53.4617 101.831C53.2296 101.635 53.0034 101.421 52.7836 101.22C51.9172 100.42 51.0971 99.5707 50.3273 98.6772C50.0707 98.3838 49.8201 98.0905 49.5817 97.7849C49.5275 97.7244 49.4765 97.6612 49.4289 97.5954C45.4589 92.5845 43.0711 86.5043 42.5698 80.1304C42.0685 73.7565 43.4765 67.3776 46.6143 61.8074C49.7521 56.2371 54.4774 51.7279 60.1876 48.8548C65.8979 45.9818 72.3342 44.875 78.6759 45.6757C85.0175 46.4764 90.977 49.1484 95.7943 53.3507C100.612 57.553 104.069 63.0953 105.724 69.2708C107.38 75.4463 107.159 81.975 105.09 88.0244C103.02 94.0738 99.1969 99.3696 94.1066 103.237L94.1066 103.237Z" fill="#3F3D56"/>
<path d="M106.791 184.291C105.164 179.614 102.536 175.349 99.0908 171.792C95.6459 168.236 91.4669 165.474 86.8451 163.699C82.2233 161.923 77.27 161.178 72.3307 161.515C67.3914 161.851 62.5849 163.261 58.2464 165.647C53.9079 168.032 50.1419 171.336 47.2109 175.327C44.2799 179.318 42.2545 183.9 41.276 188.755C40.2975 193.609 40.3894 198.618 41.5452 203.434C42.7011 208.249 44.8931 212.754 47.9685 216.635C48.274 217.02 48.5917 217.405 48.9154 217.777C48.9399 217.802 48.9581 217.826 48.9826 217.851C49.7792 218.769 50.6258 219.642 51.5185 220.467C51.7506 220.68 51.995 220.901 52.2393 221.108C52.7039 221.524 53.1803 221.921 53.6753 222.3C54.6417 223.062 55.6493 223.77 56.6937 224.421L56.7304 224.439C57.4085 224.861 58.0989 225.252 58.8018 225.625L59.0888 225.772C59.7488 226.114 60.4209 226.438 61.1113 226.737C61.2518 226.798 61.4046 226.859 61.5451 226.921C61.5574 226.927 61.5636 226.927 61.5758 226.933C62.9709 227.513 64.404 227.997 65.8652 228.381C68.7294 229.145 71.6811 229.531 74.6453 229.53C75.7268 229.53 76.7961 229.481 77.8531 229.378C80.2684 229.155 82.6529 228.673 84.9655 227.941C84.9717 227.941 84.9777 227.935 84.9837 227.935C86.4446 227.47 87.8717 226.904 89.2548 226.242C89.2608 226.236 89.2733 226.236 89.2793 226.23C89.5908 226.083 89.8903 225.924 90.1958 225.772L90.3426 225.698C90.587 225.57 90.8313 225.442 91.0757 225.307C91.6867 224.971 92.2855 224.616 92.8783 224.238C93.0433 224.14 93.202 224.036 93.367 223.926C93.9046 223.571 94.4362 223.192 94.9494 222.807C95.0413 222.74 95.1389 222.673 95.2307 222.6C100.955 218.253 105.157 212.206 107.233 205.324C109.31 198.442 109.155 191.079 106.791 184.291V184.291Z" fill="white"/>
<path d="M85.8782 209.517C88.6957 209.517 90.9796 207.232 90.9796 204.414C90.9796 201.596 88.6957 199.312 85.8782 199.312C83.0608 199.312 80.7769 201.596 80.7769 204.414C80.7769 207.232 83.0608 209.517 85.8782 209.517Z" fill="#2F2E41"/>
<path d="M87.2995 199.453C88.1825 199.453 89.0503 199.682 89.8181 200.118C90.586 200.554 91.2276 201.182 91.6801 201.94C92.1327 202.698 92.3808 203.561 92.4002 204.444C92.4195 205.327 92.2094 206.2 91.7905 206.977C92.2326 206.424 92.5547 205.784 92.7361 205.099C92.9175 204.414 92.9543 203.699 92.8441 202.999C92.7339 202.3 92.4792 201.63 92.0962 201.034C91.7132 200.438 91.2103 199.929 90.6195 199.538C90.0287 199.147 89.363 198.884 88.6648 198.764C87.9666 198.645 87.2512 198.672 86.5642 198.845C85.8772 199.017 85.2336 199.331 84.6745 199.766C84.1154 200.201 83.6531 200.748 83.3169 201.372C83.7938 200.773 84.3996 200.289 85.0893 199.957C85.7789 199.625 86.5346 199.452 87.3001 199.453L87.2995 199.453Z" fill="#2F2E41"/>
<path d="M76.3452 204.403C84.6216 204.403 91.331 197.692 91.331 189.414C91.331 181.135 84.6216 174.424 76.3452 174.424C68.0688 174.424 61.3594 181.135 61.3594 189.414C61.3594 197.692 68.0688 204.403 76.3452 204.403Z" fill="#2F2E41"/>
<path d="M64.5837 180.114C67.1659 177.209 70.7753 175.421 74.6502 175.128C78.5251 174.835 82.3624 176.059 85.3522 178.542C85.23 178.425 85.1078 178.308 84.9813 178.195C82.021 175.542 78.1284 174.174 74.1599 174.392C70.1914 174.61 66.472 176.396 63.8201 179.357C61.1681 182.319 59.8007 186.212 60.0187 190.182C60.2367 194.151 62.0223 197.871 64.9826 200.524C65.011 200.55 65.0396 200.575 65.0682 200.6C65.1953 200.713 65.3261 200.82 65.4562 200.929C62.6408 198.249 60.9761 194.581 60.8134 190.697C60.6507 186.814 62.0028 183.019 64.5843 180.114L64.5837 180.114Z" fill="#2F2E41"/>
<path d="M76.218 204.277C81.5485 204.277 85.8697 199.954 85.8697 194.622C85.8697 189.291 81.5485 184.968 76.218 184.968C70.8876 184.968 66.5664 189.291 66.5664 194.622C66.5664 199.954 70.8876 204.277 76.218 204.277Z" fill="#A0616A"/>
<path d="M93.4895 219.776V223.015C92.8966 223.394 92.2979 223.749 91.6868 224.085C91.4425 224.219 91.1982 224.348 90.9538 224.476L90.807 224.549C90.5015 224.702 90.202 224.861 89.8905 225.008C89.8845 225.014 89.872 225.014 89.866 225.02C88.4829 225.682 87.0558 226.247 85.5949 226.713C85.5889 226.713 85.5829 226.719 85.5767 226.719C83.2641 227.451 80.8797 227.932 78.4644 228.155C77.4073 228.259 76.338 228.308 75.2565 228.308C72.2923 228.309 69.3406 227.923 66.4764 227.159C65.0152 226.775 63.5821 226.291 62.1871 225.711C62.1748 225.704 62.1686 225.704 62.1563 225.698C62.0158 225.637 61.863 225.576 61.7225 225.515C61.0321 225.216 60.36 224.892 59.7 224.549L59.413 224.403C58.7101 224.03 58.0197 223.639 57.3416 223.217L57.3049 223.199C56.2605 222.548 55.2529 221.84 54.2865 221.078C53.7915 220.699 53.3151 220.302 52.8505 219.886C52.6062 219.678 52.3618 219.458 52.1297 219.244C51.237 218.42 50.3904 217.546 49.5938 216.628C49.6994 215.992 49.8547 215.365 50.0583 214.752L50.0642 214.746C50.1008 214.642 50.1437 214.54 50.1925 214.44C50.2262 214.353 50.265 214.267 50.3086 214.184C51.4024 212.136 53.3822 211.629 55.8385 211.519C57.2255 211.458 58.759 211.525 60.3785 211.507C61.2338 211.501 62.1196 211.47 63.0057 211.391C68.5965 210.883 67.5824 207.583 67.8327 205.805C68.0833 204.081 69.6354 205.572 69.7392 205.67L69.7451 205.676C72.909 207.157 76.4093 207.771 79.8881 207.455C80.4869 207.381 81.0857 207.339 81.6845 207.32C83.2609 207.302 82.9187 207.754 82.3751 208.127C82.1112 208.301 81.8356 208.456 81.5502 208.592C81.5502 208.592 81.2996 210.119 81.043 212.405C80.7987 214.593 84.9902 215.62 85.3383 215.699C85.3455 215.704 85.3542 215.706 85.3628 215.706C86.8935 215.309 88.5051 215.351 90.0129 215.828H90.0188C90.8803 216.145 91.649 216.672 92.2551 217.361C92.8612 218.051 93.2855 218.881 93.4895 219.776Z" fill="#6C63FF"/>
<path d="M62.2479 223.706C62.2479 224.158 62.236 224.592 62.2175 225.002C62.2115 225.246 62.1993 225.484 62.1871 225.71C62.1749 225.704 62.1686 225.704 62.1563 225.698C62.0158 225.637 61.8631 225.576 61.7225 225.515C61.0322 225.215 60.36 224.892 59.7 224.549L59.413 224.403C58.7101 224.03 58.0198 223.639 57.3416 223.217C57.3598 223.003 57.3905 222.789 57.4209 222.575C57.4881 222.105 57.5433 221.628 57.58 221.157C57.8202 217.851 57.2211 214.538 55.8385 211.525V211.519C55.7162 211.274 55.6431 211.14 55.6431 211.14C55.6431 211.14 57.4209 209.612 59.9566 211.14C60.1186 211.235 60.2616 211.36 60.3784 211.507C61.906 213.31 62.3213 219.373 62.2479 223.706Z" fill="#2F2E41"/>
<path d="M89.9944 222.875C89.97 223.559 89.9333 224.274 89.8906 225.002V225.008C89.8847 225.014 89.8721 225.014 89.8661 225.02C88.483 225.682 87.0559 226.247 85.595 226.713C85.589 226.713 85.5831 226.719 85.5768 226.719L85.5097 225.002L85.5034 224.775L85.1797 216.415C85.171 216.225 85.2008 216.036 85.2672 215.859C85.3336 215.681 85.4352 215.519 85.566 215.382C85.6968 215.245 85.8539 215.136 86.028 215.061C86.2021 214.987 86.3895 214.948 86.5789 214.948H89.6767C89.8294 214.948 89.9395 215.259 90.0129 215.822V215.828C90.1632 218.175 90.157 220.529 89.9944 222.875Z" fill="#2F2E41"/>
<path d="M67.9634 182.555V192.211H70.1985L73.0428 189.163L72.6621 192.211H82.5423L81.9313 189.163L83.1533 192.211H84.7285V182.555H67.9634Z" fill="#2F2E41"/>
<path d="M66.4397 193.987C66.8605 193.987 67.2016 193.362 67.2016 192.59C67.2016 191.818 66.8605 191.193 66.4397 191.193C66.0189 191.193 65.6777 191.818 65.6777 192.59C65.6777 193.362 66.0189 193.987 66.4397 193.987Z" fill="#A0616A"/>
<path d="M85.9978 193.987C86.4186 193.987 86.7597 193.362 86.7597 192.59C86.7597 191.818 86.4186 191.193 85.9978 191.193C85.577 191.193 85.2358 191.818 85.2358 192.59C85.2358 193.362 85.577 193.987 85.9978 193.987Z" fill="#A0616A"/>
<path d="M95.5604 221.585C95.0472 221.97 94.5156 222.349 93.978 222.703C93.813 222.813 93.6542 222.917 93.4893 223.015C92.8964 223.394 92.2977 223.749 91.6866 224.085C91.4423 224.219 91.198 224.348 90.9536 224.476V217.741C90.9536 217.741 91.931 218.523 93.4892 219.825C93.6847 219.99 93.8863 220.161 94.1002 220.344C94.5523 220.723 95.0413 221.139 95.5604 221.585Z" fill="#6C63FF"/>
<path d="M106.791 184.291C105.164 179.614 102.536 175.349 99.0908 171.792C95.6459 168.236 91.4669 165.474 86.8451 163.699C82.2233 161.923 77.27 161.178 72.3307 161.515C67.3914 161.851 62.5849 163.261 58.2464 165.647C53.9079 168.032 50.1419 171.336 47.2109 175.327C44.2799 179.318 42.2545 183.9 41.276 188.755C40.2975 193.609 40.3894 198.618 41.5452 203.434C42.7011 208.249 44.8931 212.754 47.9685 216.635C48.274 217.02 48.5917 217.405 48.9154 217.777C48.9399 217.802 48.9581 217.826 48.9826 217.851C49.7792 218.769 50.6258 219.642 51.5185 220.467C51.7506 220.68 51.995 220.901 52.2393 221.108C52.7039 221.524 53.1803 221.921 53.6753 222.3C54.6417 223.062 55.6493 223.77 56.6937 224.421L56.7304 224.439C57.4085 224.861 58.0989 225.252 58.8018 225.625L59.0888 225.772C59.7488 226.114 60.4209 226.438 61.1113 226.737C61.2518 226.798 61.4046 226.859 61.5451 226.921C61.5574 226.927 61.5636 226.927 61.5758 226.933C62.9709 227.513 64.404 227.997 65.8652 228.381C68.7294 229.145 71.6811 229.531 74.6453 229.53C75.7268 229.53 76.7961 229.481 77.8531 229.378C80.2684 229.155 82.6529 228.673 84.9655 227.941C84.9717 227.941 84.9777 227.935 84.9837 227.935C86.4446 227.47 87.8717 226.904 89.2548 226.242C89.2608 226.236 89.2733 226.236 89.2793 226.23C89.5908 226.083 89.8903 225.924 90.1958 225.772L90.3426 225.698C90.587 225.57 90.8313 225.442 91.0757 225.307C91.6867 224.971 92.2855 224.616 92.8783 224.238C93.0433 224.14 93.202 224.036 93.367 223.926C93.9046 223.571 94.4362 223.192 94.9494 222.807C95.0413 222.74 95.1389 222.673 95.2307 222.6C100.955 218.253 105.157 212.206 107.233 205.324C109.31 198.442 109.155 191.079 106.791 184.291V184.291ZM94.1063 221.114C93.9046 221.273 93.6969 221.426 93.4893 221.567C93.2876 221.719 93.0859 221.866 92.8783 222.001C92.7011 222.129 92.5239 222.251 92.3404 222.367C92.1876 222.471 92.0349 222.569 91.8821 222.667C91.3752 222.985 90.862 223.29 90.3426 223.584L90.1773 223.675C89.9452 223.804 89.7131 223.926 89.481 224.048C89.4502 224.066 89.4136 224.079 89.3832 224.097L89.3465 224.115C89.0532 224.268 88.7539 224.415 88.4544 224.555C87.2991 225.112 86.1092 225.594 84.8921 225.998C84.7334 226.053 84.5744 226.108 84.4157 226.157C82.2267 226.853 79.9692 227.312 77.6822 227.526C76.6801 227.617 75.6657 227.666 74.6453 227.666C71.8416 227.672 69.0494 227.306 66.3417 226.578C64.9521 226.216 63.5901 225.754 62.2662 225.197C62.1257 225.142 61.9852 225.081 61.8506 225.026C61.7775 224.995 61.7101 224.965 61.6367 224.928C61.0624 224.678 60.4944 224.403 59.9382 224.115L59.6694 223.975C58.9913 223.62 58.3251 223.241 57.6773 222.838C57.4393 222.691 57.2009 222.538 56.9688 222.38C56.2354 221.897 55.5206 221.377 54.8239 220.833C54.3534 220.479 53.9014 220.1 53.4614 219.709C53.2293 219.513 53.0031 219.299 52.7832 219.098C51.9169 218.297 51.0968 217.448 50.3269 216.555C50.0704 216.262 49.8198 215.968 49.5814 215.663C49.5272 215.602 49.4762 215.539 49.4286 215.473C45.4586 210.462 43.0707 204.382 42.5694 198.008C42.0682 191.634 43.4762 185.255 46.614 179.685C49.7517 174.115 54.4771 169.606 60.1873 166.733C65.8976 163.86 72.3339 162.753 78.6755 163.554C85.0172 164.354 90.9767 167.026 95.794 171.229C100.611 175.431 104.068 180.973 105.724 187.149C107.379 193.324 107.158 199.853 105.089 205.902C103.02 211.952 99.1966 217.247 94.1063 221.114V221.114Z" fill="#3F3D56"/>
<path d="M74.8378 328.664C82.2033 328.664 88.1742 322.691 88.1742 315.324C88.1742 307.956 82.2033 301.984 74.8378 301.984C67.4724 301.984 61.5015 307.956 61.5015 315.324C61.5015 322.691 67.4724 328.664 74.8378 328.664Z" fill="#2F2E41"/>
<path d="M64.4278 308.131C66.5829 305.976 67.0197 302.917 65.4033 301.301C63.787 299.684 60.7296 300.121 58.5745 302.277C56.4194 304.432 55.9827 307.49 57.599 309.107C59.2153 310.724 62.2727 310.287 64.4278 308.131Z" fill="#2F2E41"/>
<path d="M88.738 303.895C89.636 301.792 88.0918 299.117 85.289 297.919C82.4862 296.722 79.4862 297.455 78.5883 299.558C77.6903 301.661 79.2345 304.336 82.0373 305.534C84.8401 306.731 87.8401 305.997 88.738 303.895Z" fill="#2F2E41"/>
<path d="M90.7903 341.199L89.219 338.726C88.5522 337.236 87.3224 336.072 85.7988 335.487C84.2753 334.902 82.5822 334.945 81.0904 335.607C79.5985 336.268 78.4296 337.494 77.8396 339.016C77.2496 340.538 77.2866 342.232 77.9425 343.726L78.3893 345.329L78.8978 347.147C80.9564 346.887 82.9876 346.444 84.9672 345.822C84.9731 345.821 84.9785 345.818 84.9826 345.814C86.4459 345.351 87.8745 344.785 89.2577 344.119C89.2652 344.112 89.2727 344.112 89.2806 344.104C89.5887 343.957 89.8891 343.803 90.1972 343.649C90.2475 343.627 90.2963 343.601 90.3435 343.572C90.5898 343.449 90.8365 343.318 91.0754 343.187C91.3217 343.056 91.5604 342.917 91.7914 342.771L90.7903 341.199Z" fill="#CACACA"/>
<path d="M75.2608 329.829C81.5118 329.829 86.5793 324.761 86.5793 318.508C86.5793 312.255 81.5118 307.187 75.2608 307.187C69.0098 307.187 63.9424 312.255 63.9424 318.508C63.9424 324.761 69.0098 329.829 75.2608 329.829Z" fill="#FFB6B6"/>
<path d="M91.6066 340.714C90.3582 338.638 88.8084 336.758 87.0081 335.136C85.775 334.034 84.1791 333.425 82.5255 333.426H66.5813C65.6626 333.425 64.7535 333.614 63.9103 333.978C63.0672 334.343 62.3077 334.877 61.679 335.547C61.0503 336.217 60.5656 337.009 60.2549 337.874C59.9441 338.739 59.814 339.658 59.8725 340.575C59.9073 341.093 60.0004 341.605 60.1501 342.101C60.2637 342.461 60.4053 342.811 60.5736 343.149L61.3592 344.72C61.4209 344.744 61.4826 344.774 61.5439 344.797C61.5593 344.805 61.5672 344.805 61.5747 344.813C61.8981 344.944 62.2219 345.075 62.5529 345.198C63.6368 345.613 64.7425 345.968 65.8651 346.261C67.6723 346.747 69.517 347.079 71.3798 347.255C72.466 347.355 73.5521 347.409 74.6458 347.409C75.732 347.409 76.7948 347.355 77.8577 347.255C78.2044 347.224 78.5508 347.186 78.8976 347.147C80.9561 346.887 82.9874 346.444 84.967 345.822C84.9728 345.821 84.9783 345.819 84.9824 345.814C86.4457 345.351 87.8743 344.785 89.2574 344.12C89.265 344.112 89.2725 344.112 89.2804 344.104C89.5884 343.958 89.8889 343.804 90.1969 343.65C90.2473 343.627 90.2961 343.601 90.3432 343.572C90.5896 343.449 90.8363 343.318 91.0751 343.187C91.3214 343.056 91.5601 342.918 91.7912 342.771C92.0379 342.64 92.2688 342.494 92.5077 342.348C92.2152 341.77 91.9147 341.23 91.6066 340.714Z" fill="#CACACA"/>
<path d="M69.4695 335.49C67.994 334.8 66.3053 334.722 64.7725 335.274C63.2397 335.825 61.9876 336.961 61.2898 338.433L59.8723 340.575L59.1946 341.6L58.1626 343.156C58.3781 343.272 58.5861 343.387 58.802 343.503L59.0867 343.649C59.7493 343.988 60.4192 344.312 61.1127 344.612C61.1894 344.651 61.2744 344.682 61.359 344.72C61.4207 344.743 61.4824 344.774 61.5437 344.797C61.5591 344.805 61.567 344.805 61.5745 344.813C61.8979 344.944 62.2217 345.075 62.5527 345.198C63.6366 345.612 64.7423 345.967 65.865 346.261C67.6721 346.746 69.5168 347.079 71.3796 347.255L71.9189 345.429L72.4428 343.688C73.1333 342.206 73.2081 340.511 72.6507 338.974C72.0933 337.437 70.9492 336.184 69.4695 335.49Z" fill="#CACACA"/>
<path d="M63.3677 311.387C65.9541 313.17 69.024 314.119 72.1652 314.106C71.0447 314.883 69.7691 315.408 68.4262 315.645C72.6027 316.541 76.9192 316.565 81.1055 315.716C82.036 315.567 82.9339 315.258 83.7597 314.804C84.1712 314.574 84.5298 314.261 84.8121 313.883C85.0943 313.505 85.294 313.073 85.398 312.613C85.6762 311.023 84.4379 309.579 83.151 308.606C81.1807 307.138 78.909 306.127 76.5001 305.646C74.0912 305.164 71.6055 305.224 69.2227 305.822C67.6351 306.141 66.1903 306.958 65.0976 308.153C64.5689 308.762 64.2497 309.524 64.1872 310.328C64.1247 311.132 64.3222 311.934 64.7505 312.617L63.3677 311.387Z" fill="#2F2E41"/>
<path d="M106.795 302.169C105.168 297.491 102.541 293.225 99.0957 289.668C95.6508 286.111 91.4716 283.349 86.8495 281.573C82.2275 279.798 77.2739 279.052 72.3343 279.389C67.3946 279.725 62.5877 281.135 58.2489 283.521C53.9101 285.907 50.1438 289.21 47.2126 293.202C44.2815 297.193 42.2561 301.776 41.2777 306.63C40.2993 311.485 40.3914 316.495 41.5477 321.31C42.7039 326.126 44.8965 330.631 47.9724 334.512C48.2725 334.897 48.5963 335.282 48.9198 335.652C48.9383 335.679 48.9589 335.705 48.9815 335.729C49.7791 336.647 50.6277 337.519 51.5231 338.341C51.754 338.557 51.9929 338.78 52.2396 338.988C52.7014 339.404 53.1791 339.797 53.6796 340.175C53.8722 340.329 54.0648 340.483 54.2652 340.629C55.043 341.222 55.8595 341.769 56.6914 342.301C56.7057 342.301 56.7193 342.307 56.7298 342.316C56.9686 342.463 57.2153 342.609 57.4616 342.748C57.6926 342.887 57.9314 343.025 58.1627 343.156C58.3782 343.272 58.5862 343.387 58.802 343.503L59.0868 343.649C59.7494 343.988 60.4193 344.312 61.1128 344.612C61.1895 344.651 61.2745 344.682 61.3591 344.72C61.4208 344.743 61.4825 344.774 61.5438 344.797C61.5592 344.805 61.5671 344.805 61.5746 344.813C61.898 344.944 62.2218 345.075 62.5528 345.198C63.6367 345.612 64.7424 345.967 65.8651 346.261C67.6722 346.746 69.5169 347.079 71.3797 347.255C72.4659 347.355 73.552 347.409 74.6457 347.409C75.7319 347.409 76.7947 347.355 77.8576 347.255C78.2043 347.224 78.5507 347.186 78.8975 347.147C80.956 346.887 82.9873 346.444 84.9669 345.822C84.9727 345.821 84.9782 345.818 84.9823 345.814C86.4456 345.351 87.8742 344.785 89.2574 344.119C89.2649 344.111 89.2724 344.111 89.2803 344.104C89.5883 343.957 89.8888 343.803 90.1968 343.649C90.2471 343.627 90.296 343.601 90.3431 343.572C90.5895 343.449 90.8362 343.318 91.075 343.187C91.3214 343.056 91.56 342.917 91.7911 342.771C92.0378 342.64 92.2687 342.494 92.5076 342.347C92.6309 342.27 92.7542 342.193 92.8773 342.116C93.0469 342.016 93.2007 341.916 93.3703 341.8C93.6013 341.654 93.8326 341.492 94.0556 341.33C94.3561 341.122 94.6566 340.906 94.9492 340.683C95.0478 340.619 95.143 340.549 95.2343 340.475C100.954 336.126 105.153 330.079 107.229 323.198C109.306 316.318 109.154 308.957 106.795 302.169L106.795 302.169ZM94.1098 338.988C93.9093 339.15 93.7013 339.304 93.4937 339.443C93.2854 339.597 93.0853 339.743 92.8773 339.882C92.7001 340.005 92.523 340.128 92.3384 340.244C92.3216 340.258 92.3035 340.271 92.2842 340.282C92.1533 340.375 92.0145 340.46 91.8837 340.544C91.7912 340.598 91.699 340.66 91.6065 340.714C91.3368 340.883 91.0672 341.045 90.79 341.199C90.6437 341.292 90.4895 341.376 90.3432 341.461C90.2894 341.492 90.2352 341.523 90.1814 341.554C89.9426 341.685 89.7117 341.8 89.4804 341.923C89.4499 341.947 89.4112 341.954 89.3883 341.977C89.3739 341.978 89.3602 341.983 89.3495 341.993C89.0569 342.147 88.7564 342.293 88.4563 342.432C87.2998 342.989 86.1085 343.47 84.8898 343.873C84.736 343.927 84.5743 343.988 84.4201 344.035C82.4557 344.658 80.4361 345.091 78.389 345.329C78.1581 345.36 77.9193 345.383 77.6805 345.406C76.6793 345.498 75.6702 345.545 74.6458 345.545C73.7367 345.545 72.8202 345.506 71.9191 345.429C70.0351 345.272 68.1689 344.947 66.3427 344.458C64.9526 344.096 63.5908 343.632 62.2682 343.071C62.1986 343.041 62.1294 343.017 62.0602 342.987C61.9831 342.956 61.9214 342.933 61.8522 342.902C61.7751 342.871 61.7134 342.84 61.6363 342.802C61.1358 342.586 60.6352 342.347 60.15 342.101C60.0804 342.062 60.0112 342.031 59.9421 341.993L59.6724 341.854C59.5106 341.769 59.349 341.685 59.1948 341.6C58.6788 341.323 58.1703 341.022 57.6776 340.714C57.4926 340.598 57.2925 340.475 57.1074 340.352L56.9687 340.259C56.5373 339.967 56.1063 339.674 55.6824 339.358C55.3973 339.142 55.1047 338.934 54.8276 338.711C54.3578 338.356 53.9031 337.979 53.4642 337.586C53.2329 337.393 53.002 337.178 52.7865 336.977C51.9191 336.178 51.0988 335.329 50.3295 334.435C50.0752 334.142 49.821 333.849 49.5822 333.541C49.5284 333.479 49.4821 333.418 49.428 333.348C45.4571 328.337 43.0684 322.256 42.5666 315.882C42.0648 309.507 43.4726 303.127 46.6105 297.556C49.7484 291.985 54.4741 287.475 60.1849 284.601C65.8958 281.727 72.3329 280.62 78.6755 281.42C85.018 282.221 90.9784 284.893 95.7965 289.096C100.615 293.298 104.072 298.841 105.728 305.018C107.384 311.194 107.163 317.723 105.094 323.774C103.025 329.824 99.2008 335.121 94.1099 338.988H94.1098Z" fill="#3F3D56"/>
<path d="M131.593 135.82C119.74 125.817 105.237 119.474 89.8464 117.565C74.4561 115.656 58.8428 118.263 44.9066 125.068C30.9703 131.873 19.3119 142.583 11.35 155.895C3.38807 169.207 -0.534066 184.546 0.0608561 200.047C0.655778 215.548 5.7421 230.541 14.7009 243.203C23.6597 255.865 36.1047 265.65 50.5215 271.366C64.9384 277.082 80.7054 278.484 95.9041 275.4C111.103 272.317 125.078 264.881 136.129 253.998L234.257 336.82C235.751 338.076 237.682 338.688 239.627 338.522C241.571 338.357 243.371 337.427 244.63 335.936C245.89 334.445 246.508 332.516 246.348 330.57C246.188 328.625 245.263 326.822 243.777 325.558L243.766 325.549L145.637 242.726C157.036 226.361 161.915 206.328 159.317 186.552C156.719 166.777 146.832 148.684 131.593 135.82ZM125.267 234.751C117.622 243.813 107.463 250.405 96.0729 253.691C84.6832 256.978 72.5749 256.813 61.2791 253.216C49.9834 249.619 40.0076 242.753 32.6132 233.485C25.2188 224.218 20.7379 212.965 19.7372 201.15C18.7365 189.335 21.2609 177.488 26.9912 167.108C32.7215 156.728 41.4003 148.281 51.9301 142.835C62.46 137.389 74.3679 135.188 86.1481 136.512C97.9283 137.835 109.052 142.623 118.111 150.269C130.26 160.523 137.839 175.184 139.181 191.028C140.523 206.871 135.518 222.599 125.267 234.751Z" fill="#3F3D56"/>
<path opacity="0.3" d="M40.8068 241.909C29.3086 232.203 21.88 218.527 19.9958 203.597C18.1117 188.666 21.9098 173.573 30.6361 161.314C29.4901 162.468 28.3823 163.677 27.3125 164.941C22.2367 170.958 18.3953 177.916 16.0079 185.418C13.6204 192.92 12.7336 200.819 13.398 208.664C14.0625 216.509 16.2652 224.146 19.8803 231.14C23.4955 238.133 28.4524 244.346 34.4679 249.423C40.4835 254.5 47.4399 258.342 54.94 260.73C62.4401 263.118 70.337 264.006 78.1798 263.341C86.0226 262.676 93.6578 260.473 100.649 256.857C107.641 253.241 113.852 248.283 118.928 242.266C119.995 241 121 239.705 121.943 238.378C111.33 249.045 97.0946 255.329 82.0637 255.983C67.0329 256.637 52.3058 251.613 40.8068 241.909Z" fill="black"/>
<path d="M329.421 339.917C330.187 338.981 330.739 337.888 331.038 336.715C331.336 335.543 331.374 334.319 331.149 333.13C330.924 331.941 330.44 330.816 329.733 329.835C329.026 328.853 328.113 328.038 327.057 327.448L309.17 254.218L296.122 258.384L315.436 331.114C314.562 332.954 314.393 335.051 314.962 337.007C315.53 338.964 316.796 340.643 318.52 341.728C320.243 342.813 322.305 343.228 324.314 342.894C326.323 342.56 328.14 341.501 329.421 339.917H329.421Z" fill="#FFB6B6"/>
<path d="M320.176 293.075L310.64 301.303L297.299 312.807L291.407 282.652L290.791 279.516L290.306 277.028L303.823 253.475L315.092 254.121L315.862 254.168L315.878 254.338L316.055 255.917L318.366 276.703L318.419 277.205L320.176 293.075Z" fill="#3F3D56"/>
<path d="M257.848 497.762L248.406 497.762L243.913 461.329L257.851 461.33L257.848 497.762Z" fill="#FFB6B6"/>
<path d="M260.257 506.918L229.809 506.917V506.532C229.809 503.388 231.058 500.373 233.28 498.15C235.503 495.927 238.517 494.678 241.66 494.678H241.661L260.257 494.678L260.257 506.918Z" fill="#2F2E41"/>
<path d="M356.439 498.533L346.997 498.532L342.504 462.1L356.441 462.1L356.439 498.533Z" fill="#FFB6B6"/>
<path d="M358.848 507.689L328.399 507.688V507.302C328.4 504.159 329.648 501.143 331.871 498.92C334.093 496.697 337.108 495.448 340.251 495.448H340.252L358.848 495.449L358.848 507.689Z" fill="#2F2E41"/>
<path d="M363.987 484.03L338.569 487.882L301.59 362.701L262.315 488.652L233.816 484.8L270.788 338.416V326.86L275.794 309.525L275.27 304.833L271.627 272.02L270.048 257.79L269.946 256.87C269.86 256.099 270.064 255.323 270.519 254.694C270.973 254.065 271.646 253.628 272.405 253.467L284.267 250.971H303.654L315.092 254.122L315.877 254.338L316.232 254.438L316.055 255.917L313.374 278.399L313.228 279.632L310.64 301.304L310.07 306.058C332.407 322.237 333.177 338.416 333.177 338.416L363.987 484.03Z" fill="#2F2E41"/>
<path d="M291.618 241.224C302.066 241.224 310.535 232.752 310.535 222.301C310.535 211.85 302.066 203.378 291.618 203.378C281.17 203.378 272.7 211.85 272.7 222.301C272.7 232.752 281.17 241.224 291.618 241.224Z" fill="#FFB6B6"/>
<path d="M311.487 301.709L274.064 306.604L274.763 311.952L312.186 307.057L311.487 301.709Z" fill="#3F3D56"/>
<path d="M223.866 308.217C224.224 308.448 224.563 308.708 224.88 308.992L261.895 299.554L264.42 290.622L278.395 292.672L275.461 308.919C275.224 310.232 274.568 311.432 273.591 312.34C272.614 313.247 271.369 313.813 270.043 313.953L226.823 318.506C226.119 319.989 224.98 321.223 223.557 322.043C222.135 322.863 220.496 323.231 218.86 323.096C217.223 322.962 215.666 322.333 214.396 321.292C213.126 320.252 212.203 318.849 211.749 317.27C211.296 315.692 211.333 314.013 211.857 312.456C212.381 310.9 213.366 309.54 214.681 308.557C215.996 307.574 217.58 307.015 219.221 306.954C220.861 306.893 222.482 307.334 223.866 308.217Z" fill="#FFB6B6"/>
<path d="M280.801 258.29L274.254 253.282C272.483 252.611 270.058 254.519 269.632 256.364L260.389 294.116L279.645 307.984L282.341 303.746L280.801 258.29Z" fill="#3F3D56"/>
<g opacity="0.2">
<path opacity="0.2" d="M318.366 276.704C316.731 277.353 315.066 277.918 313.374 278.399C312.835 278.561 312.281 278.715 311.734 278.861C308.129 279.862 304.425 280.461 300.688 280.649C299.08 280.717 297.469 280.673 295.867 280.518C294.147 280.346 292.447 280.011 290.791 279.516C290.737 279.501 290.675 279.485 290.621 279.47C287.177 278.492 284.02 276.697 281.417 274.238C280.835 273.672 280.292 273.067 279.792 272.428C278.354 270.666 277.298 268.623 276.694 266.431C276.089 264.238 275.948 261.943 276.279 259.693C276.344 259.285 276.431 258.881 276.542 258.483C276.832 257.399 277.216 256.342 277.689 255.324C277.897 254.846 278.128 254.377 278.375 253.914L287.078 250.971H303.654L315.092 254.122L315.862 254.169L315.878 254.338L316.232 254.438L316.055 255.917L318.366 276.704Z" fill="black"/>
</g>
<path d="M277.121 206.635C273.583 206.201 269.701 206.508 266.943 208.767C264.186 211.026 263.296 215.722 265.907 218.15C268.218 220.299 271.832 219.793 274.928 220.404C277.595 221.002 279.985 222.478 281.714 224.595C283.443 226.712 284.412 229.348 284.467 232.082C284.421 239.92 276.9 245.856 275.549 253.578C274.627 258.847 276.849 264.393 280.69 268.116C284.531 271.838 289.812 273.85 295.133 274.394C300.453 274.939 305.833 274.107 311.004 272.74C316.197 271.367 321.308 269.419 325.665 266.277C330.022 263.136 333.593 258.707 334.992 253.521C336.391 248.334 335.387 242.387 331.782 238.405C327.654 233.844 320.787 232.276 317.217 227.267C313.214 221.653 314.695 213.657 311.456 207.569C309.293 203.505 305.198 200.733 300.833 199.273C296.468 197.812 291.807 197.524 287.206 197.383C284.788 197.308 282.295 197.284 280.042 198.165C277.789 199.047 275.809 201.057 275.692 203.474C275.575 205.891 277.121 206.635 277.121 206.635Z" fill="#2F2E41"/>
<path d="M454.23 508H160.768C160.564 508 160.368 507.919 160.223 507.774C160.079 507.63 159.998 507.434 159.998 507.229C159.998 507.025 160.079 506.829 160.223 506.685C160.368 506.54 160.564 506.459 160.768 506.459H454.23C454.434 506.459 454.63 506.54 454.774 506.685C454.919 506.829 455 507.025 455 507.229C455 507.434 454.919 507.63 454.774 507.774C454.63 507.919 454.434 508 454.23 508Z" fill="#CACACA"/>
</g>
<defs>
<clipPath id="clip0_598_4007">
<rect width="455" height="508" fill="white"/>
</clipPath>
</defs>
</svg>
