<svg width="2458" height="929" viewBox="0 0 2458 929" fill="none" xmlns="http://www.w3.org/2000/svg">
<path d="M1611.55 275.588V372.266H1481.53V303.369H1457.09V402.269L1537.1 410.048L1611.55 477.834V648.965L1537.1 724.53H1394.86L1321.51 648.965V553.399H1457.09V620.073H1481.53V514.505L1394.86 501.17L1321.51 435.607V275.588L1394.86 203.357H1537.1L1611.55 275.588Z" fill="#081164"/>
<path d="M1.35591 125.569L161.375 82.231C161.005 282.625 161.375 676.746 161.375 698.971C161.375 726.752 172.487 747.866 195.823 772.313C214.492 791.871 255.09 808.985 271.388 815.652V55.5611L429.185 3.33264V928.999C365.843 922.331 279.908 907.098 216.937 890.105C146.928 871.214 110.257 844.544 75.8087 815.652C41.0668 786.514 15.8017 725.641 9.13411 693.415C-2.82151 635.63 1.35567 578.957 1.35591 533.396V125.569Z" fill="#081164"/>
<path d="M516.973 0V361.154L674.769 296.702V121.126L688.104 108.902L785.894 133.349V324.483L516.973 434.496V929C516.973 929 575.869 918.999 633.654 903.441C691.57 887.848 724.776 880.105 783.671 850.102C842.567 820.098 872.619 792.9 897.018 766.758C928.133 733.421 943.32 704.899 943.691 675.636V396.714L785.894 461.166C786.264 535.249 786.783 687.86 785.894 705.64C785.005 723.42 778.115 736.014 774.782 740.088C770.337 746.015 757.224 762.091 740.333 778.982C723.442 795.873 691.068 809.726 676.992 814.542V443.386L943.691 334.484V113.347C942.95 112.976 912.131 106.235 794.784 82.2321C677.437 58.2292 560.682 17.4095 516.973 0Z" fill="#081164"/>
<path fill-rule="evenodd" clip-rule="evenodd" d="M1051.72 202.244L981.473 724.529H1115.27L1123.08 635.987H1164.33L1174.37 724.529H1310.4L1258 202.244H1051.72ZM1140.38 315.591L1120.38 526.727H1161.49L1140.38 315.591Z" fill="#081164"/>
<path d="M981.473 760.091H2457.2V786.761H981.473V760.091Z" fill="#081164"/>
<path fill-rule="evenodd" clip-rule="evenodd" d="M1669.33 724.53V201.134H1884.91L1967.15 273.365V402.269L1903.81 457.831L1967.15 506.726V645.632L1886.03 724.53H1669.33ZM1803.79 300.035H1832.69V411.159H1803.79V300.035ZM1832.69 508.949H1803.79V620.073H1832.69V508.949Z" fill="#081164"/>
<path fill-rule="evenodd" clip-rule="evenodd" d="M2077.16 201.134L2001.59 274.476V646.743L2077.16 723.419H2224.95L2300.52 646.743V274.476L2224.95 201.134H2077.16ZM2166.06 300.035H2137.17V622.296H2166.06V300.035Z" fill="#081164"/>
<path fill-rule="evenodd" clip-rule="evenodd" d="M2405.03 100.659L2405.03 100.659C2408.58 104.71 2410.53 109.91 2410.53 115.294V172.434C2410.53 178.328 2408.19 183.981 2404.02 188.149L2389.77 202.405L2389.77 202.405C2385.6 206.573 2379.95 208.914 2374.05 208.914H2324.78C2318.88 208.914 2313.23 206.573 2309.06 202.405L2309.06 202.405L2294.81 188.149C2294.81 188.149 2294.81 188.149 2294.81 188.149C2290.64 183.981 2288.3 178.328 2288.3 172.434V115.294C2288.3 109.91 2290.25 104.71 2293.8 100.659L2308.14 84.2661C2312.36 79.4429 2318.46 76.6764 2324.86 76.6764H2373.97C2380.37 76.6764 2386.47 79.443 2390.69 84.2661L2405.03 100.659ZM2324.86 96.6788H2373.97C2374.61 96.6788 2375.22 96.9554 2375.64 97.4378L2389.98 113.83C2390.34 114.235 2390.53 114.755 2390.53 115.294V172.434C2390.53 173.023 2390.3 173.589 2389.88 174.006L2375.62 188.261C2375.21 188.678 2374.64 188.912 2374.05 188.912H2324.78C2324.19 188.912 2323.62 188.678 2323.21 188.261L2308.95 174.006C2308.53 173.589 2308.3 173.023 2308.3 172.434V115.294C2308.3 114.755 2308.49 114.235 2308.85 113.83L2323.19 97.4378C2323.61 96.9554 2324.22 96.6788 2324.86 96.6788Z" fill="#081164"/>
<path fill-rule="evenodd" clip-rule="evenodd" d="M2326.08 106.679V180.021H2346.08V153.351H2354.97V180.021H2372.75V153.351L2364.97 145.572L2372.75 137.794V117.791L2361.64 106.679H2326.08ZM2354.97 115.569H2346.08V146.683H2354.97V115.569Z" fill="#081164"/>
</svg>
